SplineFontDB: 3.0
FontName: Dosis-SemiBold
FullName: Dosis SemiBold
FamilyName: Dosis
Weight: Demi
Copyright: Copyright (c) 2011, Edgar Tolentino, Pablo Impallari, Igino Marini (impallari.com), with Reserved Font Name Dosis.
Version: 1.007
ItalicAngle: 0
UnderlinePosition: -25
UnderlineWidth: 26
Ascent: 800
Descent: 200
sfntRevision: 0x00010189
woffMajor: 1
woffMinor: 1
LayerCount: 2
Layer: 0 1 "Back"  1
Layer: 1 1 "Fore"  0
XUID: [1021 667 29342 9916]
FSType: 0
OS2Version: 3
OS2_WeightWidthSlopeOnly: 0
OS2_UseTypoMetrics: 1
CreationTime: 1315222602
ModificationTime: 1368354092
PfmFamily: 17
TTFWeight: 600
TTFWidth: 5
LineGap: 0
VLineGap: 0
Panose: 2 1 7 3 2 2 2 6 0 3
OS2TypoAscent: 1027
OS2TypoAOffset: 0
OS2TypoDescent: -237
OS2TypoDOffset: 0
OS2TypoLinegap: 0
OS2WinAscent: 1027
OS2WinAOffset: 0
OS2WinDescent: 237
OS2WinDOffset: 0
HheadAscent: 1027
HheadAOffset: 0
HheadDescent: -237
HheadDOffset: 0
OS2SubXSize: 700
OS2SubYSize: 650
OS2SubXOff: 0
OS2SubYOff: 140
OS2SupXSize: 700
OS2SupYSize: 650
OS2SupXOff: 0
OS2SupYOff: 477
OS2StrikeYSize: 50
OS2StrikeYPos: 250
OS2FamilyClass: 2048
OS2Vendor: 'PYRS'
OS2CodePages: 20000093.00000000
OS2UnicodeRanges: a00000bf.5000207b.00000000.00000000
Lookup: 258 0 0 "'kern' Horizontal Kerning in Latin lookup 0"  {"'kern' Horizontal Kerning in Latin lookup 0 subtable"  } ['kern' ('DFLT' <'dflt' > 'latn' <'dflt' > ) ]
DEI: 91125
TtTable: prep
PUSHB_1
 22
CALL
PUSHW_1
 511
SCANCTRL
PUSHB_1
 1
SCANTYPE
SVTCA[y-axis]
MPPEM
PUSHB_1
 8
LT
IF
PUSHB_2
 1
 1
INSTCTRL
EIF
PUSHB_2
 70
 6
CALL
IF
POP
PUSHB_1
 16
EIF
MPPEM
PUSHB_1
 20
GT
IF
POP
PUSHB_1
 128
EIF
SCVTCI
PUSHB_1
 6
CALL
NOT
IF
SVTCA[y-axis]
PUSHB_1
 4
DUP
RCVT
PUSHB_1
 3
CALL
WCVTP
PUSHB_1
 10
DUP
RCVT
PUSHB_3
 4
 133
 2
CALL
PUSHB_1
 3
CALL
WCVTP
PUSHB_1
 9
DUP
RCVT
PUSHB_3
 10
 59
 2
CALL
PUSHB_1
 3
CALL
WCVTP
PUSHB_1
 8
DUP
RCVT
PUSHB_3
 9
 48
 2
CALL
PUSHB_1
 3
CALL
WCVTP
PUSHB_1
 7
DUP
RCVT
PUSHB_3
 8
 38
 2
CALL
PUSHB_1
 3
CALL
WCVTP
PUSHB_1
 6
DUP
RCVT
PUSHB_3
 7
 27
 2

StartChar: exclam
Encoding: 33 33 5
Width: 210
Flags: W
LayerCount: 2
Fore
SplineSet
46 54 m 0,0,1
 46 79 46 79 63.5 96.5 c 128,-1,2
 81 114 81 114 106 114 c 0,3,4
 130 114 130 114 147.5 96.5 c 128,-1,5
 165 79 165 79 165 54 c 0,6,7
 165 30 165 30 147.5 12 c 128,-1,8
 130 -6 130 -6 106 -6 c 0,9,10
 81 -6 81 -6 63.5 12 c 128,-1,11
 46 30 46 30 46 54 c 0,0,1
52 690 m 0,12,13
 52 713 52 713 67 725.5 c 128,-1,14
 82 738 82 738 105 738 c 128,-1,15
 128 738 128 738 143 725 c 128,-1,16
 158 712 158 712 158 690 c 0,17,18
 158 618 158 618 151.5 455 c 128,-1,19
 145 292 145 292 145 220 c 0,20,21
 145 205 145 205 132 196.5 c 128,-1,22
 119 188 119 188 105 188 c 0,23,24
 64 188 64 188 64 220 c 0,25,26
 64 292 64 292 58 455 c 128,-1,27
 52 618 52 618 52 690 c 0,12,13
EndSplineSet
EndChar

StartChar: quotedbl
Encoding: 34 34 6
Width: 291
Flags: W
LayerCount: 2
Fore
SplineSet
32 739 m 2,0,1
 32 751 32 751 44.5 759.5 c 128,-1,2
 57 768 57 768 73 768 c 128,-1,3
 89 768 89 768 102.5 759.5 c 128,-1,4
 116 751 116 751 116 739 c 2,5,-1
 106 598 l 2,6,7
 106 586 106 586 97.5 577 c 128,-1,8
 89 568 89 568 73 568 c 0,9,10
 42 568 42 568 42 598 c 1,11,-1
 32 739 l 2,0,1
175 739 m 2,12,13
 175 751 175 751 188 759.5 c 128,-1,14
 201 768 201 768 217 768 c 128,-1,15
 233 768 233 768 246 759.5 c 128,-1,16
 259 751 259 751 259 739 c 2,17,-1
 249 598 l 2,18,19
 249 586 249 586 240.5 577 c 128,-1,20
 232 568 232 568 217 568 c 0,21,22
 185 568 185 568 185 598 c 1,23,-1
 175 739 l 2,12,13
EndSplineSet
EndChar

StartChar: numbersign
Encoding: 35 35 7
Width: 642
Flags: W
LayerCount: 2
Fore
SplineSet
24 271 m 128,-1,1
 24 288 24 288 32.5 300 c 128,-1,2
 41 312 41 312 54 312 c 2,3,-1
 156 312 l 1,4,-1
 179 449 l 1,5,-1
 94 449 l 2,6,7
 62 449 62 449 62 488 c 0,8,9
 62 505 62 505 70.5 516.5 c 128,-1,10
 79 528 79 528 92 528 c 2,11,-1
 195 528 l 1,12,-1
 222 690 l 2,13,14
 223 700 223 700 236 706.5 c 128,-1,15
 249 713 249 713 265 713 c 0,16,17
 286 713 286 713 300 702.5 c 128,-1,18
 314 692 314 692 314 671 c 1,19,-1
 290 528 l 1,20,-1
 406 528 l 1,21,-1
 434 690 l 2,22,23
 435 700 435 700 448 706.5 c 128,-1,24
 461 713 461 713 477 713 c 0,25,26
 497 713 497 713 511 702.5 c 128,-1,27
 525 692 525 692 526 671 c 1,28,-1
 501 528 l 1,29,-1
 586 528 l 2,30,31
 599 528 599 528 609 517 c 128,-1,32
 619 506 619 506 619 489 c 128,-1,33
 619 472 619 472 609.5 460.5 c 128,-1,34
 600 449 600 449 588 449 c 2,35,-1
 487 449 l 1,36,-1
 463 312 l 1,37,-1
 548 312 l 2,38,39
 561 312 561 312 571.5 300.5 c 128,-1,40
 582 289 582 289 582 272 c 128,-1,41
 582 255 582 255 572 243.5 c 128,-1,42
 562 232 562 232 550 232 c 2,43,-1
 448 232 l 1,44,-1
 418 57 l 2,45,46
 416 46 416 46 403 38.5 c 128,-1,47
 390 31 390 31 376 31 c 0,48,49
 355 31 355 31 340 42 c 128,-1,50
 325 53 325 53 325 72 c 1,51,-1
 352 232 l 1,52,-1
 237 232 l 1,53,-1
 207 58 l 2,54,55
 205 47 205 47 192 39 c 128,-1,56
 179 31 179 31 166 31 c 0,57,58
 145 31 145 31 130 42 c 128,-1,59
 115 53 115 53 115 72 c 1,60,-1
 140 232 l 1,61,-1
 56 232 l 2,62,63
 41 232 41 232 32.5 243 c 128,-1,0
 24 254 24 254 24 271 c 128,-1,1
252 312 m 1,64,-1
 367 312 l 1,65,-1
 391 449 l 1,66,-1
 275 449 l 1,67,-1
 252 312 l 1,64,-1
EndSplineSet
EndChar

StartChar: dollar
Encoding: 36 36 8
Width: 515
Flags: W
LayerCount: 2
Fore
SplineSet
31 120 m 0,0,1
 31 139 31 139 45 158 c 128,-1,2
 59 177 59 177 77 177 c 0,3,4
 89 177 89 177 108.5 159.5 c 128,-1,5
 128 142 128 142 161.5 122 c 128,-1,6
 195 102 195 102 239 99 c 1,7,-1
 239 334 l 1,8,9
 209 345 209 345 193 351.5 c 128,-1,10
 177 358 177 358 150.5 370.5 c 128,-1,11
 124 383 124 383 109.5 396.5 c 128,-1,12
 95 410 95 410 79 429 c 128,-1,13
 63 448 63 448 56 473.5 c 128,-1,14
 49 499 49 499 49 530 c 0,15,16
 49 617 49 617 103.5 662 c 128,-1,17
 158 707 158 707 239 716 c 1,18,-1
 239 745 l 2,19,20
 239 754 239 754 247.5 761 c 128,-1,21
 256 768 256 768 268 768 c 0,22,23
 279 768 279 768 288.5 761 c 128,-1,24
 298 754 298 754 298 745 c 2,25,-1
 298 718 l 1,26,27
 359 716 359 716 410.5 697.5 c 128,-1,28
 462 679 462 679 462 646 c 0,29,30
 462 628 462 628 450 608.5 c 128,-1,31
 438 589 438 589 418 589 c 0,32,33
 410 589 410 589 374 606 c 128,-1,34
 338 623 338 623 298 626 c 1,35,-1
 298 423 l 1,36,37
 338 408 338 408 364.5 394.5 c 128,-1,38
 391 381 391 381 420.5 357 c 128,-1,39
 450 333 450 333 465 296.5 c 128,-1,40
 480 260 480 260 480 211 c 0,41,42
 480 122 480 122 431 69.5 c 128,-1,43
 382 17 382 17 298 5 c 1,44,-1
 298 -29 l 2,45,46
 298 -38 298 -38 288.5 -45 c 128,-1,47
 279 -52 279 -52 268 -52 c 0,48,49
 256 -52 256 -52 247.5 -45 c 128,-1,50
 239 -38 239 -38 239 -29 c 2,51,-1
 239 2 l 1,52,53
 152 3 152 3 91.5 41.5 c 128,-1,54
 31 80 31 80 31 120 c 0,0,1
149 540 m 0,55,56
 149 501 149 501 173 480.5 c 128,-1,57
 197 460 197 460 245 442 c 1,58,-1
 245 624 l 1,59,60
 149 612 149 612 149 540 c 0,55,56
292 101 m 1,61,62
 380 117 380 117 380 200 c 0,63,64
 380 244 380 244 357 269 c 128,-1,65
 334 294 334 294 292 312 c 1,66,-1
 292 101 l 1,61,62
EndSplineSet
EndChar

StartChar: percent
Encoding: 37 37 9
Width: 774
Flags: W
LayerCount: 2
Fore
SplineSet
31 460 m 2,0,-1
 31 608 l 2,1,2
 31 731 31 731 166 731 c 0,3,4
 227 731 227 731 264 701.5 c 128,-1,5
 301 672 301 672 301 608 c 2,6,-1
 301 460 l 2,7,8
 301 396 301 396 264 366.5 c 128,-1,9
 227 337 227 337 166 337 c 0,10,11
 31 337 31 337 31 460 c 2,0,-1
104 460 m 2,12,13
 104 401 104 401 166 401 c 0,14,15
 229 401 229 401 229 460 c 2,16,-1
 229 608 l 2,17,18
 229 667 229 667 166 667 c 0,19,20
 104 667 104 667 104 608 c 2,21,-1
 104 460 l 2,12,13
168 2 m 0,22,23
 168 10 168 10 172 17 c 2,24,-1
 539 752 l 2,25,26
 547 770 547 770 569 770 c 0,27,28
 585 770 585 770 598 759 c 128,-1,29
 611 748 611 748 611 732 c 0,30,31
 611 724 611 724 608 716 c 2,32,-1
 241 -16 l 2,33,34
 232 -35 232 -35 207 -35 c 0,35,36
 190 -35 190 -35 179 -23.5 c 128,-1,37
 168 -12 168 -12 168 2 c 0,22,23
473 120 m 2,38,-1
 473 268 l 2,39,40
 473 391 473 391 608 391 c 0,41,42
 669 391 669 391 706 361.5 c 128,-1,43
 743 332 743 332 743 268 c 2,44,-1
 743 120 l 2,45,46
 743 56 743 56 706 26.5 c 128,-1,47
 669 -3 669 -3 608 -3 c 0,48,49
 473 -3 473 -3 473 120 c 2,38,-1
546 120 m 2,50,51
 546 61 546 61 608 61 c 0,52,53
 671 61 671 61 671 120 c 2,54,-1
 671 268 l 2,55,56
 671 327 671 327 608 327 c 0,57,58
 546 327 546 327 546 268 c 2,59,-1
 546 120 l 2,50,51
EndSplineSet
EndChar

StartChar: ampersand
Encoding: 38 38 10
Width: 629
Flags: W
LayerCount: 2
Fore
SplineSet
26 207 m 0,0,1
 26 275 26 275 63 327.5 c 128,-1,2
 100 380 100 380 155 409 c 1,3,4
 119 450 119 450 100 487 c 128,-1,5
 81 524 81 524 81 571 c 0,6,7
 81 653 81 653 138 700.5 c 128,-1,8
 195 748 195 748 280 748 c 0,9,10
 360 748 360 748 412 711 c 128,-1,11
 464 674 464 674 464 639 c 0,12,13
 464 620 464 620 448.5 605 c 128,-1,14
 433 590 433 590 414 590 c 0,15,16
 399 590 399 590 383.5 608 c 128,-1,17
 368 626 368 626 343.5 644 c 128,-1,18
 319 662 319 662 282 662 c 0,19,20
 237 662 237 662 210 636.5 c 128,-1,21
 183 611 183 611 183 566 c 0,22,23
 183 544 183 544 191 522.5 c 128,-1,24
 199 501 199 501 217.5 476.5 c 128,-1,25
 236 452 236 452 247 440 c 2,26,-1
 282 401 l 1,27,-1
 459 211 l 1,28,29
 480 260 480 260 485 363 c 1,30,31
 487 381 487 381 497 389.5 c 128,-1,32
 507 398 507 398 533 398 c 128,-1,33
 559 398 559 398 568 386 c 128,-1,34
 577 374 577 374 577 347 c 0,35,36
 577 238 577 238 524 144 c 1,37,-1
 609 54 l 2,38,39
 616 46 616 46 616 35 c 0,40,41
 616 19 616 19 601 5.5 c 128,-1,42
 586 -8 586 -8 567 -8 c 0,43,44
 553 -8 553 -8 540 5 c 2,45,-1
 471 77 l 1,46,47
 391 -10 391 -10 269 -10 c 0,48,49
 160 -10 160 -10 93 53.5 c 128,-1,50
 26 117 26 117 26 207 c 0,0,1
133 216 m 0,51,52
 133 159 133 159 172.5 121 c 128,-1,53
 212 83 212 83 282 83 c 0,54,55
 364 83 364 83 408 142 c 1,56,-1
 215 346 l 1,57,58
 133 290 133 290 133 216 c 0,51,52
EndSplineSet
EndChar

StartChar: quotesingle
Encoding: 39 39 11
Width: 148
Flags: W
LayerCount: 2
Fore
SplineSet
32 739 m 2,0,1
 32 751 32 751 44.5 759.5 c 128,-1,2
 57 768 57 768 73 768 c 128,-1,3
 89 768 89 768 102.5 759.5 c 128,-1,4
 116 751 116 751 116 739 c 2,5,-1
 106 598 l 2,6,7
 106 586 106 586 97.5 577 c 128,-1,8
 89 568 89 568 73 568 c 0,9,10
 42 568 42 568 42 598 c 1,11,-1
 32 739 l 2,0,1
EndSplineSet
EndChar

StartChar: parenleft
Encoding: 40 40 12
Width: 325
Flags: W
LayerCount: 2
Fore
SplineSet
53 160 m 2,0,-1
 53 574 l 2,1,2
 53 656 53 656 115 712 c 128,-1,3
 177 768 177 768 256 768 c 0,4,5
 308 768 308 768 308 722 c 0,6,7
 308 701 308 701 298 688 c 128,-1,8
 288 675 288 675 273 675 c 0,9,10
 221 675 221 675 189.5 644.5 c 128,-1,11
 158 614 158 614 158 574 c 2,12,-1
 158 160 l 2,13,14
 158 112 158 112 192 92.5 c 128,-1,15
 226 73 226 73 273 73 c 0,16,17
 308 73 308 73 308 26 c 0,18,19
 308 -20 308 -20 253 -20 c 0,20,21
 170 -20 170 -20 111.5 26.5 c 128,-1,22
 53 73 53 73 53 160 c 2,0,-1
EndSplineSet
EndChar

StartChar: parenright
Encoding: 41 41 13
Width: 326
Flags: W
LayerCount: 2
Fore
SplineSet
18 26 m 0,0,1
 18 73 18 73 52 73 c 0,2,3
 99 73 99 73 133 92.5 c 128,-1,4
 167 112 167 112 167 160 c 2,5,-1
 167 574 l 2,6,7
 167 614 167 614 135.5 644.5 c 128,-1,8
 104 675 104 675 52 675 c 0,9,10
 37 675 37 675 27.5 688 c 128,-1,11
 18 701 18 701 18 722 c 0,12,13
 18 768 18 768 69 768 c 0,14,15
 148 768 148 768 210.5 712 c 128,-1,16
 273 656 273 656 273 574 c 2,17,-1
 273 160 l 2,18,19
 273 73 273 73 214 26.5 c 128,-1,20
 155 -20 155 -20 72 -20 c 0,21,22
 41 -20 41 -20 29.5 -8 c 128,-1,23
 18 4 18 4 18 26 c 0,0,1
EndSplineSet
EndChar

StartChar: asterisk
Encoding: 42 42 14
Width: 451
Flags: W
LayerCount: 2
Fore
SplineSet
25 579 m 0,0,1
 25 595 25 595 36 607.5 c 128,-1,2
 47 620 47 620 64 620 c 0,3,4
 70 620 70 620 75 618 c 2,5,-1
 192 578 l 1,6,-1
 187 696 l 1,7,8
 188 713 188 713 199 722 c 128,-1,9
 210 731 210 731 226 731 c 128,-1,10
 242 731 242 731 252.5 722 c 128,-1,11
 263 713 263 713 264 696 c 1,12,-1
 260 576 l 1,13,-1
 377 618 l 2,14,15
 385 620 385 620 388 620 c 0,16,17
 404 620 404 620 415 606 c 128,-1,18
 426 592 426 592 426 575 c 0,19,20
 426 549 426 549 401 543 c 2,21,-1
 286 513 l 1,22,-1
 362 407 l 2,23,24
 368 400 368 400 368 386 c 0,25,26
 368 369 368 369 354.5 358 c 128,-1,27
 341 347 341 347 324 347 c 0,28,29
 306 347 306 347 297 361 c 2,30,-1
 226 467 l 1,31,-1
 154 360 l 2,32,33
 146 347 146 347 129 347 c 0,34,35
 114 347 114 347 99 357.5 c 128,-1,36
 84 368 84 368 84 385 c 0,37,38
 84 398 84 398 92 408 c 2,39,-1
 166 509 l 1,40,-1
 49 543 l 2,41,42
 25 549 25 549 25 579 c 0,0,1
EndSplineSet
EndChar

StartChar: plus
Encoding: 43 43 15
Width: 433
Flags: W
LayerCount: 2
Fore
SplineSet
22 240 m 128,-1,1
 22 259 22 259 31.5 272 c 128,-1,2
 41 285 41 285 56 285 c 2,3,-1
 172 285 l 1,4,-1
 172 400 l 2,5,6
 172 414 172 414 185.5 424.5 c 128,-1,7
 199 435 199 435 217 435 c 0,8,9
 236 435 236 435 248.5 424.5 c 128,-1,10
 261 414 261 414 261 400 c 2,11,-1
 261 285 l 1,12,-1
 376 285 l 2,13,14
 390 285 390 285 400.5 271.5 c 128,-1,15
 411 258 411 258 411 240 c 0,16,17
 411 221 411 221 400.5 208.5 c 128,-1,18
 390 196 390 196 376 196 c 2,19,-1
 261 196 l 1,20,-1
 261 80 l 2,21,22
 261 65 261 65 248.5 55.5 c 128,-1,23
 236 46 236 46 217 46 c 128,-1,24
 198 46 198 46 185 55.5 c 128,-1,25
 172 65 172 65 172 80 c 2,26,-1
 172 196 l 1,27,-1
 56 196 l 2,28,29
 41 196 41 196 31.5 208.5 c 128,-1,0
 22 221 22 221 22 240 c 128,-1,1
EndSplineSet
EndChar

StartChar: comma
Encoding: 44 44 16
Width: 185
Flags: W
LayerCount: 2
Fore
SplineSet
33 54 m 0,0,1
 33 79 33 79 50 96.5 c 128,-1,2
 67 114 67 114 92 114 c 0,3,4
 116 114 116 114 134 96.5 c 128,-1,5
 152 79 152 79 152 54 c 0,6,7
 152 38 152 38 103 -79 c 0,8,9
 96 -94 96 -94 79 -94 c 0,10,11
 66 -94 66 -94 54.5 -86.5 c 128,-1,12
 43 -79 43 -79 43 -66 c 0,13,14
 43 -58 43 -58 46 -53 c 2,15,-1
 68 0 l 1,16,17
 33 15 33 15 33 54 c 0,0,1
EndSplineSet
EndChar

StartChar: hyphen
Encoding: 45 45 17
Width: 412
Flags: W
LayerCount: 2
Fore
SplineSet
41 240 m 128,-1,1
 41 259 41 259 50.5 272 c 128,-1,2
 60 285 60 285 75 285 c 2,3,-1
 335 285 l 2,4,5
 349 285 349 285 360 271.5 c 128,-1,6
 371 258 371 258 371 240 c 0,7,8
 371 221 371 221 360 208.5 c 128,-1,9
 349 196 349 196 335 196 c 2,10,-1
 75 196 l 2,11,12
 60 196 60 196 50.5 208.5 c 128,-1,0
 41 221 41 221 41 240 c 128,-1,1
EndSplineSet
EndChar

StartChar: period
Encoding: 46 46 18
Width: 184
Flags: W
LayerCount: 2
Fore
SplineSet
33 54 m 128,-1,1
 33 79 33 79 50 96.5 c 128,-1,2
 67 114 67 114 93 114 c 0,3,4
 117 114 117 114 134.5 96.5 c 128,-1,5
 152 79 152 79 152 54 c 0,6,7
 152 30 152 30 134.5 12 c 128,-1,8
 117 -6 117 -6 93 -6 c 0,9,10
 67 -6 67 -6 50 11.5 c 128,-1,0
 33 29 33 29 33 54 c 128,-1,1
EndSplineSet
EndChar

StartChar: slash
Encoding: 47 47 19
Width: 481
Flags: W
LayerCount: 2
Fore
SplineSet
19 2 m 0,0,1
 19 10 19 10 22 17 c 2,2,-1
 390 752 l 2,3,4
 398 770 398 770 420 770 c 0,5,6
 436 770 436 770 449 759 c 128,-1,7
 462 748 462 748 462 732 c 0,8,9
 462 723 462 723 458 716 c 2,10,-1
 91 -16 l 2,11,12
 82 -35 82 -35 58 -35 c 0,13,14
 41 -35 41 -35 30 -23.5 c 128,-1,15
 19 -12 19 -12 19 2 c 0,0,1
EndSplineSet
EndChar

StartChar: zero
Encoding: 48 48 20
Width: 551
Flags: W
LayerCount: 2
Fore
SplineSet
52 217 m 2,0,-1
 52 508 l 2,1,2
 52 623 52 623 113 677 c 128,-1,3
 174 731 174 731 276 731 c 128,-1,4
 378 731 378 731 439.5 677 c 128,-1,5
 501 623 501 623 501 508 c 2,6,-1
 501 217 l 2,7,8
 501 102 501 102 439.5 48 c 128,-1,9
 378 -6 378 -6 276 -6 c 128,-1,10
 174 -6 174 -6 113 48 c 128,-1,11
 52 102 52 102 52 217 c 2,0,-1
158 217 m 2,12,13
 158 88 158 88 276 88 c 0,14,15
 333 88 333 88 364 120 c 128,-1,16
 395 152 395 152 395 217 c 2,17,-1
 395 508 l 2,18,19
 395 573 395 573 364 605 c 128,-1,20
 333 637 333 637 276 637 c 0,21,22
 158 637 158 637 158 508 c 2,23,-1
 158 217 l 2,12,13
234 362 m 128,-1,25
 234 381 234 381 246 392.5 c 128,-1,26
 258 404 258 404 277 404 c 128,-1,27
 296 404 296 404 307.5 392.5 c 128,-1,28
 319 381 319 381 319 362 c 128,-1,29
 319 343 319 343 307.5 331 c 128,-1,30
 296 319 296 319 277 319 c 128,-1,31
 258 319 258 319 246 331 c 128,-1,24
 234 343 234 343 234 362 c 128,-1,25
EndSplineSet
EndChar

StartChar: one
Encoding: 49 49 21
Width: 267
Flags: W
LayerCount: 2
Fore
SplineSet
7 580 m 0,0,1
 7 606 7 606 28 621 c 1,2,-1
 132 721 l 2,3,4
 143 732 143 732 159 732 c 0,5,6
 177 732 177 732 191.5 722.5 c 128,-1,7
 206 713 206 713 206 697 c 2,8,-1
 206 35 l 2,9,10
 206 19 206 19 190 9.5 c 128,-1,11
 174 0 174 0 153 0 c 0,12,13
 131 0 131 0 115.5 9.5 c 128,-1,14
 100 19 100 19 100 35 c 2,15,-1
 100 591 l 1,16,-1
 65 547 l 1,17,18
 55 537 55 537 43 537 c 0,19,20
 28 537 28 537 17.5 550.5 c 128,-1,21
 7 564 7 564 7 580 c 0,0,1
EndSplineSet
EndChar

StartChar: two
Encoding: 50 50 22
Width: 495
Flags: W
LayerCount: 2
Fore
SplineSet
30 35 m 2,0,-1
 30 132 l 2,1,2
 30 177 30 177 63.5 220 c 128,-1,3
 97 263 97 263 146 298 c 2,4,-1
 242 368 l 2,5,6
 290 403 290 403 323.5 445 c 128,-1,7
 357 487 357 487 357 529 c 128,-1,8
 357 571 357 571 329.5 602.5 c 128,-1,9
 302 634 302 634 249 634 c 0,10,11
 204 634 204 634 176 609 c 128,-1,12
 148 584 148 584 148 535 c 0,13,14
 148 519 148 519 132.5 507 c 128,-1,15
 117 495 117 495 92 495 c 0,16,17
 44 495 44 495 44 554 c 0,18,19
 44 632 44 632 104.5 681.5 c 128,-1,20
 165 731 165 731 249 731 c 0,21,22
 338 731 338 731 400.5 675.5 c 128,-1,23
 463 620 463 620 463 532 c 0,24,25
 463 472 463 472 429.5 419.5 c 128,-1,26
 396 367 396 367 348.5 330.5 c 128,-1,27
 301 294 301 294 253.5 261.5 c 128,-1,28
 206 229 206 229 172.5 196 c 128,-1,29
 139 163 139 163 139 132 c 2,30,-1
 139 94 l 1,31,-1
 433 94 l 2,32,33
 447 94 447 94 457.5 80.5 c 128,-1,34
 468 67 468 67 468 48 c 128,-1,35
 468 29 468 29 457.5 14.5 c 128,-1,36
 447 0 447 0 433 0 c 2,37,-1
 77 0 l 2,38,39
 61 0 61 0 45.5 10 c 128,-1,40
 30 20 30 20 30 35 c 2,0,-1
EndSplineSet
EndChar

StartChar: three
Encoding: 51 51 23
Width: 509
Flags: W
LayerCount: 2
Fore
SplineSet
24 170 m 0,0,1
 24 196 24 196 35 205.5 c 128,-1,2
 46 215 46 215 73 215 c 0,3,4
 105 215 105 215 116.5 205.5 c 128,-1,5
 128 196 128 196 128 175 c 0,6,7
 128 139 128 139 158.5 113.5 c 128,-1,8
 189 88 189 88 246 88 c 0,9,10
 308 88 308 88 337.5 117.5 c 128,-1,11
 367 147 367 147 367 212 c 2,12,-1
 367 231 l 2,13,14
 367 340 367 340 245 340 c 0,15,16
 211 340 211 340 211 382 c 0,17,18
 211 425 211 425 245 425 c 0,19,20
 296 425 296 425 322.5 448 c 128,-1,21
 349 471 349 471 349 535 c 0,22,23
 349 638 349 638 249 638 c 0,24,25
 193 638 193 638 169 614.5 c 128,-1,26
 145 591 145 591 145 556 c 0,27,28
 145 513 145 513 95 513 c 0,29,30
 61 513 61 513 50.5 523 c 128,-1,31
 40 533 40 533 40 562 c 0,32,33
 40 589 40 589 50 616 c 128,-1,34
 60 643 60 643 82.5 670 c 128,-1,35
 105 697 105 697 148.5 714 c 128,-1,36
 192 731 192 731 250 731 c 0,37,38
 451 731 451 731 451 553 c 0,39,40
 451 492 451 492 429.5 448 c 128,-1,41
 408 404 408 404 371 386 c 1,42,43
 473 346 473 346 473 231 c 2,44,-1
 473 212 l 2,45,46
 473 99 473 99 410 46.5 c 128,-1,47
 347 -6 347 -6 245 -6 c 0,48,49
 137 -6 137 -6 80.5 48 c 128,-1,50
 24 102 24 102 24 170 c 0,0,1
EndSplineSet
EndChar

StartChar: four
Encoding: 52 52 24
Width: 482
Flags: W
LayerCount: 2
Fore
SplineSet
3 203 m 0,0,1
 3 214 3 214 9 225 c 2,2,-1
 251 702 l 2,3,4
 266 731 266 731 297 731 c 0,5,6
 314 731 314 731 332 719 c 128,-1,7
 350 707 350 707 350 690 c 0,8,9
 350 684 350 684 345 674 c 2,10,-1
 139 263 l 1,11,-1
 286 263 l 1,12,-1
 286 401 l 2,13,14
 286 436 286 436 339 436 c 0,15,16
 361 436 361 436 376.5 427 c 128,-1,17
 392 418 392 418 392 401 c 2,18,-1
 392 263 l 1,19,-1
 441 263 l 2,20,21
 458 263 458 263 467.5 248 c 128,-1,22
 477 233 477 233 477 213 c 0,23,24
 477 195 477 195 466 179.5 c 128,-1,25
 455 164 455 164 441 164 c 2,26,-1
 392 164 l 1,27,-1
 392 35 l 2,28,29
 392 19 392 19 376 9.5 c 128,-1,30
 360 0 360 0 339 0 c 0,31,32
 317 0 317 0 301.5 9.5 c 128,-1,33
 286 19 286 19 286 35 c 2,34,-1
 286 164 l 1,35,-1
 40 164 l 2,36,37
 24 164 24 164 13.5 174.5 c 128,-1,38
 3 185 3 185 3 203 c 0,0,1
EndSplineSet
EndChar

StartChar: five
Encoding: 53 53 25
Width: 497
Flags: W
LayerCount: 2
Fore
SplineSet
22 171 m 0,0,1
 22 220 22 220 74 220 c 0,2,3
 128 220 128 220 128 178 c 128,-1,4
 128 136 128 136 161.5 112 c 128,-1,5
 195 88 195 88 245 88 c 0,6,7
 365 88 365 88 365 214 c 2,8,-1
 365 233 l 2,9,10
 365 296 365 296 334 327.5 c 128,-1,11
 303 359 303 359 246 359 c 2,12,-1
 101 359 l 2,13,14
 56 359 56 359 56 400 c 0,15,16
 56 410 56 410 58 424 c 2,17,-1
 81 696 l 2,18,19
 84 731 84 731 105 731 c 2,20,-1
 402 731 l 2,21,22
 418 731 418 731 426.5 717 c 128,-1,23
 435 703 435 703 435 684 c 128,-1,24
 435 665 435 665 426.5 651 c 128,-1,25
 418 637 418 637 402 637 c 2,26,-1
 171 637 l 1,27,-1
 157 443 l 1,28,-1
 246 443 l 2,29,30
 349 443 349 443 410 392.5 c 128,-1,31
 471 342 471 342 471 233 c 2,32,-1
 471 214 l 2,33,34
 471 101 471 101 409.5 47.5 c 128,-1,35
 348 -6 348 -6 247 -6 c 0,36,37
 143 -6 143 -6 82.5 45.5 c 128,-1,38
 22 97 22 97 22 171 c 0,0,1
EndSplineSet
EndChar

StartChar: six
Encoding: 54 54 26
Width: 536
Flags: W
LayerCount: 2
Fore
SplineSet
50 217 m 2,0,-1
 50 508 l 2,1,2
 50 623 50 623 112.5 677 c 128,-1,3
 175 731 175 731 279 731 c 0,4,5
 384 731 384 731 441.5 677.5 c 128,-1,6
 499 624 499 624 499 553 c 0,7,8
 499 528 499 528 487 518 c 128,-1,9
 475 508 475 508 449 508 c 0,10,11
 394 508 394 508 394 548 c 128,-1,12
 394 588 394 588 360.5 612.5 c 128,-1,13
 327 637 327 637 277 637 c 0,14,15
 155 637 155 637 155 508 c 2,16,-1
 155 382 l 1,17,18
 201 439 201 439 295 439 c 0,19,20
 499 439 499 439 499 235 c 2,21,-1
 499 217 l 2,22,23
 499 102 499 102 438 48 c 128,-1,24
 377 -6 377 -6 275 -6 c 128,-1,25
 173 -6 173 -6 111.5 48 c 128,-1,26
 50 102 50 102 50 217 c 2,0,-1
155 211 m 2,27,28
 155 82 155 82 275 82 c 0,29,30
 393 82 393 82 393 211 c 2,31,-1
 393 228 l 2,32,33
 393 354 393 354 274 354 c 128,-1,34
 155 354 155 354 155 237 c 2,35,-1
 155 211 l 2,27,28
EndSplineSet
EndChar

StartChar: seven
Encoding: 55 55 27
Width: 484
Flags: W
LayerCount: 2
Fore
SplineSet
21 543 m 2,0,-1
 21 696 l 2,1,2
 21 709 21 709 36 720 c 128,-1,3
 51 731 51 731 68 731 c 2,4,-1
 423 731 l 2,5,6
 439 731 439 731 454.5 720 c 128,-1,7
 470 709 470 709 470 696 c 2,8,-1
 470 593 l 2,9,10
 470 570 470 570 451 534 c 2,11,-1
 182 13 l 2,12,13
 173 -3 173 -3 150 -3 c 0,14,15
 124 -3 124 -3 104 12 c 128,-1,16
 84 27 84 27 84 49 c 0,17,18
 84 60 84 60 89 69 c 2,19,-1
 364 575 l 1,20,-1
 364 637 l 1,21,-1
 127 637 l 1,22,-1
 127 543 l 2,23,24
 127 528 127 528 110.5 518 c 128,-1,25
 94 508 94 508 73 508 c 128,-1,26
 52 508 52 508 36.5 518 c 128,-1,27
 21 528 21 528 21 543 c 2,0,-1
EndSplineSet
EndChar

StartChar: eight
Encoding: 56 56 28
Width: 521
Flags: W
LayerCount: 2
Fore
SplineSet
36 200 m 2,0,-1
 36 212 l 2,1,2
 36 357 36 357 151 399 c 1,3,4
 58 435 58 435 58 555 c 0,5,6
 58 646 58 646 112.5 688.5 c 128,-1,7
 167 731 167 731 261 731 c 128,-1,8
 355 731 355 731 409.5 688.5 c 128,-1,9
 464 646 464 646 464 555 c 0,10,11
 464 434 464 434 370 399 c 1,12,13
 485 357 485 357 485 212 c 2,14,-1
 485 200 l 2,15,16
 485 94 485 94 424 44 c 128,-1,17
 363 -6 363 -6 261 -6 c 128,-1,18
 159 -6 159 -6 97.5 44 c 128,-1,19
 36 94 36 94 36 200 c 2,0,-1
142 211 m 2,20,21
 142 146 142 146 173.5 114 c 128,-1,22
 205 82 205 82 261 82 c 0,23,24
 379 82 379 82 379 211 c 2,25,-1
 379 229 l 2,26,27
 379 354 379 354 261 354 c 0,28,29
 142 354 142 354 142 229 c 2,30,-1
 142 211 l 2,20,21
161 543 m 0,31,32
 161 442 161 442 261 442 c 128,-1,33
 361 442 361 442 361 543 c 0,34,35
 361 643 361 643 261 643 c 128,-1,36
 161 643 161 643 161 543 c 0,31,32
EndSplineSet
EndChar

StartChar: nine
Encoding: 57 57 29
Width: 536
Flags: W
LayerCount: 2
Fore
SplineSet
37 172 m 0,0,1
 37 197 37 197 49 207 c 128,-1,2
 61 217 61 217 87 217 c 0,3,4
 142 217 142 217 142 177 c 128,-1,5
 142 137 142 137 175.5 112.5 c 128,-1,6
 209 88 209 88 259 88 c 0,7,8
 380 88 380 88 380 217 c 2,9,-1
 380 343 l 1,10,11
 335 286 335 286 241 286 c 0,12,13
 37 286 37 286 37 490 c 2,14,-1
 37 508 l 2,15,16
 37 623 37 623 98 677 c 128,-1,17
 159 731 159 731 261 731 c 128,-1,18
 363 731 363 731 424.5 677 c 128,-1,19
 486 623 486 623 486 508 c 2,20,-1
 486 217 l 2,21,22
 486 102 486 102 423.5 48 c 128,-1,23
 361 -6 361 -6 256 -6 c 0,24,25
 152 -6 152 -6 94.5 47.5 c 128,-1,26
 37 101 37 101 37 172 c 0,0,1
143 497 m 2,27,28
 143 371 143 371 262 371 c 0,29,30
 380 371 380 371 380 488 c 2,31,-1
 380 514 l 2,32,33
 380 643 380 643 261 643 c 0,34,35
 143 643 143 643 143 514 c 2,36,-1
 143 497 l 2,27,28
EndSplineSet
EndChar

StartChar: colon
Encoding: 58 58 30
Width: 219
Flags: W
LayerCount: 2
Fore
SplineSet
50 54 m 128,-1,1
 50 79 50 79 67 96.5 c 128,-1,2
 84 114 84 114 110 114 c 0,3,4
 134 114 134 114 151.5 96.5 c 128,-1,5
 169 79 169 79 169 54 c 0,6,7
 169 30 169 30 151.5 12 c 128,-1,8
 134 -6 134 -6 110 -6 c 0,9,10
 84 -6 84 -6 67 11.5 c 128,-1,0
 50 29 50 29 50 54 c 128,-1,1
50 362 m 128,-1,12
 50 387 50 387 67 404.5 c 128,-1,13
 84 422 84 422 110 422 c 0,14,15
 134 422 134 422 151.5 404.5 c 128,-1,16
 169 387 169 387 169 362 c 0,17,18
 169 338 169 338 151.5 320 c 128,-1,19
 134 302 134 302 110 302 c 0,20,21
 84 302 84 302 67 319.5 c 128,-1,11
 50 337 50 337 50 362 c 128,-1,12
EndSplineSet
EndChar

StartChar: semicolon
Encoding: 59 59 31
Width: 219
Flags: W
LayerCount: 2
Fore
SplineSet
48 54 m 0,0,1
 48 79 48 79 65 96.5 c 128,-1,2
 82 114 82 114 107 114 c 0,3,4
 131 114 131 114 149 96.5 c 128,-1,5
 167 79 167 79 167 54 c 0,6,7
 167 38 167 38 118 -79 c 0,8,9
 111 -94 111 -94 94 -94 c 0,10,11
 81 -94 81 -94 69.5 -86.5 c 128,-1,12
 58 -79 58 -79 58 -66 c 0,13,14
 58 -58 58 -58 61 -53 c 2,15,-1
 83 0 l 1,16,17
 48 15 48 15 48 54 c 0,0,1
52 362 m 128,-1,19
 52 387 52 387 69 404.5 c 128,-1,20
 86 422 86 422 112 422 c 0,21,22
 136 422 136 422 153.5 404.5 c 128,-1,23
 171 387 171 387 171 362 c 0,24,25
 171 338 171 338 153.5 320 c 128,-1,26
 136 302 136 302 112 302 c 0,27,28
 86 302 86 302 69 319.5 c 128,-1,18
 52 337 52 337 52 362 c 128,-1,19
EndSplineSet
EndChar

StartChar: less
Encoding: 60 60 32
Width: 411
Flags: W
LayerCount: 2
Fore
SplineSet
21 277 m 0,0,1
 21 303 21 303 43 318 c 2,2,-1
 306 490 l 2,3,4
 311 494 311 494 321 494 c 0,5,6
 338 494 338 494 353.5 479 c 128,-1,7
 369 464 369 464 369 444 c 0,8,9
 369 425 369 425 354 415 c 2,10,-1
 144 277 l 1,11,-1
 354 139 l 1,12,13
 369 131 369 131 369 110 c 0,14,15
 369 90 369 90 353.5 75.5 c 128,-1,16
 338 61 338 61 321 61 c 0,17,18
 311 61 311 61 306 65 c 2,19,-1
 43 237 l 2,20,21
 21 252 21 252 21 277 c 0,0,1
EndSplineSet
EndChar

StartChar: equal
Encoding: 61 61 33
Width: 442
Flags: W
LayerCount: 2
Fore
SplineSet
58 152 m 0,0,1
 58 171 58 171 68 184 c 128,-1,2
 78 197 78 197 93 197 c 2,3,-1
 348 197 l 2,4,5
 362 197 362 197 373 183.5 c 128,-1,6
 384 170 384 170 384 152 c 0,7,8
 384 133 384 133 373 120.5 c 128,-1,9
 362 108 362 108 348 108 c 2,10,-1
 93 108 l 2,11,12
 77 108 77 108 67.5 120 c 128,-1,13
 58 132 58 132 58 152 c 0,0,1
58 355 m 0,14,15
 58 374 58 374 68 387 c 128,-1,16
 78 400 78 400 93 400 c 2,17,-1
 348 400 l 2,18,19
 362 400 362 400 373 386.5 c 128,-1,20
 384 373 384 373 384 355 c 0,21,22
 384 336 384 336 373 323.5 c 128,-1,23
 362 311 362 311 348 311 c 2,24,-1
 93 311 l 2,25,26
 77 311 77 311 67.5 323 c 128,-1,27
 58 335 58 335 58 355 c 0,14,15
EndSplineSet
EndChar

StartChar: greater
Encoding: 62 62 34
Width: 410
Flags: W
LayerCount: 2
Fore
SplineSet
42 110 m 128,-1,1
 42 130 42 130 56 139 c 2,2,-1
 267 277 l 1,3,-1
 56 415 l 1,4,5
 42 426 42 426 42 444 c 0,6,7
 42 464 42 464 57.5 479 c 128,-1,8
 73 494 73 494 90 494 c 0,9,10
 99 494 99 494 104 490 c 2,11,-1
 367 318 l 2,12,13
 389 303 389 303 389 277 c 128,-1,14
 389 251 389 251 367 237 c 2,15,-1
 104 65 l 2,16,17
 99 61 99 61 90 61 c 0,18,19
 73 61 73 61 57.5 75.5 c 128,-1,0
 42 90 42 90 42 110 c 128,-1,1
EndSplineSet
EndChar

StartChar: question
Encoding: 63 63 35
Width: 422
Flags: W
LayerCount: 2
Fore
SplineSet
22 636 m 0,0,1
 22 671 22 671 71 704.5 c 128,-1,2
 120 738 120 738 195 738 c 0,3,4
 288 738 288 738 341.5 689.5 c 128,-1,5
 395 641 395 641 395 566 c 0,6,7
 395 535 395 535 386 506.5 c 128,-1,8
 377 478 377 478 360 454.5 c 128,-1,9
 343 431 343 431 329.5 415.5 c 128,-1,10
 316 400 316 400 295.5 381.5 c 128,-1,11
 275 363 275 363 271 359 c 0,12,13
 241 332 241 332 234 304 c 128,-1,14
 227 276 227 276 227 219 c 0,15,16
 227 188 227 188 185 188 c 0,17,18
 164 188 164 188 155 198 c 128,-1,19
 146 208 146 208 146 234 c 0,20,21
 146 348 146 348 200 398 c 0,22,23
 206 404 206 404 225.5 420 c 128,-1,24
 245 436 245 436 255.5 446.5 c 128,-1,25
 266 457 266 457 280 474.5 c 128,-1,26
 294 492 294 492 300.5 512.5 c 128,-1,27
 307 533 307 533 307 556 c 0,28,29
 307 604 307 604 276.5 630.5 c 128,-1,30
 246 657 246 657 192 657 c 0,31,32
 160 657 160 657 137.5 647.5 c 128,-1,33
 115 638 115 638 106 626 c 128,-1,34
 97 614 97 614 86 604.5 c 128,-1,35
 75 595 75 595 63 595 c 0,36,37
 48 595 48 595 35 606 c 128,-1,38
 22 617 22 617 22 636 c 0,0,1
127 54 m 0,39,40
 127 79 127 79 144 96.5 c 128,-1,41
 161 114 161 114 186 114 c 0,42,43
 210 114 210 114 227.5 96.5 c 128,-1,44
 245 79 245 79 245 54 c 0,45,46
 245 30 245 30 227.5 12 c 128,-1,47
 210 -6 210 -6 186 -6 c 0,48,49
 161 -6 161 -6 144 12 c 128,-1,50
 127 30 127 30 127 54 c 0,39,40
EndSplineSet
EndChar

StartChar: at
Encoding: 64 64 36
Width: 729
Flags: W
LayerCount: 2
Fore
SplineSet
44 212 m 0,0,1
 44 369 44 369 127.5 467 c 128,-1,2
 211 565 211 565 376 565 c 0,3,4
 529 565 529 565 613.5 479 c 128,-1,5
 698 393 698 393 698 237 c 0,6,7
 698 142 698 142 664 80.5 c 128,-1,8
 630 19 630 19 561 19 c 0,9,10
 521 19 521 19 493 39 c 128,-1,11
 465 59 465 59 459 89 c 1,12,13
 404 26 404 26 335 26 c 0,14,15
 282 26 282 26 245.5 54 c 128,-1,16
 209 82 209 82 209 139 c 0,17,18
 209 205 209 205 260.5 231.5 c 128,-1,19
 312 258 312 258 408 258 c 2,20,-1
 445 258 l 1,21,-1
 445 275 l 2,22,23
 445 350 445 350 357 350 c 0,24,25
 320 350 320 350 291.5 337 c 128,-1,26
 263 324 263 324 260 324 c 0,27,28
 249 324 249 324 241 338.5 c 128,-1,29
 233 353 233 353 233 365 c 0,30,31
 233 389 233 389 276 406.5 c 128,-1,32
 319 424 319 424 369 424 c 0,33,34
 437 424 437 424 480 389.5 c 128,-1,35
 523 355 523 355 523 293 c 2,36,-1
 523 125 l 1,37,38
 530 76 530 76 567 76 c 0,39,40
 628 76 628 76 628 223 c 0,41,42
 628 501 628 501 375 501 c 0,43,44
 303 501 303 501 250.5 478 c 128,-1,45
 198 455 198 455 169.5 413.5 c 128,-1,46
 141 372 141 372 128 322.5 c 128,-1,47
 115 273 115 273 115 213 c 0,48,49
 115 157 115 157 126.5 110.5 c 128,-1,50
 138 64 138 64 163.5 25 c 128,-1,51
 189 -14 189 -14 235 -35.5 c 128,-1,52
 281 -57 281 -57 344 -57 c 0,53,54
 394 -57 394 -57 436 -43.5 c 128,-1,55
 478 -30 478 -30 481 -30 c 0,56,57
 493 -30 493 -30 500.5 -40.5 c 128,-1,58
 508 -51 508 -51 508 -61 c 0,59,60
 508 -87 508 -87 449.5 -104 c 128,-1,61
 391 -121 391 -121 332 -121 c 0,62,63
 275 -121 275 -121 224 -100.5 c 128,-1,64
 173 -80 173 -80 132.5 -40.5 c 128,-1,65
 92 -1 92 -1 68 64 c 128,-1,66
 44 129 44 129 44 212 c 0,0,1
295 140 m 0,67,68
 295 113 295 113 310.5 99.5 c 128,-1,69
 326 86 326 86 352 86 c 0,70,71
 391 86 391 86 419.5 111.5 c 128,-1,72
 448 137 448 137 448 167 c 2,73,-1
 448 208 l 1,74,-1
 418 208 l 2,75,76
 357 208 357 208 326 193 c 128,-1,77
 295 178 295 178 295 140 c 0,67,68
EndSplineSet
EndChar

StartChar: A
Encoding: 65 65 37
Width: 562
Flags: W
LayerCount: 2
Fore
SplineSet
14 44 m 0,0,1
 14 50 14 50 15 53 c 2,2,-1
 214 701 l 2,3,4
 226 737 226 737 281 737 c 0,5,6
 337 737 337 737 349 701 c 2,7,-1
 547 53 l 2,8,9
 549 47 549 47 549 44 c 0,10,11
 549 26 549 26 527.5 13 c 128,-1,12
 506 0 506 0 482 0 c 0,13,14
 453 0 453 0 446 22 c 2,15,-1
 405 164 l 1,16,-1
 158 164 l 1,17,-1
 117 22 l 2,18,19
 110 0 110 0 80 0 c 0,20,21
 56 0 56 0 35 13 c 128,-1,22
 14 26 14 26 14 44 c 0,0,1
181 249 m 1,23,-1
 381 249 l 1,24,-1
 281 592 l 1,25,-1
 181 249 l 1,23,-1
EndSplineSet
EndChar

StartChar: B
Encoding: 66 66 38
Width: 553
Flags: W
LayerCount: 2
Fore
SplineSet
66 34 m 2,0,-1
 66 696 l 2,1,2
 66 712 66 712 80 721.5 c 128,-1,3
 94 731 94 731 113 731 c 2,4,-1
 295 731 l 2,5,6
 387 731 387 731 442 693 c 128,-1,7
 497 655 497 655 497 558 c 0,8,9
 497 434 497 434 412 396 c 1,10,11
 463 376 463 376 489 338.5 c 128,-1,12
 515 301 515 301 515 229 c 2,13,-1
 515 210 l 2,14,15
 515 100 515 100 461 50 c 128,-1,16
 407 0 407 0 316 0 c 2,17,-1
 113 0 l 2,18,19
 92 0 92 0 79 10 c 128,-1,20
 66 20 66 20 66 34 c 2,0,-1
171 94 m 1,21,-1
 296 94 l 2,22,23
 409 94 409 94 409 218 c 2,24,-1
 409 234 l 2,25,26
 409 298 409 298 380.5 326 c 128,-1,27
 352 354 352 354 296 354 c 2,28,-1
 171 354 l 1,29,-1
 171 94 l 1,21,-1
171 438 m 1,30,-1
 290 438 l 2,31,32
 391 438 391 438 391 541 c 0,33,34
 391 637 391 637 288 637 c 2,35,-1
 171 637 l 1,36,-1
 171 438 l 1,30,-1
EndSplineSet
EndChar

StartChar: C
Encoding: 67 67 39
Width: 541
Flags: W
LayerCount: 2
Fore
SplineSet
59 217 m 2,0,-1
 59 508 l 2,1,2
 59 623 59 623 120.5 677 c 128,-1,3
 182 731 182 731 281 731 c 0,4,5
 383 731 383 731 445.5 680.5 c 128,-1,6
 508 630 508 630 508 550 c 0,7,8
 508 518 508 518 496 506.5 c 128,-1,9
 484 495 484 495 455 495 c 0,10,11
 403 495 403 495 402 530 c 0,12,13
 396 637 396 637 285 637 c 0,14,15
 165 637 165 637 165 508 c 2,16,-1
 165 217 l 2,17,18
 165 88 165 88 287 88 c 0,19,20
 323 88 323 88 347 98.5 c 128,-1,21
 371 109 371 109 381.5 129 c 128,-1,22
 392 149 392 149 396 164 c 128,-1,23
 400 179 400 179 402 201 c 0,24,25
 405 236 405 236 454 236 c 0,26,27
 483 236 483 236 495.5 224.5 c 128,-1,28
 508 213 508 213 508 181 c 0,29,30
 508 98 508 98 445 46 c 128,-1,31
 382 -6 382 -6 280 -6 c 0,32,33
 181 -6 181 -6 120 48 c 128,-1,34
 59 102 59 102 59 217 c 2,0,-1
EndSplineSet
EndChar

StartChar: D
Encoding: 68 68 40
Width: 573
Flags: W
LayerCount: 2
Fore
SplineSet
66 34 m 2,0,-1
 66 697 l 2,1,2
 66 711 66 711 79.5 721 c 128,-1,3
 93 731 93 731 113 731 c 2,4,-1
 290 731 l 2,5,6
 392 731 392 731 453.5 677 c 128,-1,7
 515 623 515 623 515 508 c 2,8,-1
 515 223 l 2,9,10
 515 108 515 108 453.5 54 c 128,-1,11
 392 0 392 0 290 0 c 2,12,-1
 113 0 l 2,13,14
 93 0 93 0 79.5 10 c 128,-1,15
 66 20 66 20 66 34 c 2,0,-1
172 94 m 1,16,-1
 290 94 l 2,17,18
 409 94 409 94 409 223 c 2,19,-1
 409 508 l 2,20,21
 409 637 409 637 290 637 c 2,22,-1
 172 637 l 1,23,-1
 172 94 l 1,16,-1
EndSplineSet
EndChar

StartChar: E
Encoding: 69 69 41
Width: 523
Flags: W
LayerCount: 2
Fore
SplineSet
66 35 m 2,0,-1
 66 696 l 2,1,2
 66 712 66 712 80 721.5 c 128,-1,3
 94 731 94 731 113 731 c 2,4,-1
 469 731 l 2,5,6
 486 731 486 731 495 717 c 128,-1,7
 504 703 504 703 504 685 c 0,8,9
 504 665 504 665 494.5 651 c 128,-1,10
 485 637 485 637 469 637 c 2,11,-1
 172 637 l 1,12,-1
 172 408 l 1,13,-1
 326 408 l 2,14,15
 342 408 342 408 351.5 395.5 c 128,-1,16
 361 383 361 383 361 365 c 0,17,18
 361 349 361 349 352 336.5 c 128,-1,19
 343 324 343 324 326 324 c 2,20,-1
 172 324 l 1,21,-1
 172 94 l 1,22,-1
 469 94 l 2,23,24
 485 94 485 94 494.5 80 c 128,-1,25
 504 66 504 66 504 46 c 0,26,27
 504 28 504 28 495 14 c 128,-1,28
 486 0 486 0 469 0 c 2,29,-1
 113 0 l 2,30,31
 94 0 94 0 80 9.5 c 128,-1,32
 66 19 66 19 66 35 c 2,0,-1
EndSplineSet
EndChar

StartChar: F
Encoding: 70 70 42
Width: 502
Flags: W
LayerCount: 2
Fore
SplineSet
66 35 m 2,0,-1
 66 696 l 2,1,2
 66 712 66 712 80 721.5 c 128,-1,3
 94 731 94 731 113 731 c 2,4,-1
 464 731 l 2,5,6
 481 731 481 731 489.5 717.5 c 128,-1,7
 498 704 498 704 498 685 c 0,8,9
 498 665 498 665 489 651 c 128,-1,10
 480 637 480 637 464 637 c 2,11,-1
 172 637 l 1,12,-1
 172 408 l 1,13,-1
 327 408 l 2,14,15
 343 408 343 408 352 395.5 c 128,-1,16
 361 383 361 383 361 365 c 0,17,18
 361 349 361 349 352.5 336.5 c 128,-1,19
 344 324 344 324 327 324 c 2,20,-1
 172 324 l 1,21,-1
 172 35 l 2,22,23
 172 18 172 18 156.5 9 c 128,-1,24
 141 0 141 0 119 0 c 0,25,26
 98 0 98 0 82 9 c 128,-1,27
 66 18 66 18 66 35 c 2,0,-1
EndSplineSet
EndChar

StartChar: G
Encoding: 71 71 43
Width: 556
Flags: W
LayerCount: 2
Fore
SplineSet
59 217 m 2,0,-1
 59 508 l 2,1,2
 59 623 59 623 120 677 c 128,-1,3
 181 731 181 731 280 731 c 0,4,5
 381 731 381 731 444.5 680.5 c 128,-1,6
 508 630 508 630 508 546 c 0,7,8
 508 517 508 517 495.5 506 c 128,-1,9
 483 495 483 495 455 495 c 0,10,11
 403 495 403 495 402 530 c 1,12,13
 391 637 391 637 283 637 c 0,14,15
 165 637 165 637 165 508 c 2,16,-1
 165 217 l 2,17,18
 165 88 165 88 283 88 c 0,19,20
 340 88 340 88 371 120 c 128,-1,21
 402 152 402 152 402 217 c 2,22,-1
 402 299 l 1,23,-1
 301 299 l 2,24,25
 285 299 285 299 276 311.5 c 128,-1,26
 267 324 267 324 267 342 c 0,27,28
 267 358 267 358 276 371 c 128,-1,29
 285 384 285 384 301 384 c 2,30,-1
 473 384 l 2,31,32
 489 384 489 384 498.5 373.5 c 128,-1,33
 508 363 508 363 508 348 c 2,34,-1
 508 217 l 2,35,36
 508 102 508 102 446.5 48 c 128,-1,37
 385 -6 385 -6 283 -6 c 128,-1,38
 181 -6 181 -6 120 48 c 128,-1,39
 59 102 59 102 59 217 c 2,0,-1
EndSplineSet
EndChar

StartChar: H
Encoding: 72 72 44
Width: 593
Flags: W
LayerCount: 2
Fore
SplineSet
66 35 m 2,0,-1
 66 697 l 2,1,2
 66 714 66 714 81.5 722.5 c 128,-1,3
 97 731 97 731 119 731 c 128,-1,4
 141 731 141 731 156.5 722.5 c 128,-1,5
 172 714 172 714 172 697 c 2,6,-1
 172 421 l 1,7,-1
 421 421 l 1,8,-1
 421 697 l 2,9,10
 421 714 421 714 436.5 722.5 c 128,-1,11
 452 731 452 731 474 731 c 128,-1,12
 496 731 496 731 511.5 722.5 c 128,-1,13
 527 714 527 714 527 697 c 2,14,-1
 527 35 l 2,15,16
 527 19 527 19 511.5 9.5 c 128,-1,17
 496 0 496 0 474 0 c 0,18,19
 453 0 453 0 437 9.5 c 128,-1,20
 421 19 421 19 421 35 c 2,21,-1
 421 337 l 1,22,-1
 172 337 l 1,23,-1
 172 35 l 2,24,25
 172 19 172 19 156.5 9.5 c 128,-1,26
 141 0 141 0 119 0 c 0,27,28
 98 0 98 0 82 9.5 c 128,-1,29
 66 19 66 19 66 35 c 2,0,-1
EndSplineSet
EndChar

StartChar: I
Encoding: 73 73 45
Width: 238
Flags: W
LayerCount: 2
Fore
SplineSet
66 35 m 2,0,-1
 66 697 l 2,1,2
 66 714 66 714 81.5 722.5 c 128,-1,3
 97 731 97 731 119 731 c 128,-1,4
 141 731 141 731 156.5 722.5 c 128,-1,5
 172 714 172 714 172 697 c 2,6,-1
 172 35 l 2,7,8
 172 19 172 19 156.5 9.5 c 128,-1,9
 141 0 141 0 119 0 c 0,10,11
 98 0 98 0 82 9.5 c 128,-1,12
 66 19 66 19 66 35 c 2,0,-1
EndSplineSet
EndChar

StartChar: J
Encoding: 74 74 46
Width: 530
Flags: W
LayerCount: 2
Fore
SplineSet
17 185 m 0,0,1
 17 214 17 214 30 225 c 128,-1,2
 43 236 43 236 71 236 c 0,3,4
 122 236 122 236 123 201 c 0,5,6
 125 152 125 152 154 120 c 128,-1,7
 183 88 183 88 241 88 c 0,8,9
 361 88 361 88 361 217 c 2,10,-1
 361 637 l 1,11,-1
 244 637 l 2,12,13
 228 637 228 637 218.5 651 c 128,-1,14
 209 665 209 665 209 685 c 0,15,16
 209 704 209 704 218 717.5 c 128,-1,17
 227 731 227 731 244 731 c 2,18,-1
 420 731 l 2,19,20
 439 731 439 731 453 721.5 c 128,-1,21
 467 712 467 712 467 696 c 2,22,-1
 467 217 l 2,23,24
 467 102 467 102 406 48 c 128,-1,25
 345 -6 345 -6 245 -6 c 0,26,27
 144 -6 144 -6 80.5 46.5 c 128,-1,28
 17 99 17 99 17 185 c 0,0,1
EndSplineSet
EndChar

StartChar: K
Encoding: 75 75 47
Width: 541
Flags: W
LayerCount: 2
Fore
SplineSet
66 35 m 2,0,-1
 66 697 l 2,1,2
 66 714 66 714 81.5 722.5 c 128,-1,3
 97 731 97 731 119 731 c 128,-1,4
 141 731 141 731 156.5 722.5 c 128,-1,5
 172 714 172 714 172 697 c 2,6,-1
 172 393 l 1,7,-1
 416 716 l 1,8,9
 426 731 426 731 446 731 c 0,10,11
 467 731 467 731 487 713.5 c 128,-1,12
 507 696 507 696 507 676 c 0,13,14
 507 664 507 664 499 655 c 2,15,-1
 307 415 l 1,16,-1
 535 68 l 2,17,18
 541 59 541 59 541 49 c 0,19,20
 541 30 541 30 521.5 13.5 c 128,-1,21
 502 -3 502 -3 479 -3 c 0,22,23
 454 -3 454 -3 441 17 c 2,24,-1
 237 326 l 1,25,-1
 172 244 l 1,26,-1
 172 35 l 2,27,28
 172 19 172 19 156.5 9.5 c 128,-1,29
 141 0 141 0 119 0 c 0,30,31
 98 0 98 0 82 9.5 c 128,-1,32
 66 19 66 19 66 35 c 2,0,-1
EndSplineSet
EndChar

StartChar: L
Encoding: 76 76 48
Width: 477
Flags: W
LayerCount: 2
Fore
SplineSet
66 35 m 2,0,-1
 66 697 l 2,1,2
 66 714 66 714 81.5 722.5 c 128,-1,3
 97 731 97 731 119 731 c 128,-1,4
 141 731 141 731 156.5 722.5 c 128,-1,5
 172 714 172 714 172 697 c 2,6,-1
 172 94 l 1,7,-1
 432 94 l 2,8,9
 447 94 447 94 455.5 80 c 128,-1,10
 464 66 464 66 464 47 c 128,-1,11
 464 28 464 28 455.5 14 c 128,-1,12
 447 0 447 0 432 0 c 2,13,-1
 113 0 l 2,14,15
 94 0 94 0 80 9.5 c 128,-1,16
 66 19 66 19 66 35 c 2,0,-1
EndSplineSet
EndChar

StartChar: M
Encoding: 77 77 49
Width: 687
Flags: W
LayerCount: 2
Fore
SplineSet
66 35 m 2,0,-1
 66 678 l 2,1,2
 66 705 66 705 81 718 c 128,-1,3
 96 731 96 731 119 731 c 0,4,5
 148 731 148 731 166.5 718.5 c 128,-1,6
 185 706 185 706 203 671 c 2,7,-1
 343 406 l 1,8,-1
 485 671 l 2,9,10
 503 706 503 706 521 718.5 c 128,-1,11
 539 731 539 731 568 731 c 0,12,13
 591 731 591 731 606 718 c 128,-1,14
 621 705 621 705 621 678 c 2,15,-1
 621 35 l 2,16,17
 621 19 621 19 605.5 9.5 c 128,-1,18
 590 0 590 0 568 0 c 0,19,20
 547 0 547 0 531 9.5 c 128,-1,21
 515 19 515 19 515 35 c 2,22,-1
 515 515 l 1,23,-1
 381 267 l 1,24,25
 366 243 366 243 342 243 c 128,-1,26
 318 243 318 243 306 267 c 2,27,-1
 172 521 l 1,28,-1
 172 35 l 2,29,30
 172 19 172 19 156.5 9.5 c 128,-1,31
 141 0 141 0 119 0 c 0,32,33
 98 0 98 0 82 9.5 c 128,-1,34
 66 19 66 19 66 35 c 2,0,-1
EndSplineSet
EndChar

StartChar: N
Encoding: 78 78 50
Width: 593
Flags: W
LayerCount: 2
Fore
SplineSet
66 35 m 2,0,-1
 66 696 l 2,1,2
 66 731 66 731 119 731 c 0,3,4
 147 731 147 731 164 718.5 c 128,-1,5
 181 706 181 706 199 671 c 2,6,-1
 421 238 l 1,7,-1
 421 697 l 2,8,9
 421 714 421 714 436.5 722.5 c 128,-1,10
 452 731 452 731 474 731 c 128,-1,11
 496 731 496 731 511.5 722.5 c 128,-1,12
 527 714 527 714 527 697 c 2,13,-1
 527 35 l 2,14,15
 527 19 527 19 511.5 9.5 c 128,-1,16
 496 0 496 0 474 0 c 0,17,18
 432 0 432 0 411 39 c 2,19,-1
 172 494 l 1,20,-1
 172 35 l 2,21,22
 172 19 172 19 156.5 9.5 c 128,-1,23
 141 0 141 0 119 0 c 0,24,25
 98 0 98 0 82 9.5 c 128,-1,26
 66 19 66 19 66 35 c 2,0,-1
EndSplineSet
EndChar

StartChar: O
Encoding: 79 79 51
Width: 566
Flags: W
LayerCount: 2
Fore
SplineSet
59 217 m 2,0,-1
 59 508 l 2,1,2
 59 623 59 623 120 677 c 128,-1,3
 181 731 181 731 283 731 c 128,-1,4
 385 731 385 731 446.5 677 c 128,-1,5
 508 623 508 623 508 508 c 2,6,-1
 508 217 l 2,7,8
 508 102 508 102 446.5 48 c 128,-1,9
 385 -6 385 -6 283 -6 c 128,-1,10
 181 -6 181 -6 120 48 c 128,-1,11
 59 102 59 102 59 217 c 2,0,-1
165 217 m 2,12,13
 165 88 165 88 283 88 c 0,14,15
 340 88 340 88 371 120 c 128,-1,16
 402 152 402 152 402 217 c 2,17,-1
 402 508 l 2,18,19
 402 573 402 573 371 605 c 128,-1,20
 340 637 340 637 283 637 c 0,21,22
 165 637 165 637 165 508 c 2,23,-1
 165 217 l 2,12,13
EndSplineSet
EndChar

StartChar: P
Encoding: 80 80 52
Width: 545
Flags: W
LayerCount: 2
Fore
SplineSet
66 35 m 2,0,-1
 66 697 l 2,1,2
 66 711 66 711 77.5 721 c 128,-1,3
 89 731 89 731 107 731 c 2,4,-1
 302 731 l 2,5,6
 402 731 402 731 461.5 678 c 128,-1,7
 521 625 521 625 521 511 c 2,8,-1
 521 503 l 2,9,10
 521 389 521 389 459.5 335.5 c 128,-1,11
 398 282 398 282 296 282 c 2,12,-1
 172 282 l 1,13,-1
 172 35 l 2,14,15
 172 19 172 19 156.5 9.5 c 128,-1,16
 141 0 141 0 119 0 c 0,17,18
 98 0 98 0 82 9.5 c 128,-1,19
 66 19 66 19 66 35 c 2,0,-1
172 366 m 1,20,-1
 296 366 l 2,21,22
 353 366 353 366 384 398.5 c 128,-1,23
 415 431 415 431 415 496 c 2,24,-1
 415 508 l 2,25,26
 415 573 415 573 384 605 c 128,-1,27
 353 637 353 637 296 637 c 2,28,-1
 172 637 l 1,29,-1
 172 366 l 1,20,-1
EndSplineSet
EndChar

StartChar: Q
Encoding: 81 81 53
Width: 566
Flags: W
LayerCount: 2
Fore
SplineSet
59 217 m 2,0,-1
 59 508 l 2,1,2
 59 624 59 624 120 677.5 c 128,-1,3
 181 731 181 731 283 731 c 128,-1,4
 385 731 385 731 446.5 677.5 c 128,-1,5
 508 624 508 624 508 508 c 2,6,-1
 508 217 l 2,7,8
 508 112 508 112 457 58 c 128,-1,9
 406 4 406 4 319 -4 c 1,10,-1
 319 -74 l 2,11,12
 319 -90 319 -90 308.5 -99.5 c 128,-1,13
 298 -109 298 -109 283 -109 c 0,14,15
 269 -109 269 -109 258.5 -99.5 c 128,-1,16
 248 -90 248 -90 248 -74 c 2,17,-1
 248 -4 l 1,18,19
 161 4 161 4 110 57.5 c 128,-1,20
 59 111 59 111 59 217 c 2,0,-1
165 217 m 2,21,22
 165 111 165 111 248 94 c 1,23,-1
 248 155 l 2,24,25
 248 189 248 189 283 189 c 0,26,27
 298 189 298 189 308.5 180.5 c 128,-1,28
 319 172 319 172 319 155 c 2,29,-1
 319 95 l 1,30,31
 402 113 402 113 402 217 c 2,32,-1
 402 508 l 2,33,34
 402 573 402 573 371 605 c 128,-1,35
 340 637 340 637 283 637 c 0,36,37
 165 637 165 637 165 508 c 2,38,-1
 165 217 l 2,21,22
EndSplineSet
EndChar

StartChar: R
Encoding: 82 82 54
Width: 559
Flags: W
LayerCount: 2
Fore
SplineSet
66 35 m 2,0,-1
 66 697 l 2,1,2
 66 711 66 711 76 721 c 128,-1,3
 86 731 86 731 101 731 c 2,4,-1
 291 731 l 2,5,6
 521 731 521 731 521 527 c 0,7,8
 521 442 521 442 483 393.5 c 128,-1,9
 445 345 445 345 380 329 c 1,10,-1
 520 66 l 2,11,12
 524 59 524 59 524 51 c 0,13,14
 524 31 524 31 503.5 14 c 128,-1,15
 483 -3 483 -3 460 -3 c 0,16,17
 434 -3 434 -3 418 28 c 2,18,-1
 272 314 l 1,19,-1
 171 314 l 1,20,-1
 171 35 l 2,21,22
 171 19 171 19 155.5 9.5 c 128,-1,23
 140 0 140 0 118 0 c 0,24,25
 97 0 97 0 81.5 9.5 c 128,-1,26
 66 19 66 19 66 35 c 2,0,-1
171 399 m 1,27,-1
 291 399 l 2,28,29
 415 399 415 399 415 518 c 128,-1,30
 415 637 415 637 291 637 c 2,31,-1
 171 637 l 1,32,-1
 171 399 l 1,27,-1
EndSplineSet
EndChar

StartChar: S
Encoding: 83 83 55
Width: 512
Flags: W
LayerCount: 2
Fore
SplineSet
29 110 m 0,0,1
 29 129 29 129 43 148 c 128,-1,2
 57 167 57 167 75 167 c 0,3,4
 86 167 86 167 101.5 154.5 c 128,-1,5
 117 142 117 142 132 127.5 c 128,-1,6
 147 113 147 113 177.5 100.5 c 128,-1,7
 208 88 208 88 246 88 c 0,8,9
 303 88 303 88 337.5 115 c 128,-1,10
 372 142 372 142 372 194 c 0,11,12
 372 242 372 242 338.5 274 c 128,-1,13
 305 306 305 306 257.5 325 c 128,-1,14
 210 344 210 344 162 366 c 128,-1,15
 114 388 114 388 80.5 432 c 128,-1,16
 47 476 47 476 47 542 c 0,17,18
 47 595 47 595 67.5 634 c 128,-1,19
 88 673 88 673 123 694 c 128,-1,20
 158 715 158 715 196.5 724.5 c 128,-1,21
 235 734 235 734 278 734 c 0,22,23
 305 734 305 734 334.5 730.5 c 128,-1,24
 364 727 364 727 393 719 c 128,-1,25
 422 711 422 711 441 696 c 128,-1,26
 460 681 460 681 460 662 c 128,-1,27
 460 643 460 643 448 624 c 128,-1,28
 436 605 436 605 416 605 c 0,29,30
 406 605 406 605 389 614.5 c 128,-1,31
 372 624 372 624 343.5 633.5 c 128,-1,32
 315 643 315 643 278 643 c 0,33,34
 221 643 221 643 187 620.5 c 128,-1,35
 153 598 153 598 153 552 c 0,36,37
 153 522 153 522 171 500.5 c 128,-1,38
 189 479 189 479 217.5 465 c 128,-1,39
 246 451 246 451 281 437.5 c 128,-1,40
 316 424 316 424 350.5 406 c 128,-1,41
 385 388 385 388 413.5 364.5 c 128,-1,42
 442 341 442 341 460 300 c 128,-1,43
 478 259 478 259 478 205 c 0,44,45
 478 101 478 101 415.5 46.5 c 128,-1,46
 353 -8 353 -8 250 -8 c 0,47,48
 158 -8 158 -8 93.5 30.5 c 128,-1,49
 29 69 29 69 29 110 c 0,0,1
EndSplineSet
EndChar

StartChar: T
Encoding: 84 84 56
Width: 513
Flags: W
LayerCount: 2
Fore
SplineSet
14 683 m 0,0,1
 14 702 14 702 23 716.5 c 128,-1,2
 32 731 32 731 49 731 c 2,3,-1
 464 731 l 2,4,5
 481 731 481 731 490 717 c 128,-1,6
 499 703 499 703 499 684 c 0,7,8
 499 663 499 663 489.5 648.5 c 128,-1,9
 480 634 480 634 464 634 c 2,10,-1
 310 634 l 1,11,-1
 310 35 l 2,12,13
 310 19 310 19 294 9.5 c 128,-1,14
 278 0 278 0 257 0 c 0,15,16
 235 0 235 0 219.5 9.5 c 128,-1,17
 204 19 204 19 204 35 c 2,18,-1
 204 634 l 1,19,-1
 49 634 l 2,20,21
 33 634 33 634 23.5 648.5 c 128,-1,22
 14 663 14 663 14 683 c 0,0,1
EndSplineSet
EndChar

StartChar: U
Encoding: 85 85 57
Width: 583
Flags: W
LayerCount: 2
Fore
SplineSet
63 217 m 2,0,-1
 63 697 l 2,1,2
 63 714 63 714 78.5 722.5 c 128,-1,3
 94 731 94 731 116 731 c 128,-1,4
 138 731 138 731 153.5 722.5 c 128,-1,5
 169 714 169 714 169 697 c 2,6,-1
 169 217 l 2,7,8
 169 152 169 152 201 120 c 128,-1,9
 233 88 233 88 291 88 c 0,10,11
 414 88 414 88 414 217 c 2,12,-1
 414 697 l 2,13,14
 414 714 414 714 429.5 722.5 c 128,-1,15
 445 731 445 731 467 731 c 128,-1,16
 489 731 489 731 504.5 722.5 c 128,-1,17
 520 714 520 714 520 697 c 2,18,-1
 520 217 l 2,19,20
 520 102 520 102 457.5 48 c 128,-1,21
 395 -6 395 -6 291 -6 c 0,22,23
 188 -6 188 -6 125.5 48 c 128,-1,24
 63 102 63 102 63 217 c 2,0,-1
EndSplineSet
EndChar

StartChar: V
Encoding: 86 86 58
Width: 561
Flags: W
LayerCount: 2
Fore
SplineSet
13 687 m 0,0,1
 13 705 13 705 34 718 c 128,-1,2
 55 731 55 731 79 731 c 0,3,4
 109 731 109 731 116 709 c 2,5,-1
 281 139 l 1,6,-1
 445 709 l 2,7,8
 452 731 452 731 481 731 c 0,9,10
 505 731 505 731 526.5 718 c 128,-1,11
 548 705 548 705 548 687 c 0,12,13
 548 684 548 684 546 678 c 2,14,-1
 348 30 l 2,15,16
 343 13 343 13 324 3.5 c 128,-1,17
 305 -6 305 -6 281 -6 c 0,18,19
 226 -6 226 -6 214 30 c 2,20,-1
 14 678 l 2,21,22
 13 681 13 681 13 687 c 0,0,1
EndSplineSet
EndChar

StartChar: W
Encoding: 87 87 59
Width: 847
Flags: W
LayerCount: 2
Fore
SplineSet
14 688 m 0,0,1
 14 706 14 706 35 718.5 c 128,-1,2
 56 731 56 731 80 731 c 0,3,4
 111 731 111 731 117 709 c 2,5,-1
 281 139 l 1,6,-1
 371 497 l 2,7,8
 378 528 378 528 424 528 c 0,9,10
 468 528 468 528 476 497 c 2,11,-1
 567 139 l 1,12,-1
 730 709 l 2,13,14
 736 731 736 731 767 731 c 0,15,16
 791 731 791 731 812 718.5 c 128,-1,17
 833 706 833 706 833 688 c 0,18,19
 833 681 833 681 832 678 c 2,20,-1
 634 30 l 2,21,22
 628 13 628 13 608.5 3.5 c 128,-1,23
 589 -6 589 -6 566 -6 c 128,-1,24
 543 -6 543 -6 523.5 3.5 c 128,-1,25
 504 13 504 13 500 30 c 2,26,-1
 424 332 l 1,27,-1
 348 30 l 2,28,29
 344 13 344 13 324.5 3.5 c 128,-1,30
 305 -6 305 -6 281 -6 c 128,-1,31
 257 -6 257 -6 238 3.5 c 128,-1,32
 219 13 219 13 214 30 c 2,33,-1
 15 678 l 2,34,35
 14 681 14 681 14 688 c 0,0,1
EndSplineSet
EndChar

StartChar: X
Encoding: 88 88 60
Width: 533
Flags: W
LayerCount: 2
Fore
SplineSet
18 49 m 0,0,1
 18 58 18 58 24 70 c 2,2,-1
 197 366 l 1,3,-1
 29 660 l 2,4,5
 21 674 21 674 21 686 c 0,6,7
 21 706 21 706 42 720 c 128,-1,8
 63 734 63 734 88 734 c 0,9,10
 112 734 112 734 128 704 c 2,11,-1
 266 448 l 1,12,-1
 406 704 l 1,13,14
 420 734 420 734 446 734 c 0,15,16
 470 734 470 734 491 720 c 128,-1,17
 512 706 512 706 512 686 c 0,18,19
 512 674 512 674 504 660 c 2,20,-1
 336 366 l 1,21,-1
 509 70 l 1,22,23
 516 56 516 56 516 49 c 0,24,25
 516 28 516 28 493.5 12.5 c 128,-1,26
 471 -3 471 -3 447 -3 c 0,27,28
 426 -3 426 -3 414 21 c 1,29,-1
 266 287 l 1,30,-1
 120 21 l 2,31,32
 106 -3 106 -3 86 -3 c 0,33,34
 63 -3 63 -3 40.5 12.5 c 128,-1,35
 18 28 18 28 18 49 c 0,0,1
EndSplineSet
EndChar

StartChar: Y
Encoding: 89 89 61
Width: 558
Flags: W
LayerCount: 2
Fore
SplineSet
13 687 m 0,0,1
 13 705 13 705 35 718 c 128,-1,2
 57 731 57 731 80 731 c 0,3,4
 102 731 102 731 115 707 c 2,5,-1
 280 390 l 1,6,-1
 444 707 l 2,7,8
 456 731 456 731 479 731 c 128,-1,9
 502 731 502 731 523.5 718 c 128,-1,10
 545 705 545 705 545 687 c 0,11,12
 545 678 545 678 542 672 c 2,13,-1
 335 299 l 1,14,15
 333 293 333 293 333 288 c 2,16,-1
 333 35 l 2,17,18
 333 19 333 19 317 9.5 c 128,-1,19
 301 0 301 0 280 0 c 0,20,21
 258 0 258 0 242.5 9.5 c 128,-1,22
 227 19 227 19 227 35 c 2,23,-1
 227 288 l 2,24,25
 227 290 227 290 224 299 c 1,26,-1
 17 672 l 2,27,28
 13 680 13 680 13 687 c 0,0,1
EndSplineSet
EndChar

StartChar: Z
Encoding: 90 90 62
Width: 508
Flags: W
LayerCount: 2
Fore
SplineSet
18 31 m 0,0,1
 18 50 18 50 29 68 c 1,2,-1
 339 637 l 1,3,-1
 68 637 l 2,4,5
 52 637 52 637 42.5 650.5 c 128,-1,6
 33 664 33 664 33 684 c 0,7,8
 33 703 33 703 42 717 c 128,-1,9
 51 731 51 731 68 731 c 2,10,-1
 441 731 l 2,11,12
 475 731 475 731 475 701 c 0,13,14
 475 683 475 683 463 662 c 2,15,-1
 153 94 l 1,16,-1
 456 94 l 2,17,18
 472 94 472 94 481.5 79.5 c 128,-1,19
 491 65 491 65 491 47 c 128,-1,20
 491 29 491 29 481.5 14.5 c 128,-1,21
 472 0 472 0 456 0 c 2,22,-1
 51 0 l 2,23,24
 18 0 18 0 18 31 c 0,0,1
EndSplineSet
EndChar

StartChar: bracketleft
Encoding: 91 91 63
Width: 328
Flags: W
LayerCount: 2
Fore
SplineSet
60 14 m 2,0,-1
 60 733 l 2,1,2
 60 749 60 749 74.5 758.5 c 128,-1,3
 89 768 89 768 108 768 c 2,4,-1
 275 768 l 2,5,6
 291 768 291 768 300.5 754 c 128,-1,7
 310 740 310 740 310 722 c 0,8,9
 310 702 310 702 300 688 c 128,-1,10
 290 674 290 674 275 674 c 2,11,-1
 166 674 l 1,12,-1
 166 73 l 1,13,-1
 275 73 l 2,14,15
 290 73 290 73 300 59 c 128,-1,16
 310 45 310 45 310 25 c 0,17,18
 310 7 310 7 300.5 -7 c 128,-1,19
 291 -21 291 -21 275 -21 c 2,20,-1
 108 -21 l 2,21,22
 89 -21 89 -21 74.5 -11.5 c 128,-1,23
 60 -2 60 -2 60 14 c 2,0,-1
EndSplineSet
EndChar

StartChar: backslash
Encoding: 92 92 64
Width: 362
Flags: W
LayerCount: 2
Fore
SplineSet
21 717 m 0,0,1
 21 732 21 732 33.5 743.5 c 128,-1,2
 46 755 46 755 63 755 c 0,3,4
 86 755 86 755 95 733 c 1,5,-1
 340 48 l 2,6,7
 341 44 341 44 341 37 c 0,8,9
 341 22 341 22 329.5 10.5 c 128,-1,10
 318 -1 318 -1 302 -1 c 0,11,12
 276 -1 276 -1 268 23 c 2,13,-1
 24 705 l 2,14,15
 21 711 21 711 21 717 c 0,0,1
EndSplineSet
EndChar

StartChar: bracketright
Encoding: 93 93 65
Width: 327
Flags: W
LayerCount: 2
Fore
SplineSet
18 25 m 0,0,1
 18 45 18 45 27.5 59 c 128,-1,2
 37 73 37 73 52 73 c 2,3,-1
 161 73 l 1,4,-1
 161 674 l 1,5,-1
 52 674 l 2,6,7
 37 674 37 674 27.5 688 c 128,-1,8
 18 702 18 702 18 722 c 0,9,10
 18 740 18 740 27 754 c 128,-1,11
 36 768 36 768 52 768 c 2,12,-1
 220 768 l 2,13,14
 239 768 239 768 253 758.5 c 128,-1,15
 267 749 267 749 267 733 c 2,16,-1
 267 14 l 2,17,18
 267 -2 267 -2 253 -11.5 c 128,-1,19
 239 -21 239 -21 220 -21 c 2,20,-1
 52 -21 l 2,21,22
 36 -21 36 -21 27 -7 c 128,-1,23
 18 7 18 7 18 25 c 0,0,1
EndSplineSet
EndChar

StartChar: asciicircum
Encoding: 94 94 66
Width: 279
Flags: W
LayerCount: 2
Fore
SplineSet
0 617 m 0,0,1
 0 638 0 638 18 648 c 2,2,-1
 122 704 l 2,3,4
 132 709 132 709 139 709 c 0,5,6
 148 709 148 709 156 704 c 2,7,-1
 260 649 l 1,8,9
 279 637 279 637 279 616 c 0,10,11
 279 603 279 603 271.5 592.5 c 128,-1,12
 264 582 264 582 253 582 c 0,13,14
 251 582 251 582 247 583 c 1,15,16
 245 585 245 585 243 585 c 2,17,-1
 139 641 l 1,18,-1
 35 585 l 2,19,20
 30 582 30 582 26 582 c 0,21,22
 15 582 15 582 7.5 592.5 c 128,-1,23
 0 603 0 603 0 617 c 0,0,1
EndSplineSet
EndChar

StartChar: underscore
Encoding: 95 95 67
Width: 324
Flags: W
LayerCount: 2
Fore
SplineSet
-32 -45 m 128,-1,1
 -32 -26 -32 -26 -22.5 -13 c 128,-1,2
 -13 0 -13 0 2 0 c 2,3,-1
 322 0 l 2,4,5
 336 0 336 0 347 -13.5 c 128,-1,6
 358 -27 358 -27 358 -45 c 0,7,8
 358 -64 358 -64 347 -76.5 c 128,-1,9
 336 -89 336 -89 322 -89 c 2,10,-1
 2 -89 l 2,11,12
 -13 -89 -13 -89 -22.5 -76.5 c 128,-1,0
 -32 -64 -32 -64 -32 -45 c 128,-1,1
EndSplineSet
EndChar

StartChar: grave
Encoding: 96 96 68
Width: 184
Flags: W
LayerCount: 2
Fore
SplineSet
0 668 m 0,0,1
 0 683 0 683 10 696 c 128,-1,2
 20 709 20 709 34 709 c 0,3,4
 37 709 37 709 45 707 c 1,5,-1
 169 644 l 2,6,7
 184 636 184 636 184 618 c 0,8,9
 184 603 184 603 174 590 c 128,-1,10
 164 577 164 577 150 577 c 0,11,12
 143 577 143 577 137 580 c 2,13,-1
 16 641 l 2,14,15
 0 648 0 648 0 668 c 0,0,1
EndSplineSet
EndChar

StartChar: a
Encoding: 97 97 69
Width: 460
Flags: W
LayerCount: 2
Fore
SplineSet
25 124 m 0,0,1
 25 204 25 204 85 235.5 c 128,-1,2
 145 267 145 267 259 267 c 2,3,-1
 303 267 l 1,4,-1
 303 285 l 2,5,6
 303 329 303 329 278.5 361 c 128,-1,7
 254 393 254 393 204 393 c 0,8,9
 161 393 161 393 128.5 378 c 128,-1,10
 96 363 96 363 93 363 c 0,11,12
 76 363 76 363 65.5 379.5 c 128,-1,13
 55 396 55 396 55 416 c 0,14,15
 55 442 55 442 103.5 461 c 128,-1,16
 152 480 152 480 206 480 c 0,17,18
 309 480 309 480 358.5 424.5 c 128,-1,19
 408 369 408 369 408 286 c 2,20,-1
 408 35 l 2,21,22
 408 21 408 21 393.5 10.5 c 128,-1,23
 379 0 379 0 357 0 c 0,24,25
 337 0 337 0 323 10.5 c 128,-1,26
 309 21 309 21 309 35 c 2,27,-1
 309 70 l 1,28,29
 242 -8 242 -8 158 -8 c 0,30,31
 100 -8 100 -8 62.5 26 c 128,-1,32
 25 60 25 60 25 124 c 0,0,1
131 137 m 0,33,34
 131 105 131 105 149 88.5 c 128,-1,35
 167 72 167 72 196 72 c 0,36,37
 234 72 234 72 268.5 104 c 128,-1,38
 303 136 303 136 303 172 c 2,39,-1
 303 209 l 1,40,-1
 278 209 l 2,41,42
 233 209 233 209 204.5 205 c 128,-1,43
 176 201 176 201 153.5 184 c 128,-1,44
 131 167 131 167 131 137 c 0,33,34
EndSplineSet
EndChar

StartChar: b
Encoding: 98 98 70
Width: 506
Flags: W
LayerCount: 2
Fore
SplineSet
56 35 m 2,0,-1
 56 722 l 2,1,2
 56 737 56 737 70 746.5 c 128,-1,3
 84 756 84 756 107 756 c 128,-1,4
 130 756 130 756 145.5 746.5 c 128,-1,5
 161 737 161 737 161 722 c 2,6,-1
 161 404 l 1,7,8
 178 436 178 436 212 458 c 128,-1,9
 246 480 246 480 290 480 c 0,10,11
 364 480 364 480 416.5 422 c 128,-1,12
 469 364 469 364 469 283 c 2,13,-1
 469 191 l 2,14,15
 469 113 469 113 416 52.5 c 128,-1,16
 363 -8 363 -8 293 -8 c 0,17,18
 248 -8 248 -8 210 15 c 128,-1,19
 172 38 172 38 155 70 c 1,20,-1
 155 35 l 2,21,22
 155 22 155 22 140.5 11 c 128,-1,23
 126 0 126 0 107 0 c 0,24,25
 85 0 85 0 70.5 11 c 128,-1,26
 56 22 56 22 56 35 c 2,0,-1
161 168 m 2,27,28
 161 146 161 146 192.5 115.5 c 128,-1,29
 224 85 224 85 263 85 c 0,30,31
 304 85 304 85 334 117.5 c 128,-1,32
 364 150 364 150 364 191 c 2,33,-1
 364 283 l 2,34,35
 364 323 364 323 333.5 355 c 128,-1,36
 303 387 303 387 262 387 c 0,37,38
 223 387 223 387 192 358 c 128,-1,39
 161 329 161 329 161 283 c 2,40,-1
 161 168 l 2,27,28
EndSplineSet
EndChar

StartChar: c
Encoding: 99 99 71
Width: 426
Flags: W
LayerCount: 2
Fore
SplineSet
39 191 m 2,0,-1
 39 281 l 2,1,2
 39 370 39 370 91 425 c 128,-1,3
 143 480 143 480 246 480 c 0,4,5
 311 480 311 480 355 457.5 c 128,-1,6
 399 435 399 435 399 407 c 0,7,8
 399 390 399 390 386.5 373 c 128,-1,9
 374 356 374 356 357 356 c 0,10,11
 352 356 352 356 321.5 371.5 c 128,-1,12
 291 387 291 387 254 387 c 0,13,14
 144 387 144 387 144 281 c 2,15,-1
 144 191 l 2,16,17
 144 85 144 85 255 85 c 0,18,19
 293 85 293 85 323.5 101.5 c 128,-1,20
 354 118 354 118 360 118 c 0,21,22
 380 118 380 118 392.5 102 c 128,-1,23
 405 86 405 86 405 68 c 0,24,25
 405 40 405 40 359 16 c 128,-1,26
 313 -8 313 -8 247 -8 c 0,27,28
 143 -8 143 -8 91 46.5 c 128,-1,29
 39 101 39 101 39 191 c 2,0,-1
EndSplineSet
EndChar

StartChar: d
Encoding: 100 100 72
Width: 507
Flags: W
LayerCount: 2
Fore
SplineSet
37 191 m 2,0,-1
 37 283 l 2,1,2
 37 364 37 364 89.5 422 c 128,-1,3
 142 480 142 480 216 480 c 0,4,5
 260 480 260 480 294 458 c 128,-1,6
 328 436 328 436 346 404 c 1,7,-1
 346 722 l 2,8,9
 346 737 346 737 361 746.5 c 128,-1,10
 376 756 376 756 399 756 c 128,-1,11
 422 756 422 756 436.5 746.5 c 128,-1,12
 451 737 451 737 451 722 c 2,13,-1
 451 35 l 2,14,15
 451 22 451 22 436 11 c 128,-1,16
 421 0 421 0 399 0 c 0,17,18
 380 0 380 0 365.5 11 c 128,-1,19
 351 22 351 22 351 35 c 2,20,-1
 351 70 l 1,21,22
 335 38 335 38 296.5 15 c 128,-1,23
 258 -8 258 -8 213 -8 c 0,24,25
 143 -8 143 -8 90 52.5 c 128,-1,26
 37 113 37 113 37 191 c 2,0,-1
142 191 m 2,27,28
 142 150 142 150 172 117.5 c 128,-1,29
 202 85 202 85 243 85 c 0,30,31
 282 85 282 85 314 115.5 c 128,-1,32
 346 146 346 146 346 168 c 2,33,-1
 346 283 l 2,34,35
 346 329 346 329 315 358 c 128,-1,36
 284 387 284 387 244 387 c 0,37,38
 203 387 203 387 172.5 355 c 128,-1,39
 142 323 142 323 142 283 c 2,40,-1
 142 191 l 2,27,28
EndSplineSet
EndChar

StartChar: e
Encoding: 101 101 73
Width: 474
Flags: W
LayerCount: 2
Fore
SplineSet
37 191 m 2,0,-1
 37 286 l 2,1,2
 37 365 37 365 98 422.5 c 128,-1,3
 159 480 159 480 245 480 c 0,4,5
 327 480 327 480 385.5 427.5 c 128,-1,6
 444 375 444 375 444 295 c 0,7,8
 444 265 444 265 437 246.5 c 128,-1,9
 430 228 430 228 415 220.5 c 128,-1,10
 400 213 400 213 387 211 c 128,-1,11
 374 209 374 209 353 209 c 2,12,-1
 142 209 l 1,13,-1
 142 186 l 2,14,15
 142 136 142 136 178 106.5 c 128,-1,16
 214 77 214 77 272 77 c 0,17,18
 313 77 313 77 349.5 96 c 128,-1,19
 386 115 386 115 394 115 c 0,20,21
 411 115 411 115 423 99 c 128,-1,22
 435 83 435 83 435 68 c 0,23,24
 435 43 435 43 387 17.5 c 128,-1,25
 339 -8 339 -8 269 -8 c 0,26,27
 167 -8 167 -8 102 47 c 128,-1,28
 37 102 37 102 37 191 c 2,0,-1
142 274 m 1,29,-1
 308 274 l 2,30,31
 330 274 330 274 337.5 280 c 128,-1,32
 345 286 345 286 345 304 c 0,33,34
 345 344 345 344 316 372 c 128,-1,35
 287 400 287 400 244 400 c 0,36,37
 202 400 202 400 172 373.5 c 128,-1,38
 142 347 142 347 142 306 c 2,39,-1
 142 274 l 1,29,-1
EndSplineSet
EndChar

StartChar: f
Encoding: 102 102 74
Width: 328
Flags: W
LayerCount: 2
Fore
SplineSet
56 34 m 2,0,-1
 56 565 l 2,1,2
 56 645 56 645 108 700.5 c 128,-1,3
 160 756 160 756 233 756 c 2,4,-1
 279 756 l 2,5,6
 298 756 298 756 309 742.5 c 128,-1,7
 320 729 320 729 320 711 c 128,-1,8
 320 693 320 693 309 679.5 c 128,-1,9
 298 666 298 666 279 666 c 2,10,-1
 253 666 l 2,11,12
 213 666 213 666 187 640 c 128,-1,13
 161 614 161 614 161 575 c 2,14,-1
 161 474 l 1,15,-1
 291 474 l 2,16,17
 304 474 304 474 312 462.5 c 128,-1,18
 320 451 320 451 320 435 c 128,-1,19
 320 419 320 419 312 407.5 c 128,-1,20
 304 396 304 396 291 396 c 2,21,-1
 161 396 l 1,22,-1
 161 34 l 2,23,24
 161 19 161 19 145 9.5 c 128,-1,25
 129 0 129 0 107 0 c 128,-1,26
 85 0 85 0 70.5 9.5 c 128,-1,27
 56 19 56 19 56 34 c 2,0,-1
EndSplineSet
EndChar

StartChar: g
Encoding: 103 103 75
Width: 463
Flags: W
LayerCount: 2
Fore
SplineSet
19 -87 m 0,0,1
 19 -17 19 -17 96 20 c 1,2,3
 49 40 49 40 49 86 c 0,4,5
 49 130 49 130 99 162 c 1,6,7
 40 208 40 208 40 288 c 2,8,-1
 40 316 l 2,9,10
 40 388 40 388 91.5 434 c 128,-1,11
 143 480 143 480 226 480 c 0,12,13
 296 480 296 480 342 446 c 1,14,15
 371 513 371 513 407 513 c 0,16,17
 426 513 426 513 438 501.5 c 128,-1,18
 450 490 450 490 450 477 c 0,19,20
 450 461 450 461 433 452 c 1,21,22
 401 438 401 438 383 412 c 1,23,24
 415 372 415 372 415 316 c 2,25,-1
 415 288 l 2,26,27
 415 216 415 216 362 169 c 128,-1,28
 309 122 309 122 226 122 c 0,29,30
 187 122 187 122 157 134 c 1,31,32
 138 121 138 121 138 106 c 0,33,34
 138 86 138 86 169.5 77 c 128,-1,35
 201 68 201 68 245.5 63 c 128,-1,36
 290 58 290 58 334.5 48.5 c 128,-1,37
 379 39 379 39 410.5 8 c 128,-1,38
 442 -23 442 -23 442 -74 c 0,39,40
 442 -149 442 -149 382.5 -187 c 128,-1,41
 323 -225 323 -225 232 -225 c 128,-1,42
 141 -225 141 -225 80 -187.5 c 128,-1,43
 19 -150 19 -150 19 -87 c 0,0,1
118 -76 m 0,44,45
 118 -112 118 -112 149.5 -133.5 c 128,-1,46
 181 -155 181 -155 231 -155 c 0,47,48
 280 -155 280 -155 310 -134 c 128,-1,49
 340 -113 340 -113 340 -77 c 0,50,51
 340 -54 340 -54 326 -38.5 c 128,-1,52
 312 -23 312 -23 284.5 -15.5 c 128,-1,53
 257 -8 257 -8 237.5 -5.5 c 128,-1,54
 218 -3 218 -3 185 -1 c 1,55,56
 118 -26 118 -26 118 -76 c 0,44,45
142 289 m 2,57,58
 142 245 142 245 165 217 c 128,-1,59
 188 189 188 189 228 189 c 0,60,61
 267 189 267 189 290 216.5 c 128,-1,62
 313 244 313 244 313 288 c 2,63,-1
 313 316 l 2,64,65
 313 358 313 358 290 385.5 c 128,-1,66
 267 413 267 413 227 413 c 0,67,68
 188 413 188 413 165 385.5 c 128,-1,69
 142 358 142 358 142 316 c 2,70,-1
 142 289 l 2,57,58
EndSplineSet
EndChar

StartChar: h
Encoding: 104 104 76
Width: 514
Flags: W
LayerCount: 2
Fore
SplineSet
56 35 m 2,0,-1
 56 722 l 2,1,2
 56 737 56 737 70.5 746.5 c 128,-1,3
 85 756 85 756 108 756 c 0,4,5
 130 756 130 756 145.5 746.5 c 128,-1,6
 161 737 161 737 161 722 c 2,7,-1
 161 404 l 1,8,9
 177 436 177 436 210.5 458 c 128,-1,10
 244 480 244 480 289 480 c 0,11,12
 360 480 360 480 411.5 422 c 128,-1,13
 463 364 463 364 463 283 c 2,14,-1
 463 35 l 2,15,16
 463 19 463 19 447 9.5 c 128,-1,17
 431 0 431 0 410 0 c 0,18,19
 390 0 390 0 374 9.5 c 128,-1,20
 358 19 358 19 358 35 c 2,21,-1
 358 283 l 2,22,23
 358 323 358 323 328 355 c 128,-1,24
 298 387 298 387 257 387 c 0,25,26
 219 387 219 387 190 358.5 c 128,-1,27
 161 330 161 330 161 283 c 2,28,-1
 161 35 l 2,29,30
 161 22 161 22 145 11 c 128,-1,31
 129 0 129 0 108 0 c 0,32,33
 86 0 86 0 71 11 c 128,-1,34
 56 22 56 22 56 35 c 2,0,-1
EndSplineSet
EndChar

StartChar: i
Encoding: 105 105 77
Width: 215
Flags: W
LayerCount: 2
Fore
SplineSet
46 648 m 0,0,1
 46 671 46 671 64 687 c 128,-1,2
 82 703 82 703 107 703 c 128,-1,3
 132 703 132 703 150 687 c 128,-1,4
 168 671 168 671 168 648 c 0,5,6
 168 626 168 626 150 609.5 c 128,-1,7
 132 593 132 593 107 593 c 128,-1,8
 82 593 82 593 64 609.5 c 128,-1,9
 46 626 46 626 46 648 c 0,0,1
55 35 m 2,10,-1
 55 440 l 2,11,12
 55 455 55 455 69.5 464.5 c 128,-1,13
 84 474 84 474 107 474 c 128,-1,14
 130 474 130 474 145 464.5 c 128,-1,15
 160 455 160 455 160 440 c 2,16,-1
 160 35 l 2,17,18
 160 22 160 22 144.5 11 c 128,-1,19
 129 0 129 0 107 0 c 128,-1,20
 85 0 85 0 70 11 c 128,-1,21
 55 22 55 22 55 35 c 2,10,-1
EndSplineSet
EndChar

StartChar: j
Encoding: 106 106 78
Width: 215
Flags: W
LayerCount: 2
Fore
SplineSet
-38 -181 m 0,0,1
 -38 -161 -38 -161 -26 -148 c 128,-1,2
 -14 -135 -14 -135 3 -135 c 0,3,4
 35 -135 35 -135 45 -110.5 c 128,-1,5
 55 -86 55 -86 55 -36 c 2,6,-1
 55 440 l 2,7,8
 55 455 55 455 69.5 464.5 c 128,-1,9
 84 474 84 474 107 474 c 128,-1,10
 130 474 130 474 145 464.5 c 128,-1,11
 160 455 160 455 160 440 c 2,12,-1
 160 -36 l 2,13,14
 160 -123 160 -123 124 -174 c 128,-1,15
 88 -225 88 -225 17 -225 c 0,16,17
 -38 -225 -38 -225 -38 -181 c 0,0,1
46 648 m 0,18,19
 46 671 46 671 64 687 c 128,-1,20
 82 703 82 703 107 703 c 128,-1,21
 132 703 132 703 150 687 c 128,-1,22
 168 671 168 671 168 648 c 0,23,24
 168 626 168 626 150 609.5 c 128,-1,25
 132 593 132 593 107 593 c 128,-1,26
 82 593 82 593 64 609.5 c 128,-1,27
 46 626 46 626 46 648 c 0,18,19
EndSplineSet
EndChar

StartChar: k
Encoding: 107 107 79
Width: 480
Flags: W
LayerCount: 2
Fore
SplineSet
56 35 m 2,0,-1
 56 722 l 2,1,2
 56 737 56 737 70 746.5 c 128,-1,3
 84 756 84 756 107 756 c 128,-1,4
 130 756 130 756 145.5 746.5 c 128,-1,5
 161 737 161 737 161 722 c 2,6,-1
 161 277 l 1,7,-1
 370 469 l 2,8,9
 379 478 379 478 392 478 c 0,10,11
 409 478 409 478 426 462 c 128,-1,12
 443 446 443 446 443 428 c 0,13,14
 443 415 443 415 434 406 c 2,15,-1
 305 291 l 1,16,-1
 462 65 l 2,17,18
 468 56 468 56 468 47 c 0,19,20
 468 29 468 29 448 11.5 c 128,-1,21
 428 -6 428 -6 409 -6 c 0,22,23
 392 -6 392 -6 381 9 c 2,24,-1
 234 226 l 1,25,-1
 161 160 l 1,26,-1
 161 35 l 2,27,28
 161 22 161 22 145 11 c 128,-1,29
 129 0 129 0 107 0 c 128,-1,30
 85 0 85 0 70.5 11 c 128,-1,31
 56 22 56 22 56 35 c 2,0,-1
EndSplineSet
EndChar

StartChar: l
Encoding: 108 108 80
Width: 233
Flags: W
LayerCount: 2
Fore
SplineSet
64 35 m 2,0,-1
 64 722 l 2,1,2
 64 737 64 737 78.5 746.5 c 128,-1,3
 93 756 93 756 116 756 c 0,4,5
 138 756 138 756 153.5 746.5 c 128,-1,6
 169 737 169 737 169 722 c 2,7,-1
 169 35 l 2,8,9
 169 22 169 22 153 11 c 128,-1,10
 137 0 137 0 116 0 c 0,11,12
 94 0 94 0 79 11 c 128,-1,13
 64 22 64 22 64 35 c 2,0,-1
EndSplineSet
EndChar

StartChar: m
Encoding: 109 109 81
Width: 794
Flags: W
LayerCount: 2
Fore
SplineSet
55 35 m 2,0,-1
 55 440 l 2,1,2
 55 455 55 455 69.5 464.5 c 128,-1,3
 84 474 84 474 107 474 c 0,4,5
 126 474 126 474 140 464.5 c 128,-1,6
 154 455 154 455 154 440 c 2,7,-1
 154 404 l 1,8,9
 197 480 197 480 287 480 c 0,10,11
 331 480 331 480 365.5 452.5 c 128,-1,12
 400 425 400 425 418 380 c 1,13,14
 443 429 443 429 483.5 454.5 c 128,-1,15
 524 480 524 480 569 480 c 0,16,17
 640 480 640 480 691.5 426.5 c 128,-1,18
 743 373 743 373 743 283 c 2,19,-1
 743 35 l 2,20,21
 743 22 743 22 727 11 c 128,-1,22
 711 0 711 0 690 0 c 0,23,24
 670 0 670 0 654 11 c 128,-1,25
 638 22 638 22 638 35 c 2,26,-1
 638 283 l 2,27,28
 638 332 638 332 610 360 c 128,-1,29
 582 388 582 388 545 388 c 128,-1,30
 508 388 508 388 479.5 360 c 128,-1,31
 451 332 451 332 451 285 c 2,32,-1
 451 34 l 2,33,34
 451 17 451 17 435.5 8.5 c 128,-1,35
 420 0 420 0 398 0 c 0,36,37
 378 0 378 0 362 8.5 c 128,-1,38
 346 17 346 17 346 34 c 2,39,-1
 346 284 l 2,40,41
 346 329 346 329 318.5 358 c 128,-1,42
 291 387 291 387 253 387 c 128,-1,43
 215 387 215 387 187.5 359 c 128,-1,44
 160 331 160 331 160 283 c 2,45,-1
 160 35 l 2,46,47
 160 22 160 22 144 11 c 128,-1,48
 128 0 128 0 107 0 c 0,49,50
 85 0 85 0 70 11 c 128,-1,51
 55 22 55 22 55 35 c 2,0,-1
EndSplineSet
EndChar

StartChar: n
Encoding: 110 110 82
Width: 513
Flags: W
LayerCount: 2
Fore
SplineSet
55 35 m 2,0,-1
 55 440 l 2,1,2
 55 455 55 455 69.5 464.5 c 128,-1,3
 84 474 84 474 107 474 c 0,4,5
 127 474 127 474 140.5 464.5 c 128,-1,6
 154 455 154 455 154 440 c 2,7,-1
 154 404 l 1,8,9
 170 436 170 436 205.5 458 c 128,-1,10
 241 480 241 480 288 480 c 0,11,12
 359 480 359 480 410.5 422 c 128,-1,13
 462 364 462 364 462 283 c 2,14,-1
 462 35 l 2,15,16
 462 19 462 19 446.5 9.5 c 128,-1,17
 431 0 431 0 409 0 c 0,18,19
 389 0 389 0 373 9.5 c 128,-1,20
 357 19 357 19 357 35 c 2,21,-1
 357 283 l 2,22,23
 357 323 357 323 327 355 c 128,-1,24
 297 387 297 387 256 387 c 0,25,26
 218 387 218 387 189 358.5 c 128,-1,27
 160 330 160 330 160 283 c 2,28,-1
 160 35 l 2,29,30
 160 22 160 22 144 11 c 128,-1,31
 128 0 128 0 107 0 c 0,32,33
 85 0 85 0 70 11 c 128,-1,34
 55 22 55 22 55 35 c 2,0,-1
EndSplineSet
EndChar

StartChar: o
Encoding: 111 111 83
Width: 487
Flags: W
LayerCount: 2
Fore
SplineSet
36 191 m 2,0,-1
 36 283 l 2,1,2
 36 362 36 362 97 421 c 128,-1,3
 158 480 158 480 243 480 c 0,4,5
 326 480 326 480 388 421.5 c 128,-1,6
 450 363 450 363 450 283 c 2,7,-1
 450 191 l 2,8,9
 450 113 450 113 387.5 52.5 c 128,-1,10
 325 -8 325 -8 243 -8 c 0,11,12
 160 -8 160 -8 98 52 c 128,-1,13
 36 112 36 112 36 191 c 2,0,-1
141 191 m 2,14,15
 141 150 141 150 171 117.5 c 128,-1,16
 201 85 201 85 243 85 c 0,17,18
 284 85 284 85 314.5 117.5 c 128,-1,19
 345 150 345 150 345 191 c 2,20,-1
 345 283 l 2,21,22
 345 323 345 323 314.5 355 c 128,-1,23
 284 387 284 387 243 387 c 0,24,25
 201 387 201 387 171 355 c 128,-1,26
 141 323 141 323 141 283 c 2,27,-1
 141 191 l 2,14,15
EndSplineSet
EndChar

StartChar: p
Encoding: 112 112 84
Width: 506
Flags: W
LayerCount: 2
Fore
SplineSet
56 -190 m 2,0,-1
 56 440 l 2,1,2
 56 455 56 455 70.5 464.5 c 128,-1,3
 85 474 85 474 106 474 c 128,-1,4
 127 474 127 474 141 464.5 c 128,-1,5
 155 455 155 455 155 440 c 2,6,-1
 155 404 l 1,7,8
 173 436 173 436 208.5 458 c 128,-1,9
 244 480 244 480 289 480 c 0,10,11
 364 480 364 480 416.5 422 c 128,-1,12
 469 364 469 364 469 283 c 2,13,-1
 469 191 l 2,14,15
 469 113 469 113 416 52.5 c 128,-1,16
 363 -8 363 -8 293 -8 c 0,17,18
 250 -8 250 -8 213.5 15 c 128,-1,19
 177 38 177 38 161 70 c 1,20,-1
 161 -190 l 2,21,22
 161 -204 161 -204 145 -214.5 c 128,-1,23
 129 -225 129 -225 107 -225 c 128,-1,24
 85 -225 85 -225 70.5 -214.5 c 128,-1,25
 56 -204 56 -204 56 -190 c 2,0,-1
161 168 m 2,26,27
 161 146 161 146 191.5 115.5 c 128,-1,28
 222 85 222 85 262 85 c 128,-1,29
 302 85 302 85 333 117.5 c 128,-1,30
 364 150 364 150 364 191 c 2,31,-1
 364 283 l 2,32,33
 364 323 364 323 333 355 c 128,-1,34
 302 387 302 387 260 387 c 0,35,36
 221 387 221 387 191 358.5 c 128,-1,37
 161 330 161 330 161 283 c 2,38,-1
 161 168 l 2,26,27
EndSplineSet
EndChar

StartChar: q
Encoding: 113 113 85
Width: 507
Flags: W
LayerCount: 2
Fore
SplineSet
37 191 m 2,0,-1
 37 283 l 2,1,2
 37 364 37 364 89.5 422 c 128,-1,3
 142 480 142 480 217 480 c 0,4,5
 263 480 263 480 298 458 c 128,-1,6
 333 436 333 436 351 404 c 1,7,-1
 351 440 l 2,8,9
 351 455 351 455 365 464.5 c 128,-1,10
 379 474 379 474 400 474 c 128,-1,11
 421 474 421 474 436 464.5 c 128,-1,12
 451 455 451 455 451 440 c 2,13,-1
 451 -190 l 2,14,15
 451 -204 451 -204 436 -214.5 c 128,-1,16
 421 -225 421 -225 399 -225 c 128,-1,17
 377 -225 377 -225 361.5 -214.5 c 128,-1,18
 346 -204 346 -204 346 -190 c 2,19,-1
 346 70 l 1,20,21
 329 38 329 38 292.5 15 c 128,-1,22
 256 -8 256 -8 213 -8 c 0,23,24
 143 -8 143 -8 90 52.5 c 128,-1,25
 37 113 37 113 37 191 c 2,0,-1
142 191 m 2,26,27
 142 150 142 150 173 117.5 c 128,-1,28
 204 85 204 85 244 85 c 128,-1,29
 284 85 284 85 315 115.5 c 128,-1,30
 346 146 346 146 346 168 c 2,31,-1
 346 283 l 2,32,33
 346 329 346 329 315.5 358 c 128,-1,34
 285 387 285 387 246 387 c 0,35,36
 204 387 204 387 173 355 c 128,-1,37
 142 323 142 323 142 283 c 2,38,-1
 142 191 l 2,26,27
EndSplineSet
EndChar

StartChar: r
Encoding: 114 114 86
Width: 360
Flags: W
LayerCount: 2
Fore
SplineSet
55 35 m 2,0,-1
 55 440 l 2,1,2
 55 455 55 455 69.5 464.5 c 128,-1,3
 84 474 84 474 106 474 c 0,4,5
 126 474 126 474 140 464.5 c 128,-1,6
 154 455 154 455 154 440 c 2,7,-1
 154 396 l 1,8,9
 171 431 171 431 205.5 455.5 c 128,-1,10
 240 480 240 480 281 480 c 2,11,-1
 313 480 l 2,12,13
 329 480 329 480 341 466.5 c 128,-1,14
 353 453 353 453 353 434 c 128,-1,15
 353 415 353 415 341 401 c 128,-1,16
 329 387 329 387 313 387 c 2,17,-1
 281 387 l 2,18,19
 233 387 233 387 196.5 346 c 128,-1,20
 160 305 160 305 160 240 c 2,21,-1
 160 35 l 2,22,23
 160 22 160 22 144 11 c 128,-1,24
 128 0 128 0 106 0 c 128,-1,25
 84 0 84 0 69.5 11 c 128,-1,26
 55 22 55 22 55 35 c 2,0,-1
EndSplineSet
EndChar

StartChar: s
Encoding: 115 115 87
Width: 404
Flags: W
LayerCount: 2
Fore
SplineSet
27 72 m 0,0,1
 27 87 27 87 37.5 103 c 128,-1,2
 48 119 48 119 63 119 c 0,3,4
 72 119 72 119 88 107.5 c 128,-1,5
 104 96 104 96 131 84.5 c 128,-1,6
 158 73 158 73 196 73 c 0,7,8
 281 73 281 73 281 127 c 0,9,10
 281 156 281 156 256 172.5 c 128,-1,11
 231 189 231 189 195.5 198.5 c 128,-1,12
 160 208 160 208 125 220 c 128,-1,13
 90 232 90 232 65 261 c 128,-1,14
 40 290 40 290 40 336 c 0,15,16
 40 395 40 395 82 437.5 c 128,-1,17
 124 480 124 480 211 480 c 0,18,19
 268 480 268 480 314.5 462.5 c 128,-1,20
 361 445 361 445 361 421 c 0,21,22
 361 407 361 407 349.5 388.5 c 128,-1,23
 338 370 338 370 321 370 c 0,24,25
 315 370 315 370 280 384.5 c 128,-1,26
 245 399 245 399 213 399 c 0,27,28
 173 399 173 399 152.5 381 c 128,-1,29
 132 363 132 363 132 341 c 0,30,31
 132 317 132 317 157 303 c 128,-1,32
 182 289 182 289 218 280 c 128,-1,33
 254 271 254 271 289.5 258 c 128,-1,34
 325 245 325 245 350 213 c 128,-1,35
 375 181 375 181 375 131 c 0,36,37
 375 66 375 66 329 29 c 128,-1,38
 283 -8 283 -8 199 -8 c 0,39,40
 128 -8 128 -8 77.5 17 c 128,-1,41
 27 42 27 42 27 72 c 0,0,1
EndSplineSet
EndChar

StartChar: t
Encoding: 116 116 88
Width: 329
Flags: W
LayerCount: 2
Fore
SplineSet
54 156 m 2,0,-1
 54 657 l 2,1,2
 54 671 54 671 70 681 c 128,-1,3
 86 691 86 691 106 691 c 128,-1,4
 126 691 126 691 142.5 681 c 128,-1,5
 159 671 159 671 159 657 c 2,6,-1
 159 474 l 1,7,-1
 281 474 l 2,8,9
 294 474 294 474 302 462.5 c 128,-1,10
 310 451 310 451 310 435 c 128,-1,11
 310 419 310 419 302 407.5 c 128,-1,12
 294 396 294 396 281 396 c 2,13,-1
 159 396 l 1,14,-1
 159 156 l 2,15,16
 159 120 159 120 174.5 105 c 128,-1,17
 190 90 190 90 229 90 c 2,18,-1
 264 90 l 2,19,20
 285 90 285 90 297 77 c 128,-1,21
 309 64 309 64 309 45 c 128,-1,22
 309 26 309 26 297 13 c 128,-1,23
 285 0 285 0 264 0 c 2,24,-1
 229 0 l 2,25,26
 54 0 54 0 54 156 c 2,0,-1
EndSplineSet
EndChar

StartChar: u
Encoding: 117 117 89
Width: 515
Flags: W
LayerCount: 2
Fore
SplineSet
51 189 m 2,0,-1
 51 439 l 2,1,2
 51 453 51 453 67 463.5 c 128,-1,3
 83 474 83 474 104 474 c 128,-1,4
 125 474 125 474 140.5 463.5 c 128,-1,5
 156 453 156 453 156 439 c 2,6,-1
 156 189 l 2,7,8
 156 149 156 149 186.5 117 c 128,-1,9
 217 85 217 85 258 85 c 0,10,11
 300 85 300 85 330 116.5 c 128,-1,12
 360 148 360 148 360 189 c 2,13,-1
 360 440 l 2,14,15
 360 454 360 454 375.5 464 c 128,-1,16
 391 474 391 474 413 474 c 128,-1,17
 435 474 435 474 449.5 464 c 128,-1,18
 464 454 464 454 464 440 c 2,19,-1
 464 189 l 2,20,21
 464 110 464 110 403 51 c 128,-1,22
 342 -8 342 -8 258 -8 c 128,-1,23
 174 -8 174 -8 112.5 51 c 128,-1,24
 51 110 51 110 51 189 c 2,0,-1
EndSplineSet
EndChar

StartChar: v
Encoding: 118 118 90
Width: 459
Flags: W
LayerCount: 2
Fore
SplineSet
9 433 m 0,0,1
 9 451 9 451 32 464.5 c 128,-1,2
 55 478 55 478 78 478 c 0,3,4
 103 478 103 478 110 459 c 2,5,-1
 229 143 l 1,6,-1
 348 457 l 2,7,8
 356 478 356 478 380 478 c 0,9,10
 399 478 399 478 424 464 c 128,-1,11
 449 450 449 450 449 433 c 0,12,13
 449 426 449 426 445 416 c 2,14,-1
 277 11 l 2,15,16
 268 -10 268 -10 229 -10 c 128,-1,17
 190 -10 190 -10 181 11 c 2,18,-1
 14 416 l 2,19,20
 9 426 9 426 9 433 c 0,0,1
EndSplineSet
EndChar

StartChar: w
Encoding: 119 119 91
Width: 684
Flags: W
LayerCount: 2
Fore
SplineSet
10 434 m 0,0,1
 10 452 10 452 32 465 c 128,-1,2
 54 478 54 478 77 478 c 0,3,4
 102 478 102 478 109 459 c 2,5,-1
 220 148 l 1,6,-1
 305 424 l 2,7,8
 312 447 312 447 342 447 c 128,-1,9
 372 447 372 447 379 424 c 2,10,-1
 463 146 l 1,11,-1
 575 459 l 2,12,13
 581 478 581 478 606 478 c 0,14,15
 628 478 628 478 650.5 465 c 128,-1,16
 673 452 673 452 673 433 c 0,17,18
 673 425 673 425 669 417 c 2,19,-1
 514 11 l 2,20,21
 506 -10 506 -10 472 -10 c 128,-1,22
 438 -10 438 -10 429 10 c 1,23,-1
 342 268 l 1,24,-1
 256 13 l 1,25,26
 247 -10 247 -10 211 -10 c 0,27,28
 178 -10 178 -10 169 13 c 2,29,-1
 14 417 l 2,30,31
 10 429 10 429 10 434 c 0,0,1
EndSplineSet
EndChar

StartChar: x
Encoding: 120 120 92
Width: 444
Flags: W
LayerCount: 2
Fore
SplineSet
20 44 m 0,0,1
 20 54 20 54 27 63 c 2,2,-1
 151 241 l 1,3,-1
 33 409 l 2,4,5
 26 418 26 418 26 427 c 0,6,7
 26 445 26 445 49.5 462.5 c 128,-1,8
 73 480 73 480 95 480 c 0,9,10
 113 480 113 480 120 468 c 2,11,-1
 222 308 l 1,12,-1
 324 467 l 2,13,14
 332 480 332 480 350 480 c 0,15,16
 370 480 370 480 394 462.5 c 128,-1,17
 418 445 418 445 418 427 c 0,18,19
 418 419 418 419 411 409 c 2,20,-1
 292 240 l 1,21,-1
 417 63 l 2,22,23
 424 54 424 54 424 44 c 0,24,25
 424 27 424 27 401 9.5 c 128,-1,26
 378 -8 378 -8 357 -8 c 0,27,28
 338 -8 338 -8 330 4 c 2,29,-1
 222 169 l 1,30,-1
 114 4 l 2,31,32
 105 -8 105 -8 86 -8 c 128,-1,33
 67 -8 67 -8 43.5 9 c 128,-1,34
 20 26 20 26 20 44 c 0,0,1
EndSplineSet
EndChar

StartChar: y
Encoding: 121 121 93
Width: 457
Flags: W
LayerCount: 2
Fore
SplineSet
10 -180 m 128,-1,1
 10 -135 10 -135 39 -135 c 0,2,3
 84 -135 84 -135 128 -92 c 128,-1,4
 172 -49 172 -49 182 29 c 1,5,-1
 14 417 l 1,6,7
 10 422 10 422 10 431 c 0,8,9
 10 450 10 450 33 465.5 c 128,-1,10
 56 481 56 481 79 481 c 0,11,12
 104 481 104 481 111 462 c 2,13,-1
 237 137 l 1,14,-1
 345 462 l 1,15,16
 354 481 354 481 375 481 c 128,-1,17
 396 481 396 481 420.5 465.5 c 128,-1,18
 445 450 445 450 445 429 c 0,19,20
 445 420 445 420 443 417 c 2,21,-1
 295 26 l 1,22,-1
 278 -19 l 2,23,24
 272 -33 272 -33 259.5 -62 c 128,-1,25
 247 -91 247 -91 238 -106 c 2,26,-1
 214 -143 l 2,27,28
 199 -166 199 -166 184 -177.5 c 128,-1,29
 169 -189 169 -189 150 -201.5 c 128,-1,30
 131 -214 131 -214 108 -219.5 c 128,-1,31
 85 -225 85 -225 59 -225 c 0,32,0
 10 -225 10 -225 10 -180 c 128,-1,1
EndSplineSet
EndChar

StartChar: z
Encoding: 122 122 94
Width: 425
Flags: W
LayerCount: 2
Fore
SplineSet
23 38 m 0,0,1
 23 55 23 55 41 80 c 2,2,-1
 255 387 l 1,3,-1
 65 387 l 2,4,5
 52 387 52 387 42 400 c 128,-1,6
 32 413 32 413 32 431 c 128,-1,7
 32 449 32 449 41 461.5 c 128,-1,8
 50 474 50 474 65 474 c 2,9,-1
 354 474 l 2,10,11
 369 474 369 474 379.5 464.5 c 128,-1,12
 390 455 390 455 390 437 c 0,13,14
 390 416 390 416 374 394 c 2,15,-1
 159 87 l 1,16,-1
 371 87 l 2,17,18
 385 87 385 87 395 74.5 c 128,-1,19
 405 62 405 62 405 43 c 0,20,21
 405 25 405 25 395.5 12.5 c 128,-1,22
 386 0 386 0 371 0 c 2,23,-1
 60 0 l 2,24,25
 42 0 42 0 32.5 11.5 c 128,-1,26
 23 23 23 23 23 38 c 0,0,1
EndSplineSet
EndChar

StartChar: braceleft
Encoding: 123 123 95
Width: 343
Flags: W
LayerCount: 2
Fore
SplineSet
25 386 m 0,0,1
 25 404 25 404 34.5 413.5 c 128,-1,2
 44 423 44 423 55 424.5 c 128,-1,3
 66 426 66 426 75.5 431.5 c 128,-1,4
 85 437 85 437 85 449 c 0,5,6
 85 458 85 458 76 520 c 128,-1,7
 67 582 67 582 67 599 c 0,8,9
 67 665 67 665 129 716.5 c 128,-1,10
 191 768 191 768 268 768 c 0,11,12
 298 768 298 768 312 754.5 c 128,-1,13
 326 741 326 741 326 721 c 0,14,15
 326 704 326 704 316.5 690.5 c 128,-1,16
 307 677 307 677 291 677 c 0,17,18
 248 677 248 677 210.5 651.5 c 128,-1,19
 173 626 173 626 173 585 c 0,20,21
 173 571 173 571 182 509.5 c 128,-1,22
 191 448 191 448 191 438 c 0,23,24
 191 420 191 420 178.5 404 c 128,-1,25
 166 388 166 388 155 384 c 1,26,27
 166 381 166 381 178.5 365.5 c 128,-1,28
 191 350 191 350 191 331 c 0,29,30
 191 319 191 319 182 241 c 128,-1,31
 173 163 173 163 173 149 c 0,32,33
 173 120 173 120 195.5 101.5 c 128,-1,34
 218 83 218 83 242.5 77 c 128,-1,35
 267 71 267 71 291 71 c 0,36,37
 309 71 309 71 317.5 56.5 c 128,-1,38
 326 42 326 42 326 26 c 0,39,40
 326 -20 326 -20 267 -20 c 0,41,42
 188 -20 188 -20 127.5 25 c 128,-1,43
 67 70 67 70 67 138 c 0,44,45
 67 157 67 157 76 234 c 128,-1,46
 85 311 85 311 85 320 c 0,47,48
 85 332 85 332 75.5 338.5 c 128,-1,49
 66 345 66 345 55 346.5 c 128,-1,50
 44 348 44 348 34.5 357.5 c 128,-1,51
 25 367 25 367 25 386 c 0,0,1
EndSplineSet
EndChar

StartChar: bar
Encoding: 124 124 96
Width: 226
Flags: W
LayerCount: 2
Fore
SplineSet
60 14 m 2,0,-1
 60 734 l 2,1,2
 60 749 60 749 75 758.5 c 128,-1,3
 90 768 90 768 113 768 c 0,4,5
 135 768 135 768 150.5 758.5 c 128,-1,6
 166 749 166 749 166 734 c 2,7,-1
 166 14 l 2,8,9
 166 0 166 0 150 -10.5 c 128,-1,10
 134 -21 134 -21 113 -21 c 0,11,12
 90 -21 90 -21 75 -10.5 c 128,-1,13
 60 0 60 0 60 14 c 2,0,-1
EndSplineSet
EndChar

StartChar: braceright
Encoding: 125 125 97
Width: 343
Flags: W
LayerCount: 2
Fore
SplineSet
17 26 m 0,0,1
 17 42 17 42 25.5 56.5 c 128,-1,2
 34 71 34 71 52 71 c 0,3,4
 76 71 76 71 100.5 77 c 128,-1,5
 125 83 125 83 147.5 101.5 c 128,-1,6
 170 120 170 120 170 149 c 0,7,8
 170 163 170 163 161 241 c 128,-1,9
 152 319 152 319 152 331 c 0,10,11
 152 350 152 350 164.5 365.5 c 128,-1,12
 177 381 177 381 188 384 c 1,13,14
 177 388 177 388 164.5 404 c 128,-1,15
 152 420 152 420 152 438 c 0,16,17
 152 448 152 448 161 509.5 c 128,-1,18
 170 571 170 571 170 585 c 0,19,20
 170 626 170 626 132.5 651.5 c 128,-1,21
 95 677 95 677 52 677 c 0,22,23
 36 677 36 677 26.5 690.5 c 128,-1,24
 17 704 17 704 17 721 c 0,25,26
 17 741 17 741 31 754.5 c 128,-1,27
 45 768 45 768 75 768 c 0,28,29
 152 768 152 768 214 716.5 c 128,-1,30
 276 665 276 665 276 599 c 0,31,32
 276 582 276 582 267 520 c 128,-1,33
 258 458 258 458 258 449 c 0,34,35
 258 437 258 437 267.5 431.5 c 128,-1,36
 277 426 277 426 288 424.5 c 128,-1,37
 299 423 299 423 308.5 413.5 c 128,-1,38
 318 404 318 404 318 386 c 0,39,40
 318 367 318 367 308.5 357.5 c 128,-1,41
 299 348 299 348 288 346.5 c 128,-1,42
 277 345 277 345 267.5 338.5 c 128,-1,43
 258 332 258 332 258 320 c 0,44,45
 258 311 258 311 267 234 c 128,-1,46
 276 157 276 157 276 138 c 0,47,48
 276 70 276 70 215.5 25 c 128,-1,49
 155 -20 155 -20 76 -20 c 0,50,51
 17 -20 17 -20 17 26 c 0,0,1
EndSplineSet
EndChar

StartChar: asciitilde
Encoding: 126 126 98
Width: 408
Flags: W
LayerCount: 2
Fore
SplineSet
39 245 m 0,0,1
 39 279 39 279 68 294 c 128,-1,2
 97 309 97 309 126 309 c 0,3,4
 154 309 154 309 195.5 293.5 c 128,-1,5
 237 278 237 278 264 278 c 0,6,7
 288 278 288 278 311 290.5 c 128,-1,8
 334 303 334 303 341 303 c 0,9,10
 355 303 355 303 362 291 c 128,-1,11
 369 279 369 279 369 269 c 0,12,13
 369 233 369 233 341 219 c 128,-1,14
 313 205 313 205 284 205 c 0,15,16
 252 205 252 205 211 220.5 c 128,-1,17
 170 236 170 236 145 236 c 0,18,19
 121 236 121 236 97.5 222.5 c 128,-1,20
 74 209 74 209 67 209 c 0,21,22
 53 209 53 209 46 221.5 c 128,-1,23
 39 234 39 234 39 245 c 0,0,1
EndSplineSet
EndChar

StartChar: exclamdown
Encoding: 260 161 100
Width: 210
Flags: W
LayerCount: 2
Fore
SplineSet
45 678 m 0,0,1
 45 702 45 702 62.5 720 c 128,-1,2
 80 738 80 738 104 738 c 0,3,4
 129 738 129 738 146.5 720 c 128,-1,5
 164 702 164 702 164 678 c 0,6,7
 164 653 164 653 146.5 635.5 c 128,-1,8
 129 618 129 618 104 618 c 0,9,10
 80 618 80 618 62.5 635.5 c 128,-1,11
 45 653 45 653 45 678 c 0,0,1
52 42 m 0,12,13
 52 115 52 115 58.5 277.5 c 128,-1,14
 65 440 65 440 65 512 c 0,15,16
 65 527 65 527 77.5 535.5 c 128,-1,17
 90 544 90 544 105 544 c 0,18,19
 122 544 122 544 134 536 c 128,-1,20
 146 528 146 528 146 512 c 0,21,22
 146 440 146 440 152 277.5 c 128,-1,23
 158 115 158 115 158 42 c 0,24,25
 158 19 158 19 143 6.5 c 128,-1,26
 128 -6 128 -6 105 -6 c 128,-1,27
 82 -6 82 -6 67 7 c 128,-1,28
 52 20 52 20 52 42 c 0,12,13
EndSplineSet
EndChar

StartChar: cent
Encoding: 261 162 101
Width: 423
Flags: W
LayerCount: 2
Fore
SplineSet
27 359 m 2,0,-1
 27 378 l 2,1,2
 27 459 27 459 70 512.5 c 128,-1,3
 113 566 113 566 199 576 c 1,4,-1
 199 664 l 2,5,6
 199 677 199 677 208.5 686 c 128,-1,7
 218 695 218 695 232 695 c 0,8,9
 245 695 245 695 255 686 c 128,-1,10
 265 677 265 677 265 664 c 2,11,-1
 265 575 l 1,12,13
 318 570 318 570 354 550 c 128,-1,14
 390 530 390 530 390 505 c 0,15,16
 390 488 390 488 377.5 472 c 128,-1,17
 365 456 365 456 347 456 c 0,18,19
 342 456 342 456 318 469.5 c 128,-1,20
 294 483 294 483 265 486 c 1,21,-1
 265 252 l 1,22,23
 293 255 293 255 317 269.5 c 128,-1,24
 341 284 341 284 347 284 c 0,25,26
 367 284 367 284 380 268.5 c 128,-1,27
 393 253 393 253 393 235 c 0,28,29
 393 211 393 211 355 189.5 c 128,-1,30
 317 168 317 168 265 162 c 1,31,-1
 265 71 l 2,32,33
 265 59 265 59 255 49 c 128,-1,34
 245 39 245 39 232 39 c 0,35,36
 218 39 218 39 208.5 49 c 128,-1,37
 199 59 199 59 199 71 c 2,38,-1
 199 162 l 1,39,40
 113 171 113 171 70 224.5 c 128,-1,41
 27 278 27 278 27 359 c 2,0,-1
120 359 m 2,42,43
 120 270 120 270 199 252 c 1,44,-1
 199 486 l 1,45,46
 120 467 120 467 120 378 c 2,47,-1
 120 359 l 2,42,43
EndSplineSet
EndChar

StartChar: sterling
Encoding: 262 163 102
Width: 521
Flags: W
LayerCount: 2
Fore
SplineSet
22 47 m 128,-1,1
 22 66 22 66 31 80 c 128,-1,2
 40 94 40 94 56 94 c 2,3,-1
 112 94 l 1,4,-1
 149 366 l 1,5,-1
 86 366 l 2,6,7
 72 366 72 366 64.5 377.5 c 128,-1,8
 57 389 57 389 57 406 c 0,9,10
 57 421 57 421 65 433 c 128,-1,11
 73 445 73 445 86 445 c 2,12,-1
 161 445 l 1,13,-1
 178 564 l 2,14,15
 191 651 191 651 261 709.5 c 128,-1,16
 331 768 331 768 419 768 c 2,17,-1
 449 768 l 2,18,19
 466 768 466 768 476 754 c 128,-1,20
 486 740 486 740 486 721 c 0,21,22
 486 703 486 703 476 689 c 128,-1,23
 466 675 466 675 449 675 c 2,24,-1
 414 675 l 2,25,26
 360 675 360 675 325 643 c 128,-1,27
 290 611 290 611 283 564 c 2,28,-1
 266 445 l 1,29,-1
 396 445 l 2,30,31
 409 445 409 445 417 433 c 128,-1,32
 425 421 425 421 425 406 c 0,33,34
 425 390 425 390 417.5 378 c 128,-1,35
 410 366 410 366 396 366 c 2,36,-1
 254 366 l 1,37,-1
 216 94 l 1,38,-1
 453 94 l 2,39,40
 469 94 469 94 477.5 80 c 128,-1,41
 486 66 486 66 486 47 c 128,-1,42
 486 28 486 28 477.5 14 c 128,-1,43
 469 0 469 0 453 0 c 2,44,-1
 56 0 l 2,45,46
 40 0 40 0 31 14 c 128,-1,0
 22 28 22 28 22 47 c 128,-1,1
EndSplineSet
EndChar

StartChar: currency
Encoding: 164 164 103
Width: 461
Flags: W
LayerCount: 2
Fore
SplineSet
53 327 m 0,0,1
 53 334 53 334 59 340 c 2,2,-1
 88 368 l 1,3,4
 54 414 54 414 54 472 c 128,-1,5
 54 530 54 530 88 576 c 1,6,-1
 62 601 l 2,7,8
 56 607 56 607 56 614 c 0,9,10
 56 624 56 624 63.5 631.5 c 128,-1,11
 71 639 71 639 81 639 c 0,12,13
 89 639 89 639 95 634 c 2,14,-1
 119 610 l 1,15,16
 167 652 167 652 231 652 c 0,17,18
 290 652 290 652 340 613 c 1,19,-1
 366 637 l 2,20,21
 371 642 371 642 380 642 c 0,22,23
 390 642 390 642 397.5 634 c 128,-1,24
 405 626 405 626 405 617 c 0,25,26
 405 610 405 610 399 604 c 2,27,-1
 372 578 l 1,28,29
 409 531 409 531 409 473 c 0,30,31
 409 414 409 414 372 366 c 1,32,-1
 399 340 l 2,33,34
 405 334 405 334 405 327 c 0,35,36
 405 318 405 318 397.5 310 c 128,-1,37
 390 302 390 302 380 302 c 0,38,39
 372 302 372 302 367 307 c 2,40,-1
 340 331 l 1,41,42
 291 290 291 290 231 290 c 0,43,44
 168 290 168 290 119 333 c 1,45,-1
 91 307 l 2,46,47
 86 302 86 302 78 302 c 0,48,49
 68 302 68 302 60.5 310 c 128,-1,50
 53 318 53 318 53 327 c 0,0,1
116 472 m 0,51,52
 116 425 116 425 150 389 c 128,-1,53
 184 353 184 353 231 353 c 128,-1,54
 278 353 278 353 312.5 389 c 128,-1,55
 347 425 347 425 347 471 c 128,-1,56
 347 517 347 517 313 553 c 128,-1,57
 279 589 279 589 231 589 c 0,58,59
 184 589 184 589 150 553.5 c 128,-1,60
 116 518 116 518 116 472 c 0,51,52
EndSplineSet
EndChar

StartChar: yen
Encoding: 263 165 104
Width: 541
Flags: W
LayerCount: 2
Fore
SplineSet
22 691 m 0,0,1
 22 707 22 707 42.5 721 c 128,-1,2
 63 735 63 735 84 735 c 0,3,4
 103 735 103 735 116 710 c 2,5,-1
 269 419 l 1,6,-1
 425 710 l 2,7,8
 438 735 438 735 457 735 c 0,9,10
 478 735 478 735 498 721 c 128,-1,11
 518 707 518 707 518 691 c 0,12,13
 518 683 518 683 515 677 c 2,14,-1
 345 387 l 1,15,-1
 424 387 l 2,16,17
 438 387 438 387 449 375.5 c 128,-1,18
 460 364 460 364 460 348 c 128,-1,19
 460 332 460 332 449 321 c 128,-1,20
 438 310 438 310 424 310 c 2,21,-1
 321 310 l 1,22,-1
 321 242 l 1,23,-1
 424 242 l 2,24,25
 438 242 438 242 449 230.5 c 128,-1,26
 460 219 460 219 460 204 c 0,27,28
 460 187 460 187 449 176.5 c 128,-1,29
 438 166 438 166 424 166 c 2,30,-1
 321 166 l 1,31,-1
 321 35 l 2,32,33
 321 19 321 19 305.5 9.5 c 128,-1,34
 290 0 290 0 269 0 c 128,-1,35
 248 0 248 0 232 9.5 c 128,-1,36
 216 19 216 19 216 35 c 2,37,-1
 216 166 l 1,38,-1
 117 166 l 2,39,40
 101 166 101 166 91.5 176 c 128,-1,41
 82 186 82 186 82 203 c 128,-1,42
 82 220 82 220 91.5 231 c 128,-1,43
 101 242 101 242 117 242 c 2,44,-1
 216 242 l 1,45,-1
 216 310 l 1,46,-1
 117 310 l 2,47,48
 101 310 101 310 91.5 320 c 128,-1,49
 82 330 82 330 82 347 c 128,-1,50
 82 364 82 364 91.5 375.5 c 128,-1,51
 101 387 101 387 117 387 c 2,52,-1
 192 387 l 1,53,-1
 26 677 l 2,54,55
 22 682 22 682 22 691 c 0,0,1
EndSplineSet
EndChar

StartChar: brokenbar
Encoding: 264 166 105
Width: 225
Flags: W
LayerCount: 2
Fore
SplineSet
60 14 m 2,0,-1
 60 272 l 2,1,2
 60 287 60 287 75 297 c 128,-1,3
 90 307 90 307 112 307 c 128,-1,4
 134 307 134 307 149.5 297 c 128,-1,5
 165 287 165 287 165 272 c 2,6,-1
 165 14 l 2,7,8
 165 0 165 0 149 -10.5 c 128,-1,9
 133 -21 133 -21 112 -21 c 0,10,11
 90 -21 90 -21 75 -10.5 c 128,-1,12
 60 0 60 0 60 14 c 2,0,-1
60 475 m 2,13,-1
 60 734 l 2,14,15
 60 749 60 749 74.5 758.5 c 128,-1,16
 89 768 89 768 112 768 c 0,17,18
 134 768 134 768 149.5 758.5 c 128,-1,19
 165 749 165 749 165 734 c 2,20,-1
 165 475 l 2,21,22
 165 462 165 462 149 451 c 128,-1,23
 133 440 133 440 112 440 c 0,24,25
 90 440 90 440 75 451 c 128,-1,26
 60 462 60 462 60 475 c 2,13,-1
EndSplineSet
EndChar

StartChar: section
Encoding: 167 167 106
Width: 472
Flags: W
LayerCount: 2
Fore
SplineSet
43 99 m 0,0,1
 43 142 43 142 89 142 c 0,2,3
 134 142 134 142 134 111 c 0,4,5
 134 76 134 76 154 48.5 c 128,-1,6
 174 21 174 21 226 21 c 0,7,8
 274 21 274 21 299 45 c 128,-1,9
 324 69 324 69 324 111 c 0,10,11
 324 148 324 148 296 172 c 128,-1,12
 268 196 268 196 227.5 211 c 128,-1,13
 187 226 187 226 146.5 246 c 128,-1,14
 106 266 106 266 78 308.5 c 128,-1,15
 50 351 50 351 50 416 c 2,16,-1
 50 530 l 2,17,18
 50 588 50 588 67.5 629.5 c 128,-1,19
 85 671 85 671 114.5 692 c 128,-1,20
 144 713 144 713 174 722 c 128,-1,21
 204 731 204 731 237 731 c 0,22,23
 320 731 320 731 365.5 683 c 128,-1,24
 411 635 411 635 411 567 c 0,25,26
 411 523 411 523 370 523 c 0,27,28
 324 523 324 523 324 561 c 0,29,30
 324 593 324 593 305 618.5 c 128,-1,31
 286 644 286 644 241 644 c 0,32,33
 199 644 199 644 173.5 620 c 128,-1,34
 148 596 148 596 148 550 c 0,35,36
 148 513 148 513 177 489 c 128,-1,37
 206 465 206 465 247.5 450 c 128,-1,38
 289 435 289 435 330.5 415 c 128,-1,39
 372 395 372 395 401 352.5 c 128,-1,40
 430 310 430 310 430 245 c 2,41,-1
 430 132 l 2,42,43
 430 27 430 27 372.5 -20.5 c 128,-1,44
 315 -68 315 -68 233 -68 c 0,45,46
 146 -68 146 -68 94.5 -18 c 128,-1,47
 43 32 43 32 43 99 c 0,0,1
139 398 m 2,48,49
 139 357 139 357 163 330 c 128,-1,50
 187 303 187 303 217.5 292.5 c 128,-1,51
 248 282 248 282 286 266 c 128,-1,52
 324 250 324 250 342 232 c 1,53,-1
 342 256 l 2,54,55
 342 297 342 297 318 324 c 128,-1,56
 294 351 294 351 263.5 361.5 c 128,-1,57
 233 372 233 372 195 388 c 128,-1,58
 157 404 157 404 139 422 c 1,59,-1
 139 398 l 2,48,49
EndSplineSet
EndChar

StartChar: dieresis
Encoding: 168 168 107
Width: 230
Flags: W
LayerCount: 2
Fore
SplineSet
0 630 m 128,-1,1
 0 649 0 649 13.5 662.5 c 128,-1,2
 27 676 27 676 46 676 c 128,-1,3
 65 676 65 676 77.5 662.5 c 128,-1,4
 90 649 90 649 90 630 c 128,-1,5
 90 611 90 611 77 597 c 128,-1,6
 64 583 64 583 46 583 c 0,7,8
 27 583 27 583 13.5 597 c 128,-1,0
 0 611 0 611 0 630 c 128,-1,1
140 630 m 128,-1,10
 140 649 140 649 153 662.5 c 128,-1,11
 166 676 166 676 185 676 c 128,-1,12
 204 676 204 676 217 662.5 c 128,-1,13
 230 649 230 649 230 630 c 128,-1,14
 230 611 230 611 217 597 c 128,-1,15
 204 583 204 583 185 583 c 128,-1,16
 166 583 166 583 153 597 c 128,-1,9
 140 611 140 611 140 630 c 128,-1,10
EndSplineSet
EndChar

StartChar: copyright
Encoding: 265 169 108
Width: 702
Flags: W
LayerCount: 2
Fore
SplineSet
44 358 m 0,0,1
 44 438 44 438 72.5 502.5 c 128,-1,2
 101 567 101 567 147 605.5 c 128,-1,3
 193 644 193 644 246.5 664.5 c 128,-1,4
 300 685 300 685 354 685 c 128,-1,5
 408 685 408 685 461 664.5 c 128,-1,6
 514 644 514 644 558.5 605.5 c 128,-1,7
 603 567 603 567 630.5 503.5 c 128,-1,8
 658 440 658 440 658 362 c 0,9,10
 658 282 658 282 629.5 217.5 c 128,-1,11
 601 153 601 153 555 114.5 c 128,-1,12
 509 76 509 76 455.5 55.5 c 128,-1,13
 402 35 402 35 348 35 c 128,-1,14
 294 35 294 35 241 55.5 c 128,-1,15
 188 76 188 76 143.5 114.5 c 128,-1,16
 99 153 99 153 71.5 216.5 c 128,-1,17
 44 280 44 280 44 358 c 0,0,1
99 358 m 0,18,19
 99 240 99 240 167.5 165 c 128,-1,20
 236 90 236 90 348 90 c 0,21,22
 461 90 461 90 532 165.5 c 128,-1,23
 603 241 603 241 603 362 c 0,24,25
 603 480 603 480 534.5 555 c 128,-1,26
 466 630 466 630 354 630 c 0,27,28
 241 630 241 630 170 554.5 c 128,-1,29
 99 479 99 479 99 358 c 0,18,19
238 294 m 2,30,-1
 238 440 l 2,31,32
 238 504 238 504 269.5 534 c 128,-1,33
 301 564 301 564 352 564 c 0,34,35
 404 564 404 564 436.5 536 c 128,-1,36
 469 508 469 508 469 462 c 0,37,38
 469 443 469 443 462 436.5 c 128,-1,39
 455 430 455 430 438 430 c 0,40,41
 407 430 407 430 406 451 c 0,42,43
 403 508 403 508 354 508 c 0,44,45
 300 508 300 508 300 440 c 2,46,-1
 300 294 l 2,47,48
 300 226 300 226 355 226 c 0,49,50
 371 226 371 226 382 231.5 c 128,-1,51
 393 237 393 237 397.5 248.5 c 128,-1,52
 402 260 402 260 403.5 267 c 128,-1,53
 405 274 405 274 406 287 c 0,54,55
 407 308 407 308 437 308 c 0,56,57
 454 308 454 308 461.5 301 c 128,-1,58
 469 294 469 294 469 275 c 0,59,60
 469 228 469 228 436.5 199 c 128,-1,61
 404 170 404 170 352 170 c 0,62,63
 301 170 301 170 269.5 200 c 128,-1,64
 238 230 238 230 238 294 c 2,30,-1
EndSplineSet
EndChar

StartChar: ordfeminine
Encoding: 266 170 109
Width: 326
Flags: W
LayerCount: 2
Fore
SplineSet
29 519 m 0,0,1
 29 571 29 571 68.5 592 c 128,-1,2
 108 613 108 613 182 613 c 2,3,-1
 210 613 l 1,4,-1
 210 624 l 2,5,6
 210 652 210 652 195 672 c 128,-1,7
 180 692 180 692 148 692 c 0,8,9
 119 692 119 692 98 682 c 128,-1,10
 77 672 77 672 74 672 c 0,11,12
 62 672 62 672 55 683.5 c 128,-1,13
 48 695 48 695 48 709 c 0,14,15
 48 726 48 726 81 739.5 c 128,-1,16
 114 753 114 753 149 753 c 0,17,18
 218 753 218 753 250.5 716 c 128,-1,19
 283 679 283 679 283 624 c 2,20,-1
 283 462 l 2,21,22
 283 452 283 452 273 444.5 c 128,-1,23
 263 437 263 437 247 437 c 0,24,25
 234 437 234 437 224.5 444.5 c 128,-1,26
 215 452 215 452 215 462 c 2,27,-1
 215 483 l 1,28,29
 178 442 178 442 136 435 c 0,30,31
 127 433 127 433 107 433 c 1,32,33
 73 435 73 435 51 457 c 128,-1,34
 29 479 29 479 29 519 c 0,0,1
103 528 m 0,35,36
 103 488 103 488 143 488 c 0,37,38
 167 488 167 488 188.5 508 c 128,-1,39
 210 528 210 528 210 552 c 2,40,-1
 210 573 l 1,41,-1
 187 573 l 2,42,43
 103 573 103 573 103 528 c 0,35,36
EndSplineSet
EndChar

StartChar: guillemotleft
Encoding: 267 171 110
Width: 465
Flags: W
LayerCount: 2
Fore
SplineSet
28 276 m 0,0,1
 28 287 28 287 46 318 c 1,2,-1
 125 466 l 2,3,4
 133 480 133 480 157 480 c 128,-1,5
 181 480 181 480 200.5 463 c 128,-1,6
 220 446 220 446 220 428 c 0,7,8
 220 422 220 422 217 416 c 2,9,-1
 143 277 l 1,10,-1
 217 138 l 2,11,12
 220 134 220 134 220 127 c 0,13,14
 220 109 220 109 200.5 91.5 c 128,-1,15
 181 74 181 74 156 74 c 0,16,17
 132 74 132 74 125 89 c 2,18,-1
 46 236 l 1,19,20
 28 267 28 267 28 276 c 0,0,1
234 276 m 0,21,22
 234 285 234 285 253 318 c 1,23,-1
 332 466 l 1,24,25
 338 480 338 480 363 480 c 0,26,27
 387 480 387 480 407 462.5 c 128,-1,28
 427 445 427 445 427 428 c 0,29,30
 427 422 427 422 424 416 c 2,31,-1
 350 277 l 1,32,-1
 424 138 l 2,33,34
 427 134 427 134 427 127 c 0,35,36
 427 109 427 109 407 91.5 c 128,-1,37
 387 74 387 74 362 74 c 0,38,39
 340 74 340 74 332 89 c 2,40,-1
 253 236 l 1,41,-1
 246 248 l 2,42,43
 241 255 241 255 239 258.5 c 128,-1,44
 237 262 237 262 235.5 266.5 c 128,-1,45
 234 271 234 271 234 276 c 0,21,22
EndSplineSet
EndChar

StartChar: logicalnot
Encoding: 268 172 111
Width: 491
Flags: W
LayerCount: 2
Fore
SplineSet
38 240 m 128,-1,1
 38 259 38 259 47.5 272 c 128,-1,2
 57 285 57 285 72 285 c 2,3,-1
 400 285 l 2,4,5
 414 285 414 285 425 271.5 c 128,-1,6
 436 258 436 258 436 240 c 2,7,-1
 436 98 l 2,8,9
 436 84 436 84 420.5 73.5 c 128,-1,10
 405 63 405 63 383 63 c 128,-1,11
 361 63 361 63 346 73.5 c 128,-1,12
 331 84 331 84 331 98 c 2,13,-1
 331 196 l 1,14,-1
 72 196 l 2,15,16
 57 196 57 196 47.5 208.5 c 128,-1,0
 38 221 38 221 38 240 c 128,-1,1
EndSplineSet
EndChar

StartChar: uni00AD
Encoding: 173 173 112
Width: 472
Flags: W
LayerCount: 2
Fore
SplineSet
41 240 m 128,-1,1
 41 259 41 259 50.5 272 c 128,-1,2
 60 285 60 285 75 285 c 2,3,-1
 395 285 l 2,4,5
 409 285 409 285 420 271.5 c 128,-1,6
 431 258 431 258 431 240 c 0,7,8
 431 221 431 221 420 208.5 c 128,-1,9
 409 196 409 196 395 196 c 2,10,-1
 75 196 l 2,11,12
 60 196 60 196 50.5 208.5 c 128,-1,0
 41 221 41 221 41 240 c 128,-1,1
EndSplineSet
EndChar

StartChar: registered
Encoding: 269 174 113
Width: 702
Flags: W
LayerCount: 2
Fore
SplineSet
44 358 m 0,0,1
 44 438 44 438 72.5 502.5 c 128,-1,2
 101 567 101 567 147 605.5 c 128,-1,3
 193 644 193 644 246.5 664.5 c 128,-1,4
 300 685 300 685 354 685 c 128,-1,5
 408 685 408 685 461 664.5 c 128,-1,6
 514 644 514 644 558.5 605.5 c 128,-1,7
 603 567 603 567 630.5 503.5 c 128,-1,8
 658 440 658 440 658 362 c 0,9,10
 658 282 658 282 629.5 217.5 c 128,-1,11
 601 153 601 153 555 114.5 c 128,-1,12
 509 76 509 76 455.5 55.5 c 128,-1,13
 402 35 402 35 348 35 c 128,-1,14
 294 35 294 35 241 55.5 c 128,-1,15
 188 76 188 76 143.5 114.5 c 128,-1,16
 99 153 99 153 71.5 216.5 c 128,-1,17
 44 280 44 280 44 358 c 0,0,1
99 358 m 0,18,19
 99 240 99 240 167.5 165 c 128,-1,20
 236 90 236 90 348 90 c 0,21,22
 461 90 461 90 532 165.5 c 128,-1,23
 603 241 603 241 603 362 c 0,24,25
 603 480 603 480 534.5 555 c 128,-1,26
 466 630 466 630 354 630 c 0,27,28
 241 630 241 630 170 554.5 c 128,-1,29
 99 479 99 479 99 358 c 0,18,19
249 198 m 2,30,-1
 249 534 l 2,31,32
 249 542 249 542 254.5 548 c 128,-1,33
 260 554 260 554 269 554 c 2,34,-1
 362 554 l 2,35,36
 476 554 476 554 476 447 c 0,37,38
 476 364 476 364 410 344 c 1,39,-1
 473 214 l 2,40,41
 474 212 474 212 474 207 c 0,42,43
 474 195 474 195 464 185.5 c 128,-1,44
 454 176 454 176 442 176 c 128,-1,45
 430 176 430 176 421 193 c 2,46,-1
 354 334 l 1,47,-1
 308 334 l 1,48,-1
 308 198 l 2,49,50
 308 177 308 177 279 177 c 0,51,52
 249 177 249 177 249 198 c 2,30,-1
308 385 m 1,53,-1
 362 385 l 2,54,55
 417 385 417 385 417 441 c 0,56,57
 417 501 417 501 362 501 c 2,58,-1
 308 501 l 1,59,-1
 308 385 l 1,53,-1
EndSplineSet
EndChar

StartChar: macron
Encoding: 270 175 114
Width: 278
Flags: W
LayerCount: 2
Fore
SplineSet
0 655 m 128,-1,1
 0 671 0 671 9.5 681.5 c 128,-1,2
 19 692 19 692 34 692 c 2,3,-1
 243 692 l 2,4,5
 257 692 257 692 267.5 681 c 128,-1,6
 278 670 278 670 278 655 c 128,-1,7
 278 640 278 640 267.5 630 c 128,-1,8
 257 620 257 620 243 620 c 2,9,-1
 34 620 l 2,10,11
 19 620 19 620 9.5 629.5 c 128,-1,0
 0 639 0 639 0 655 c 128,-1,1
EndSplineSet
EndChar

StartChar: degree
Encoding: 176 176 115
Width: 407
Flags: W
LayerCount: 2
Fore
SplineSet
26 588 m 128,-1,1
 26 660 26 660 78.5 714 c 128,-1,2
 131 768 131 768 203 768 c 0,3,4
 274 768 274 768 327.5 715 c 128,-1,5
 381 662 381 662 381 589 c 128,-1,6
 381 516 381 516 327.5 461 c 128,-1,7
 274 406 274 406 203 406 c 128,-1,8
 132 406 132 406 79 461 c 128,-1,0
 26 516 26 516 26 588 c 128,-1,1
88 588 m 0,9,10
 88 541 88 541 122 505 c 128,-1,11
 156 469 156 469 203 469 c 128,-1,12
 250 469 250 469 284.5 505 c 128,-1,13
 319 541 319 541 319 587 c 128,-1,14
 319 633 319 633 285 669 c 128,-1,15
 251 705 251 705 203 705 c 0,16,17
 156 705 156 705 122 669.5 c 128,-1,18
 88 634 88 634 88 588 c 0,9,10
EndSplineSet
EndChar

StartChar: plusminus
Encoding: 271 177 116
Width: 469
Flags: W
LayerCount: 2
Fore
SplineSet
40 85 m 128,-1,1
 40 104 40 104 49.5 117 c 128,-1,2
 59 130 59 130 74 130 c 2,3,-1
 394 130 l 2,4,5
 408 130 408 130 418.5 116.5 c 128,-1,6
 429 103 429 103 429 85 c 0,7,8
 429 66 429 66 418.5 53.5 c 128,-1,9
 408 41 408 41 394 41 c 2,10,-1
 74 41 l 2,11,12
 59 41 59 41 49.5 53.5 c 128,-1,0
 40 66 40 66 40 85 c 128,-1,1
40 362 m 0,13,14
 40 382 40 382 49.5 394.5 c 128,-1,15
 59 407 59 407 74 407 c 2,16,-1
 190 407 l 1,17,-1
 190 517 l 2,18,19
 190 530 190 530 203.5 541 c 128,-1,20
 217 552 217 552 235 552 c 0,21,22
 254 552 254 552 266.5 541 c 128,-1,23
 279 530 279 530 279 517 c 2,24,-1
 279 407 l 1,25,-1
 394 407 l 2,26,27
 408 407 408 407 418.5 394 c 128,-1,28
 429 381 429 381 429 362 c 128,-1,29
 429 343 429 343 418.5 331 c 128,-1,30
 408 319 408 319 394 319 c 2,31,-1
 279 319 l 1,32,-1
 279 208 l 2,33,34
 279 193 279 193 266.5 183.5 c 128,-1,35
 254 174 254 174 235 174 c 128,-1,36
 216 174 216 174 203 183.5 c 128,-1,37
 190 193 190 193 190 208 c 2,38,-1
 190 319 l 1,39,-1
 74 319 l 2,40,41
 59 319 59 319 49.5 331 c 128,-1,42
 40 343 40 343 40 362 c 0,13,14
EndSplineSet
EndChar

StartChar: uni00B2
Encoding: 272 178 117
Width: 317
Flags: W
LayerCount: 2
Fore
SplineSet
28 363 m 2,0,-1
 28 415 l 2,1,2
 28 443 28 443 57.5 472 c 128,-1,3
 87 501 87 501 122 521.5 c 128,-1,4
 157 542 157 542 186.5 568.5 c 128,-1,5
 216 595 216 595 216 620 c 0,6,7
 216 638 216 638 202 651.5 c 128,-1,8
 188 665 188 665 160 665 c 0,9,10
 107 665 107 665 107 620 c 0,11,12
 107 610 107 610 96 601.5 c 128,-1,13
 85 593 85 593 68 593 c 0,14,15
 36 593 36 593 36 631 c 0,16,17
 36 676 36 676 72.5 703.5 c 128,-1,18
 109 731 109 731 159 731 c 0,19,20
 212 731 212 731 250.5 701 c 128,-1,21
 289 671 289 671 289 622 c 0,22,23
 289 584 289 584 260 550.5 c 128,-1,24
 231 517 231 517 196 497.5 c 128,-1,25
 161 478 161 478 132 456.5 c 128,-1,26
 103 435 103 435 103 418 c 2,27,-1
 103 404 l 1,28,-1
 267 404 l 2,29,30
 276 404 276 404 283 394.5 c 128,-1,31
 290 385 290 385 290 372 c 0,32,33
 290 360 290 360 283 350 c 128,-1,34
 276 340 276 340 267 340 c 2,35,-1
 60 340 l 2,36,37
 49 340 49 340 38.5 346.5 c 128,-1,38
 28 353 28 353 28 363 c 2,0,-1
EndSplineSet
EndChar

StartChar: uni00B3
Encoding: 273 179 118
Width: 324
Flags: W
LayerCount: 2
Fore
SplineSet
24 435 m 0,0,1
 24 451 24 451 31.5 457 c 128,-1,2
 39 463 39 463 58 463 c 0,3,4
 80 463 80 463 87.5 457 c 128,-1,5
 95 451 95 451 95 438 c 0,6,7
 95 401 95 401 158 401 c 0,8,9
 192 401 192 401 207.5 414 c 128,-1,10
 223 427 223 427 223 456 c 2,11,-1
 223 466 l 2,12,13
 223 515 223 515 157 515 c 0,14,15
 134 515 134 515 134 543 c 128,-1,16
 134 571 134 571 157 572 c 0,17,18
 184 573 184 573 198 583 c 128,-1,19
 212 593 212 593 212 623 c 0,20,21
 212 669 212 669 159 669 c 0,22,23
 105 669 105 669 105 634 c 0,24,25
 105 607 105 607 71 607 c 0,26,27
 47 607 47 607 40 613 c 128,-1,28
 33 619 33 619 33 637 c 0,29,30
 33 673 33 673 63 702 c 128,-1,31
 93 731 93 731 159 731 c 0,32,33
 281 731 281 731 281 635 c 0,34,35
 281 567 281 567 235 546 c 1,36,37
 295 525 295 525 295 466 c 2,38,-1
 295 456 l 2,39,40
 295 394 295 394 257 365.5 c 128,-1,41
 219 337 219 337 156 337 c 0,42,43
 92 337 92 337 58 367 c 128,-1,44
 24 397 24 397 24 435 c 0,0,1
EndSplineSet
EndChar

StartChar: acute
Encoding: 180 180 119
Width: 184
Flags: W
LayerCount: 2
Fore
SplineSet
0 618 m 0,0,1
 0 636 0 636 15 644 c 2,2,-1
 139 707 l 1,3,4
 147 709 147 709 150 709 c 0,5,6
 164 709 164 709 174 696 c 128,-1,7
 184 683 184 683 184 668 c 0,8,9
 184 648 184 648 168 641 c 2,10,-1
 47 580 l 2,11,12
 41 577 41 577 35 577 c 0,13,14
 21 577 21 577 10.5 590 c 128,-1,15
 0 603 0 603 0 618 c 0,0,1
EndSplineSet
EndChar

StartChar: uni00B5
Encoding: 274 181 120
Width: 508
Flags: W
LayerCount: 2
Fore
SplineSet
62 -190 m 2,0,-1
 62 439 l 2,1,2
 62 453 62 453 78 463.5 c 128,-1,3
 94 474 94 474 115 474 c 128,-1,4
 136 474 136 474 151.5 463.5 c 128,-1,5
 167 453 167 453 167 439 c 2,6,-1
 167 179 l 2,7,8
 167 147 167 147 199 116 c 128,-1,9
 231 85 231 85 270 85 c 128,-1,10
 309 85 309 85 338.5 117 c 128,-1,11
 368 149 368 149 368 189 c 2,12,-1
 368 439 l 2,13,14
 368 454 368 454 384 464 c 128,-1,15
 400 474 400 474 421 474 c 0,16,17
 443 474 443 474 458 464 c 128,-1,18
 473 454 473 454 473 439 c 2,19,-1
 473 189 l 2,20,21
 473 109 473 109 413 50.5 c 128,-1,22
 353 -8 353 -8 269 -8 c 0,23,24
 202 -8 202 -8 156 40 c 1,25,-1
 156 -190 l 2,26,27
 156 -204 156 -204 143.5 -214.5 c 128,-1,28
 131 -225 131 -225 114 -225 c 0,29,30
 92 -225 92 -225 77 -214.5 c 128,-1,31
 62 -204 62 -204 62 -190 c 2,0,-1
EndSplineSet
EndChar

StartChar: paragraph
Encoding: 275 182 121
Width: 541
Flags: W
LayerCount: 2
Fore
SplineSet
25 513 m 2,0,-1
 25 525 l 2,1,2
 25 632 25 632 78.5 681.5 c 128,-1,3
 132 731 132 731 221 731 c 2,4,-1
 439 731 l 2,5,6
 453 731 453 731 463.5 721.5 c 128,-1,7
 474 712 474 712 474 696 c 2,8,-1
 474 34 l 2,9,10
 474 17 474 17 463.5 8.5 c 128,-1,11
 453 0 453 0 439 0 c 0,12,13
 424 0 424 0 413.5 8.5 c 128,-1,14
 403 17 403 17 403 34 c 2,15,-1
 403 678 l 1,16,-1
 322 678 l 1,17,-1
 322 35 l 2,18,19
 322 19 322 19 311.5 9.5 c 128,-1,20
 301 0 301 0 287 0 c 0,21,22
 272 0 272 0 261.5 9.5 c 128,-1,23
 251 19 251 19 251 35 c 2,24,-1
 251 306 l 1,25,-1
 221 306 l 2,26,27
 132 306 132 306 78.5 356 c 128,-1,28
 25 406 25 406 25 513 c 2,0,-1
EndSplineSet
EndChar

StartChar: periodcentered
Encoding: 276 183 122
Width: 197
Flags: W
LayerCount: 2
Fore
SplineSet
36 300 m 128,-1,1
 36 323 36 323 54 339.5 c 128,-1,2
 72 356 72 356 99 356 c 0,3,4
 124 356 124 356 142.5 339.5 c 128,-1,5
 161 323 161 323 161 300 c 128,-1,6
 161 277 161 277 142.5 260 c 128,-1,7
 124 243 124 243 99 243 c 0,8,9
 72 243 72 243 54 260 c 128,-1,0
 36 277 36 277 36 300 c 128,-1,1
EndSplineSet
EndChar

StartChar: cedilla
Encoding: 184 184 123
Width: 181
Flags: W
LayerCount: 2
Fore
SplineSet
0 -186 m 0,0,1
 0 -178 0 -178 5.5 -166 c 128,-1,2
 11 -154 11 -154 20 -154 c 0,3,4
 22 -154 22 -154 40 -161 c 128,-1,5
 58 -168 58 -168 77 -168 c 0,6,7
 127 -168 127 -168 127 -132 c 0,8,9
 127 -99 127 -99 73 -94 c 2,10,-1
 25 -89 l 1,11,-1
 51 9 l 1,12,-1
 102 9 l 1,13,-1
 84 -55 l 1,14,15
 132 -56 132 -56 156.5 -77.5 c 128,-1,16
 181 -99 181 -99 181 -130 c 0,17,18
 181 -162 181 -162 156.5 -188 c 128,-1,19
 132 -214 132 -214 82 -214 c 0,20,21
 54 -214 54 -214 27 -206.5 c 128,-1,22
 0 -199 0 -199 0 -186 c 0,0,1
EndSplineSet
EndChar

StartChar: uni00B9
Encoding: 277 185 124
Width: 184
Flags: W
LayerCount: 2
Fore
SplineSet
11 654 m 0,0,1
 11 672 11 672 24 680 c 2,2,-1
 92 727 l 2,3,4
 99 732 99 732 108 732 c 0,5,6
 120 732 120 732 130 725.5 c 128,-1,7
 140 719 140 719 140 709 c 2,8,-1
 140 363 l 2,9,10
 140 340 140 340 104 340 c 0,11,12
 67 340 67 340 67 363 c 2,13,-1
 67 645 l 1,14,-1
 48 630 l 1,15,16
 41 626 41 626 35 626 c 0,17,18
 25 626 25 626 18 634.5 c 128,-1,19
 11 643 11 643 11 654 c 0,0,1
EndSplineSet
EndChar

StartChar: ordmasculine
Encoding: 278 186 125
Width: 339
Flags: W
LayerCount: 2
Fore
SplineSet
32 563 m 2,0,-1
 32 622 l 2,1,2
 32 675 32 675 72 714 c 128,-1,3
 112 753 112 753 169 753 c 0,4,5
 225 753 225 753 266 714.5 c 128,-1,6
 307 676 307 676 307 622 c 2,7,-1
 307 563 l 2,8,9
 307 511 307 511 265.5 471.5 c 128,-1,10
 224 432 224 432 169 432 c 128,-1,11
 114 432 114 432 73 471.5 c 128,-1,12
 32 511 32 511 32 563 c 2,0,-1
105 563 m 2,13,14
 105 537 105 537 124 517 c 128,-1,15
 143 497 143 497 169 497 c 128,-1,16
 195 497 195 497 214 517 c 128,-1,17
 233 537 233 537 233 563 c 2,18,-1
 233 622 l 2,19,20
 233 647 233 647 214 667 c 128,-1,21
 195 687 195 687 169 687 c 128,-1,22
 143 687 143 687 124 667 c 128,-1,23
 105 647 105 647 105 622 c 2,24,-1
 105 563 l 2,13,14
EndSplineSet
EndChar

StartChar: guillemotright
Encoding: 279 187 126
Width: 465
Flags: W
LayerCount: 2
Fore
SplineSet
38 127 m 0,0,1
 38 134 38 134 41 138 c 2,2,-1
 115 277 l 1,3,-1
 41 416 l 2,4,5
 38 422 38 422 38 428 c 0,6,7
 38 446 38 446 57.5 463 c 128,-1,8
 77 480 77 480 101 480 c 128,-1,9
 125 480 125 480 133 466 c 2,10,-1
 212 318 l 1,11,12
 230 287 230 287 230 276 c 0,13,14
 230 267 230 267 212 236 c 1,15,-1
 133 89 l 2,16,17
 126 74 126 74 102 74 c 0,18,19
 77 74 77 74 57.5 91.5 c 128,-1,20
 38 109 38 109 38 127 c 0,0,1
244 127 m 0,21,22
 244 134 244 134 247 138 c 2,23,-1
 322 277 l 1,24,-1
 247 416 l 2,25,26
 244 422 244 422 244 428 c 0,27,28
 244 445 244 445 264 462.5 c 128,-1,29
 284 480 284 480 308 480 c 128,-1,30
 332 480 332 480 340 466 c 2,31,-1
 419 318 l 2,32,33
 437 284 437 284 437 276 c 0,34,35
 437 270 437 270 435 265 c 128,-1,36
 433 260 433 260 428 250 c 1,37,-1
 419 236 l 1,38,-1
 340 89 l 2,39,40
 331 74 331 74 309 74 c 0,41,42
 284 74 284 74 264 91.5 c 128,-1,43
 244 109 244 109 244 127 c 0,21,22
EndSplineSet
EndChar

StartChar: onequarter
Encoding: 280 188 127
Width: 641
Flags: W
LayerCount: 2
Fore
SplineSet
27 654 m 0,0,1
 27 672 27 672 40 680 c 2,2,-1
 108 727 l 2,3,4
 115 732 115 732 124 732 c 0,5,6
 136 732 136 732 146 725.5 c 128,-1,7
 156 719 156 719 156 709 c 2,8,-1
 156 363 l 2,9,10
 156 340 156 340 120 340 c 0,11,12
 83 340 83 340 83 363 c 2,13,-1
 83 645 l 1,14,-1
 64 630 l 1,15,16
 57 626 57 626 51 626 c 0,17,18
 41 626 41 626 34 634.5 c 128,-1,19
 27 643 27 643 27 654 c 0,0,1
74 2 m 0,20,21
 74 10 74 10 78 17 c 2,22,-1
 445 752 l 2,23,24
 453 770 453 770 475 770 c 0,25,26
 491 770 491 770 504 759 c 128,-1,27
 517 748 517 748 517 732 c 0,28,29
 517 724 517 724 514 716 c 2,30,-1
 147 -16 l 2,31,32
 138 -35 138 -35 113 -35 c 0,33,34
 96 -35 96 -35 85 -23.5 c 128,-1,35
 74 -12 74 -12 74 2 c 0,20,21
331 110 m 0,36,37
 331 117 331 117 335 124 c 2,38,-1
 474 372 l 2,39,40
 484 391 484 391 505 391 c 0,41,42
 516 391 516 391 528.5 383 c 128,-1,43
 541 375 541 375 541 364 c 0,44,45
 541 358 541 358 538 354 c 2,46,-1
 424 152 l 1,47,-1
 497 152 l 1,48,-1
 497 204 l 2,49,50
 497 227 497 227 533 227 c 0,51,52
 570 227 570 227 570 204 c 2,53,-1
 570 152 l 1,54,-1
 597 152 l 2,55,56
 620 152 620 152 620 118 c 0,57,58
 620 106 620 106 613 95.5 c 128,-1,59
 606 85 606 85 597 85 c 2,60,-1
 570 85 l 1,61,-1
 570 23 l 2,62,63
 570 0 570 0 533 0 c 0,64,65
 497 0 497 0 497 23 c 2,66,-1
 497 85 l 1,67,-1
 356 85 l 2,68,69
 331 85 331 85 331 110 c 0,36,37
EndSplineSet
EndChar

StartChar: onehalf
Encoding: 281 189 128
Width: 638
Flags: W
LayerCount: 2
Fore
SplineSet
24 654 m 0,0,1
 24 672 24 672 37 680 c 2,2,-1
 105 727 l 2,3,4
 112 732 112 732 121 732 c 0,5,6
 133 732 133 732 143 725.5 c 128,-1,7
 153 719 153 719 153 709 c 2,8,-1
 153 363 l 2,9,10
 153 340 153 340 117 340 c 0,11,12
 80 340 80 340 80 363 c 2,13,-1
 80 645 l 1,14,-1
 61 630 l 1,15,16
 54 626 54 626 48 626 c 0,17,18
 38 626 38 626 31 634.5 c 128,-1,19
 24 643 24 643 24 654 c 0,0,1
55 2 m 0,20,21
 55 10 55 10 59 17 c 2,22,-1
 426 752 l 2,23,24
 434 770 434 770 456 770 c 0,25,26
 472 770 472 770 485 759 c 128,-1,27
 498 748 498 748 498 732 c 0,28,29
 498 724 498 724 495 716 c 2,30,-1
 128 -16 l 2,31,32
 118 -35 118 -35 94 -35 c 0,33,34
 77 -35 77 -35 66 -23.5 c 128,-1,35
 55 -12 55 -12 55 2 c 0,20,21
348 23 m 2,36,-1
 348 75 l 2,37,38
 348 103 348 103 377.5 132 c 128,-1,39
 407 161 407 161 442 181.5 c 128,-1,40
 477 202 477 202 506.5 228.5 c 128,-1,41
 536 255 536 255 536 280 c 0,42,43
 536 298 536 298 522 311.5 c 128,-1,44
 508 325 508 325 480 325 c 0,45,46
 427 325 427 325 427 280 c 0,47,48
 427 270 427 270 416 261.5 c 128,-1,49
 405 253 405 253 388 253 c 0,50,51
 356 253 356 253 356 291 c 0,52,53
 356 336 356 336 392.5 363.5 c 128,-1,54
 429 391 429 391 479 391 c 0,55,56
 532 391 532 391 570.5 361 c 128,-1,57
 609 331 609 331 609 282 c 0,58,59
 609 244 609 244 580 210.5 c 128,-1,60
 551 177 551 177 516 157.5 c 128,-1,61
 481 138 481 138 452 116.5 c 128,-1,62
 423 95 423 95 423 78 c 2,63,-1
 423 64 l 1,64,-1
 587 64 l 2,65,66
 596 64 596 64 603 54.5 c 128,-1,67
 610 45 610 45 610 32 c 0,68,69
 610 20 610 20 603 10 c 128,-1,70
 596 0 596 0 587 0 c 2,71,-1
 380 0 l 2,72,73
 369 0 369 0 358.5 6.5 c 128,-1,74
 348 13 348 13 348 23 c 2,36,-1
EndSplineSet
EndChar

StartChar: threequarters
Encoding: 282 190 129
Width: 774
Flags: W
LayerCount: 2
Fore
SplineSet
29 435 m 0,0,1
 29 451 29 451 36.5 457 c 128,-1,2
 44 463 44 463 63 463 c 0,3,4
 85 463 85 463 92.5 457 c 128,-1,5
 100 451 100 451 100 438 c 0,6,7
 100 401 100 401 163 401 c 0,8,9
 197 401 197 401 212.5 414 c 128,-1,10
 228 427 228 427 228 456 c 2,11,-1
 228 466 l 2,12,13
 228 515 228 515 162 515 c 0,14,15
 139 515 139 515 139 543 c 128,-1,16
 139 571 139 571 162 572 c 0,17,18
 189 573 189 573 203 583 c 128,-1,19
 217 593 217 593 217 623 c 0,20,21
 217 669 217 669 164 669 c 0,22,23
 110 669 110 669 110 634 c 0,24,25
 110 607 110 607 76 607 c 0,26,27
 52 607 52 607 45 613 c 128,-1,28
 38 619 38 619 38 637 c 0,29,30
 38 673 38 673 68 702 c 128,-1,31
 98 731 98 731 164 731 c 0,32,33
 286 731 286 731 286 635 c 0,34,35
 286 567 286 567 240 546 c 1,36,37
 300 525 300 525 300 466 c 2,38,-1
 300 456 l 2,39,40
 300 394 300 394 262 365.5 c 128,-1,41
 224 337 224 337 161 337 c 0,42,43
 97 337 97 337 63 367 c 128,-1,44
 29 397 29 397 29 435 c 0,0,1
201 2 m 0,45,46
 201 10 201 10 205 17 c 2,47,-1
 572 752 l 2,48,49
 580 770 580 770 602 770 c 0,50,51
 618 770 618 770 631 759 c 128,-1,52
 644 748 644 748 644 732 c 0,53,54
 644 724 644 724 641 716 c 2,55,-1
 274 -16 l 2,56,57
 264 -35 264 -35 240 -35 c 0,58,59
 223 -35 223 -35 212 -23.5 c 128,-1,60
 201 -12 201 -12 201 2 c 0,45,46
464 110 m 0,61,62
 464 117 464 117 468 124 c 2,63,-1
 607 372 l 2,64,65
 617 391 617 391 638 391 c 0,66,67
 649 391 649 391 661.5 383 c 128,-1,68
 674 375 674 375 674 364 c 0,69,70
 674 358 674 358 671 354 c 2,71,-1
 557 152 l 1,72,-1
 630 152 l 1,73,-1
 630 204 l 2,74,75
 630 227 630 227 666 227 c 0,76,77
 703 227 703 227 703 204 c 2,78,-1
 703 152 l 1,79,-1
 730 152 l 2,80,81
 753 152 753 152 753 118 c 0,82,83
 753 106 753 106 746 95.5 c 128,-1,84
 739 85 739 85 730 85 c 2,85,-1
 703 85 l 1,86,-1
 703 23 l 2,87,88
 703 0 703 0 666 0 c 0,89,90
 630 0 630 0 630 23 c 2,91,-1
 630 85 l 1,92,-1
 489 85 l 2,93,94
 464 85 464 85 464 110 c 0,61,62
EndSplineSet
EndChar

StartChar: questiondown
Encoding: 283 191 130
Width: 421
Flags: W
LayerCount: 2
Fore
SplineSet
27 166 m 0,0,1
 27 197 27 197 36 225.5 c 128,-1,2
 45 254 45 254 62 277.5 c 128,-1,3
 79 301 79 301 92.5 316.5 c 128,-1,4
 106 332 106 332 126.5 350.5 c 128,-1,5
 147 369 147 369 151 373 c 0,6,7
 181 400 181 400 188 428 c 128,-1,8
 195 456 195 456 195 513 c 0,9,10
 195 544 195 544 236 544 c 0,11,12
 257 544 257 544 266 534 c 128,-1,13
 275 524 275 524 275 498 c 0,14,15
 275 430 275 430 260.5 394.5 c 128,-1,16
 246 359 246 359 221 334 c 0,17,18
 214 327 214 327 190 306 c 128,-1,19
 166 285 166 285 153 271 c 128,-1,20
 140 257 140 257 127.5 231 c 128,-1,21
 115 205 115 205 115 176 c 0,22,23
 115 128 115 128 145.5 101.5 c 128,-1,24
 176 75 176 75 230 75 c 0,25,26
 262 75 262 75 284 84.5 c 128,-1,27
 306 94 306 94 315 106 c 128,-1,28
 324 118 324 118 335 127.5 c 128,-1,29
 346 137 346 137 358 137 c 0,30,31
 373 137 373 137 386 126 c 128,-1,32
 399 115 399 115 399 96 c 0,33,34
 399 60 399 60 350.5 27 c 128,-1,35
 302 -6 302 -6 226 -6 c 0,36,37
 134 -6 134 -6 80.5 42.5 c 128,-1,38
 27 91 27 91 27 166 c 0,0,1
176 678 m 0,39,40
 176 702 176 702 193.5 720 c 128,-1,41
 211 738 211 738 235 738 c 0,42,43
 260 738 260 738 277.5 720 c 128,-1,44
 295 702 295 702 295 678 c 0,45,46
 295 653 295 653 277.5 635.5 c 128,-1,47
 260 618 260 618 235 618 c 0,48,49
 211 618 211 618 193.5 635.5 c 128,-1,50
 176 653 176 653 176 678 c 0,39,40
EndSplineSet
EndChar

StartChar: Agrave
Encoding: 284 192 131
Width: 562
Flags: W
LayerCount: 2
Fore
SplineSet
14 44 m 0,0,1
 14 50 14 50 15 53 c 2,2,-1
 214 701 l 2,3,4
 226 737 226 737 281 737 c 0,5,6
 337 737 337 737 349 701 c 2,7,-1
 547 53 l 2,8,9
 549 47 549 47 549 44 c 0,10,11
 549 26 549 26 527.5 13 c 128,-1,12
 506 0 506 0 482 0 c 0,13,14
 453 0 453 0 446 22 c 2,15,-1
 405 164 l 1,16,-1
 158 164 l 1,17,-1
 117 22 l 2,18,19
 110 0 110 0 80 0 c 0,20,21
 56 0 56 0 35 13 c 128,-1,22
 14 26 14 26 14 44 c 0,0,1
178 915 m 0,23,24
 178 930 178 930 188 943 c 128,-1,25
 198 956 198 956 212 956 c 0,26,27
 215 956 215 956 223 954 c 1,28,-1
 347 891 l 2,29,30
 362 883 362 883 362 865 c 0,31,32
 362 850 362 850 352 837 c 128,-1,33
 342 824 342 824 328 824 c 0,34,35
 321 824 321 824 315 827 c 2,36,-1
 194 888 l 2,37,38
 178 895 178 895 178 915 c 0,23,24
181 249 m 1,39,-1
 381 249 l 1,40,-1
 281 592 l 1,41,-1
 181 249 l 1,39,-1
EndSplineSet
EndChar

StartChar: Aacute
Encoding: 193 193 132
Width: 562
Flags: W
LayerCount: 2
Fore
SplineSet
14 44 m 0,0,1
 14 50 14 50 15 53 c 2,2,-1
 214 701 l 2,3,4
 226 737 226 737 281 737 c 0,5,6
 337 737 337 737 349 701 c 2,7,-1
 547 53 l 2,8,9
 549 47 549 47 549 44 c 0,10,11
 549 26 549 26 527.5 13 c 128,-1,12
 506 0 506 0 482 0 c 0,13,14
 453 0 453 0 446 22 c 2,15,-1
 405 164 l 1,16,-1
 158 164 l 1,17,-1
 117 22 l 2,18,19
 110 0 110 0 80 0 c 0,20,21
 56 0 56 0 35 13 c 128,-1,22
 14 26 14 26 14 44 c 0,0,1
181 249 m 1,23,-1
 381 249 l 1,24,-1
 281 592 l 1,25,-1
 181 249 l 1,23,-1
210 865 m 0,26,27
 210 883 210 883 225 891 c 2,28,-1
 349 954 l 1,29,30
 357 956 357 956 360 956 c 0,31,32
 374 956 374 956 384 943 c 128,-1,33
 394 930 394 930 394 915 c 0,34,35
 394 895 394 895 378 888 c 2,36,-1
 257 827 l 2,37,38
 251 824 251 824 245 824 c 0,39,40
 231 824 231 824 220.5 837 c 128,-1,41
 210 850 210 850 210 865 c 0,26,27
EndSplineSet
EndChar

StartChar: Acircumflex
Encoding: 194 194 133
Width: 562
Flags: W
LayerCount: 2
Fore
SplineSet
14 44 m 0,0,1
 14 50 14 50 15 53 c 2,2,-1
 214 701 l 2,3,4
 226 737 226 737 281 737 c 0,5,6
 337 737 337 737 349 701 c 2,7,-1
 547 53 l 2,8,9
 549 47 549 47 549 44 c 0,10,11
 549 26 549 26 527.5 13 c 128,-1,12
 506 0 506 0 482 0 c 0,13,14
 453 0 453 0 446 22 c 2,15,-1
 405 164 l 1,16,-1
 158 164 l 1,17,-1
 117 22 l 2,18,19
 110 0 110 0 80 0 c 0,20,21
 56 0 56 0 35 13 c 128,-1,22
 14 26 14 26 14 44 c 0,0,1
141 864 m 0,23,24
 141 885 141 885 159 895 c 2,25,-1
 263 951 l 2,26,27
 273 956 273 956 280 956 c 0,28,29
 289 956 289 956 297 951 c 2,30,-1
 401 896 l 1,31,32
 420 884 420 884 420 863 c 0,33,34
 420 850 420 850 412.5 839.5 c 128,-1,35
 405 829 405 829 394 829 c 0,36,37
 392 829 392 829 388 830 c 1,38,39
 386 832 386 832 384 832 c 2,40,-1
 280 888 l 1,41,-1
 176 832 l 2,42,43
 172 829 172 829 167 829 c 0,44,45
 156 829 156 829 148.5 839.5 c 128,-1,46
 141 850 141 850 141 864 c 0,23,24
181 249 m 1,47,-1
 381 249 l 1,48,-1
 281 592 l 1,49,-1
 181 249 l 1,47,-1
EndSplineSet
EndChar

StartChar: Atilde
Encoding: 285 195 134
Width: 562
Flags: W
LayerCount: 2
Fore
SplineSet
14 44 m 0,0,1
 14 50 14 50 15 53 c 2,2,-1
 214 701 l 2,3,4
 226 737 226 737 281 737 c 0,5,6
 337 737 337 737 349 701 c 2,7,-1
 547 53 l 2,8,9
 549 47 549 47 549 44 c 0,10,11
 549 26 549 26 527.5 13 c 128,-1,12
 506 0 506 0 482 0 c 0,13,14
 453 0 453 0 446 22 c 2,15,-1
 405 164 l 1,16,-1
 158 164 l 1,17,-1
 117 22 l 2,18,19
 110 0 110 0 80 0 c 0,20,21
 56 0 56 0 35 13 c 128,-1,22
 14 26 14 26 14 44 c 0,0,1
116 883 m 0,23,24
 116 917 116 917 145 932 c 128,-1,25
 174 947 174 947 203 947 c 0,26,27
 231 947 231 947 272.5 931.5 c 128,-1,28
 314 916 314 916 341 916 c 0,29,30
 365 916 365 916 388 928.5 c 128,-1,31
 411 941 411 941 418 941 c 0,32,33
 432 941 432 941 439 929 c 128,-1,34
 446 917 446 917 446 907 c 0,35,36
 446 871 446 871 418 857 c 128,-1,37
 390 843 390 843 361 843 c 0,38,39
 329 843 329 843 288 858.5 c 128,-1,40
 247 874 247 874 222 874 c 0,41,42
 198 874 198 874 174.5 860.5 c 128,-1,43
 151 847 151 847 144 847 c 0,44,45
 130 847 130 847 123 859.5 c 128,-1,46
 116 872 116 872 116 883 c 0,23,24
181 249 m 1,47,-1
 381 249 l 1,48,-1
 281 592 l 1,49,-1
 181 249 l 1,47,-1
EndSplineSet
EndChar

StartChar: Adieresis
Encoding: 196 196 135
Width: 562
Flags: W
LayerCount: 2
Fore
SplineSet
14 44 m 0,0,1
 14 50 14 50 15 53 c 2,2,-1
 214 701 l 2,3,4
 226 737 226 737 281 737 c 0,5,6
 337 737 337 737 349 701 c 2,7,-1
 547 53 l 2,8,9
 549 47 549 47 549 44 c 0,10,11
 549 26 549 26 527.5 13 c 128,-1,12
 506 0 506 0 482 0 c 0,13,14
 453 0 453 0 446 22 c 2,15,-1
 405 164 l 1,16,-1
 158 164 l 1,17,-1
 117 22 l 2,18,19
 110 0 110 0 80 0 c 0,20,21
 56 0 56 0 35 13 c 128,-1,22
 14 26 14 26 14 44 c 0,0,1
166 877 m 128,-1,24
 166 896 166 896 179.5 909.5 c 128,-1,25
 193 923 193 923 212 923 c 128,-1,26
 231 923 231 923 243.5 909.5 c 128,-1,27
 256 896 256 896 256 877 c 128,-1,28
 256 858 256 858 243 844 c 128,-1,29
 230 830 230 830 212 830 c 0,30,31
 193 830 193 830 179.5 844 c 128,-1,23
 166 858 166 858 166 877 c 128,-1,24
181 249 m 1,32,-1
 381 249 l 1,33,-1
 281 592 l 1,34,-1
 181 249 l 1,32,-1
306 877 m 128,-1,36
 306 896 306 896 319 909.5 c 128,-1,37
 332 923 332 923 351 923 c 128,-1,38
 370 923 370 923 383 909.5 c 128,-1,39
 396 896 396 896 396 877 c 128,-1,40
 396 858 396 858 383 844 c 128,-1,41
 370 830 370 830 351 830 c 128,-1,42
 332 830 332 830 319 844 c 128,-1,35
 306 858 306 858 306 877 c 128,-1,36
EndSplineSet
EndChar

StartChar: Aring
Encoding: 286 197 136
Width: 562
Flags: W
LayerCount: 2
Fore
SplineSet
14 44 m 0,0,1
 14 50 14 50 15 53 c 2,2,-1
 214 701 l 2,3,4
 226 737 226 737 281 737 c 0,5,6
 337 737 337 737 349 701 c 2,7,-1
 547 53 l 2,8,9
 549 47 549 47 549 44 c 0,10,11
 549 26 549 26 527.5 13 c 128,-1,12
 506 0 506 0 482 0 c 0,13,14
 453 0 453 0 446 22 c 2,15,-1
 405 164 l 1,16,-1
 158 164 l 1,17,-1
 117 22 l 2,18,19
 110 0 110 0 80 0 c 0,20,21
 56 0 56 0 35 13 c 128,-1,22
 14 26 14 26 14 44 c 0,0,1
181 249 m 1,23,-1
 381 249 l 1,24,-1
 281 592 l 1,25,-1
 181 249 l 1,23,-1
185 919 m 0,26,27
 185 957 185 957 213 986.5 c 128,-1,28
 241 1016 241 1016 280 1016 c 0,29,30
 318 1016 318 1016 347.5 986.5 c 128,-1,31
 377 957 377 957 377 919 c 0,32,33
 377 880 377 880 347.5 850 c 128,-1,34
 318 820 318 820 280 820 c 0,35,36
 241 820 241 820 213 850 c 128,-1,37
 185 880 185 880 185 919 c 0,26,27
229 918 m 0,38,39
 229 898 229 898 244.5 881 c 128,-1,40
 260 864 260 864 281 864 c 0,41,42
 301 864 301 864 316 880.5 c 128,-1,43
 331 897 331 897 331 918 c 0,44,45
 331 937 331 937 316 952.5 c 128,-1,46
 301 968 301 968 281 968 c 0,47,48
 260 968 260 968 244.5 952.5 c 128,-1,49
 229 937 229 937 229 918 c 0,38,39
EndSplineSet
EndChar

StartChar: AE
Encoding: 287 198 137
Width: 761
Flags: W
LayerCount: 2
Fore
SplineSet
63 40 m 2,0,-1
 63 508 l 2,1,2
 63 623 63 623 123.5 677 c 128,-1,3
 184 731 184 731 283 731 c 2,4,-1
 706 731 l 2,5,6
 723 731 723 731 732 717 c 128,-1,7
 741 703 741 703 741 685 c 0,8,9
 741 665 741 665 731.5 651 c 128,-1,10
 722 637 722 637 706 637 c 2,11,-1
 476 637 l 1,12,-1
 476 408 l 1,13,-1
 605 408 l 2,14,15
 621 408 621 408 630.5 395.5 c 128,-1,16
 640 383 640 383 640 365 c 0,17,18
 640 349 640 349 631 336.5 c 128,-1,19
 622 324 622 324 605 324 c 2,20,-1
 476 324 l 1,21,-1
 476 94 l 1,22,-1
 706 94 l 2,23,24
 722 94 722 94 731.5 80 c 128,-1,25
 741 66 741 66 741 46 c 0,26,27
 741 28 741 28 732 14 c 128,-1,28
 723 0 723 0 706 0 c 2,29,-1
 417 0 l 2,30,31
 398 0 398 0 384 9.5 c 128,-1,32
 370 19 370 19 370 35 c 2,33,-1
 370 324 l 1,34,-1
 163 324 l 1,35,-1
 163 40 l 2,36,37
 163 20 163 20 152.5 10 c 128,-1,38
 142 0 142 0 110 0 c 0,39,40
 63 0 63 0 63 40 c 2,0,-1
163 408 m 1,41,-1
 370 408 l 1,42,-1
 370 637 l 1,43,-1
 283 637 l 2,44,45
 163 637 163 637 163 508 c 2,46,-1
 163 408 l 1,41,-1
EndSplineSet
EndChar

StartChar: Ccedilla
Encoding: 199 199 138
Width: 540
Flags: W
LayerCount: 2
Fore
SplineSet
58 217 m 2,0,-1
 58 508 l 2,1,2
 58 623 58 623 119.5 677 c 128,-1,3
 181 731 181 731 280 731 c 0,4,5
 382 731 382 731 444.5 680.5 c 128,-1,6
 507 630 507 630 507 550 c 0,7,8
 507 518 507 518 495 506.5 c 128,-1,9
 483 495 483 495 454 495 c 0,10,11
 402 495 402 495 401 530 c 0,12,13
 395 637 395 637 284 637 c 0,14,15
 164 637 164 637 164 508 c 2,16,-1
 164 217 l 2,17,18
 164 88 164 88 286 88 c 0,19,20
 322 88 322 88 346 98.5 c 128,-1,21
 370 109 370 109 380.5 129 c 128,-1,22
 391 149 391 149 395 164 c 128,-1,23
 399 179 399 179 401 201 c 0,24,25
 404 236 404 236 453 236 c 0,26,27
 482 236 482 236 494.5 224.5 c 128,-1,28
 507 213 507 213 507 181 c 0,29,30
 507 106 507 106 455 55.5 c 128,-1,31
 403 5 403 5 315 -4 c 1,32,-1
 301 -55 l 1,33,34
 349 -56 349 -56 373.5 -77.5 c 128,-1,35
 398 -99 398 -99 398 -130 c 0,36,37
 398 -162 398 -162 373.5 -188 c 128,-1,38
 349 -214 349 -214 299 -214 c 0,39,40
 271 -214 271 -214 244 -206.5 c 128,-1,41
 217 -199 217 -199 217 -186 c 0,42,43
 217 -178 217 -178 222.5 -166 c 128,-1,44
 228 -154 228 -154 237 -154 c 0,45,46
 239 -154 239 -154 257 -161 c 128,-1,47
 275 -168 275 -168 294 -168 c 0,48,49
 344 -168 344 -168 344 -132 c 0,50,51
 344 -99 344 -99 290 -94 c 2,52,-1
 242 -89 l 1,53,-1
 264 -5 l 1,54,55
 171 -1 171 -1 114.5 53 c 128,-1,56
 58 107 58 107 58 217 c 2,0,-1
EndSplineSet
EndChar

StartChar: Egrave
Encoding: 288 200 139
Width: 523
Flags: W
LayerCount: 2
Fore
SplineSet
66 35 m 2,0,-1
 66 696 l 2,1,2
 66 712 66 712 80 721.5 c 128,-1,3
 94 731 94 731 113 731 c 2,4,-1
 469 731 l 2,5,6
 486 731 486 731 495 717 c 128,-1,7
 504 703 504 703 504 685 c 0,8,9
 504 665 504 665 494.5 651 c 128,-1,10
 485 637 485 637 469 637 c 2,11,-1
 172 637 l 1,12,-1
 172 408 l 1,13,-1
 326 408 l 2,14,15
 342 408 342 408 351.5 395.5 c 128,-1,16
 361 383 361 383 361 365 c 0,17,18
 361 349 361 349 352 336.5 c 128,-1,19
 343 324 343 324 326 324 c 2,20,-1
 172 324 l 1,21,-1
 172 94 l 1,22,-1
 469 94 l 2,23,24
 485 94 485 94 494.5 80 c 128,-1,25
 504 66 504 66 504 46 c 0,26,27
 504 28 504 28 495 14 c 128,-1,28
 486 0 486 0 469 0 c 2,29,-1
 113 0 l 2,30,31
 94 0 94 0 80 9.5 c 128,-1,32
 66 19 66 19 66 35 c 2,0,-1
189 915 m 0,33,34
 189 930 189 930 199 943 c 128,-1,35
 209 956 209 956 223 956 c 0,36,37
 226 956 226 956 234 954 c 1,38,-1
 358 891 l 2,39,40
 373 883 373 883 373 865 c 0,41,42
 373 850 373 850 363 837 c 128,-1,43
 353 824 353 824 339 824 c 0,44,45
 332 824 332 824 326 827 c 2,46,-1
 205 888 l 2,47,48
 189 895 189 895 189 915 c 0,33,34
EndSplineSet
EndChar

StartChar: Eacute
Encoding: 201 201 140
Width: 523
Flags: W
LayerCount: 2
Fore
SplineSet
66 35 m 2,0,-1
 66 696 l 2,1,2
 66 712 66 712 80 721.5 c 128,-1,3
 94 731 94 731 113 731 c 2,4,-1
 469 731 l 2,5,6
 486 731 486 731 495 717 c 128,-1,7
 504 703 504 703 504 685 c 0,8,9
 504 665 504 665 494.5 651 c 128,-1,10
 485 637 485 637 469 637 c 2,11,-1
 172 637 l 1,12,-1
 172 408 l 1,13,-1
 326 408 l 2,14,15
 342 408 342 408 351.5 395.5 c 128,-1,16
 361 383 361 383 361 365 c 0,17,18
 361 349 361 349 352 336.5 c 128,-1,19
 343 324 343 324 326 324 c 2,20,-1
 172 324 l 1,21,-1
 172 94 l 1,22,-1
 469 94 l 2,23,24
 485 94 485 94 494.5 80 c 128,-1,25
 504 66 504 66 504 46 c 0,26,27
 504 28 504 28 495 14 c 128,-1,28
 486 0 486 0 469 0 c 2,29,-1
 113 0 l 2,30,31
 94 0 94 0 80 9.5 c 128,-1,32
 66 19 66 19 66 35 c 2,0,-1
207 865 m 0,33,34
 207 883 207 883 222 891 c 2,35,-1
 346 954 l 1,36,37
 354 956 354 956 357 956 c 0,38,39
 371 956 371 956 381 943 c 128,-1,40
 391 930 391 930 391 915 c 0,41,42
 391 895 391 895 375 888 c 2,43,-1
 254 827 l 2,44,45
 248 824 248 824 242 824 c 0,46,47
 228 824 228 824 217.5 837 c 128,-1,48
 207 850 207 850 207 865 c 0,33,34
EndSplineSet
EndChar

StartChar: Ecircumflex
Encoding: 289 202 141
Width: 523
Flags: W
LayerCount: 2
Fore
SplineSet
66 35 m 2,0,-1
 66 696 l 2,1,2
 66 712 66 712 80 721.5 c 128,-1,3
 94 731 94 731 113 731 c 2,4,-1
 469 731 l 2,5,6
 486 731 486 731 495 717 c 128,-1,7
 504 703 504 703 504 685 c 0,8,9
 504 665 504 665 494.5 651 c 128,-1,10
 485 637 485 637 469 637 c 2,11,-1
 172 637 l 1,12,-1
 172 408 l 1,13,-1
 326 408 l 2,14,15
 342 408 342 408 351.5 395.5 c 128,-1,16
 361 383 361 383 361 365 c 0,17,18
 361 349 361 349 352 336.5 c 128,-1,19
 343 324 343 324 326 324 c 2,20,-1
 172 324 l 1,21,-1
 172 94 l 1,22,-1
 469 94 l 2,23,24
 485 94 485 94 494.5 80 c 128,-1,25
 504 66 504 66 504 46 c 0,26,27
 504 28 504 28 495 14 c 128,-1,28
 486 0 486 0 469 0 c 2,29,-1
 113 0 l 2,30,31
 94 0 94 0 80 9.5 c 128,-1,32
 66 19 66 19 66 35 c 2,0,-1
151 864 m 0,33,34
 151 885 151 885 169 895 c 2,35,-1
 273 951 l 2,36,37
 283 956 283 956 290 956 c 0,38,39
 299 956 299 956 307 951 c 2,40,-1
 411 896 l 1,41,42
 430 884 430 884 430 863 c 0,43,44
 430 850 430 850 422.5 839.5 c 128,-1,45
 415 829 415 829 404 829 c 0,46,47
 402 829 402 829 398 830 c 1,48,49
 396 832 396 832 394 832 c 2,50,-1
 290 888 l 1,51,-1
 186 832 l 2,52,53
 182 829 182 829 177 829 c 0,54,55
 166 829 166 829 158.5 839.5 c 128,-1,56
 151 850 151 850 151 864 c 0,33,34
EndSplineSet
EndChar

StartChar: Edieresis
Encoding: 203 203 142
Width: 523
Flags: W
LayerCount: 2
Fore
SplineSet
66 35 m 2,0,-1
 66 696 l 2,1,2
 66 712 66 712 80 721.5 c 128,-1,3
 94 731 94 731 113 731 c 2,4,-1
 469 731 l 2,5,6
 486 731 486 731 495 717 c 128,-1,7
 504 703 504 703 504 685 c 0,8,9
 504 665 504 665 494.5 651 c 128,-1,10
 485 637 485 637 469 637 c 2,11,-1
 172 637 l 1,12,-1
 172 408 l 1,13,-1
 326 408 l 2,14,15
 342 408 342 408 351.5 395.5 c 128,-1,16
 361 383 361 383 361 365 c 0,17,18
 361 349 361 349 352 336.5 c 128,-1,19
 343 324 343 324 326 324 c 2,20,-1
 172 324 l 1,21,-1
 172 94 l 1,22,-1
 469 94 l 2,23,24
 485 94 485 94 494.5 80 c 128,-1,25
 504 66 504 66 504 46 c 0,26,27
 504 28 504 28 495 14 c 128,-1,28
 486 0 486 0 469 0 c 2,29,-1
 113 0 l 2,30,31
 94 0 94 0 80 9.5 c 128,-1,32
 66 19 66 19 66 35 c 2,0,-1
171 877 m 128,-1,34
 171 896 171 896 184.5 909.5 c 128,-1,35
 198 923 198 923 217 923 c 128,-1,36
 236 923 236 923 248.5 909.5 c 128,-1,37
 261 896 261 896 261 877 c 128,-1,38
 261 858 261 858 248 844 c 128,-1,39
 235 830 235 830 217 830 c 0,40,41
 198 830 198 830 184.5 844 c 128,-1,33
 171 858 171 858 171 877 c 128,-1,34
311 877 m 128,-1,43
 311 896 311 896 324 909.5 c 128,-1,44
 337 923 337 923 356 923 c 128,-1,45
 375 923 375 923 388 909.5 c 128,-1,46
 401 896 401 896 401 877 c 128,-1,47
 401 858 401 858 388 844 c 128,-1,48
 375 830 375 830 356 830 c 128,-1,49
 337 830 337 830 324 844 c 128,-1,42
 311 858 311 858 311 877 c 128,-1,43
EndSplineSet
EndChar

StartChar: Igrave
Encoding: 290 204 143
Width: 238
Flags: W
LayerCount: 2
Fore
SplineSet
22 915 m 0,0,1
 22 930 22 930 32 943 c 128,-1,2
 42 956 42 956 56 956 c 0,3,4
 59 956 59 956 67 954 c 1,5,-1
 191 891 l 2,6,7
 206 883 206 883 206 865 c 0,8,9
 206 850 206 850 196 837 c 128,-1,10
 186 824 186 824 172 824 c 0,11,12
 165 824 165 824 159 827 c 2,13,-1
 38 888 l 2,14,15
 22 895 22 895 22 915 c 0,0,1
66 35 m 2,16,-1
 66 697 l 2,17,18
 66 714 66 714 81.5 722.5 c 128,-1,19
 97 731 97 731 119 731 c 128,-1,20
 141 731 141 731 156.5 722.5 c 128,-1,21
 172 714 172 714 172 697 c 2,22,-1
 172 35 l 2,23,24
 172 19 172 19 156.5 9.5 c 128,-1,25
 141 0 141 0 119 0 c 0,26,27
 98 0 98 0 82 9.5 c 128,-1,28
 66 19 66 19 66 35 c 2,16,-1
EndSplineSet
EndChar

StartChar: Iacute
Encoding: 205 205 144
Width: 238
Flags: W
LayerCount: 2
Fore
SplineSet
32 865 m 0,0,1
 32 883 32 883 47 891 c 2,2,-1
 171 954 l 1,3,4
 179 956 179 956 182 956 c 0,5,6
 196 956 196 956 206 943 c 128,-1,7
 216 930 216 930 216 915 c 0,8,9
 216 895 216 895 200 888 c 2,10,-1
 79 827 l 2,11,12
 73 824 73 824 67 824 c 0,13,14
 53 824 53 824 42.5 837 c 128,-1,15
 32 850 32 850 32 865 c 0,0,1
66 35 m 2,16,-1
 66 697 l 2,17,18
 66 714 66 714 81.5 722.5 c 128,-1,19
 97 731 97 731 119 731 c 128,-1,20
 141 731 141 731 156.5 722.5 c 128,-1,21
 172 714 172 714 172 697 c 2,22,-1
 172 35 l 2,23,24
 172 19 172 19 156.5 9.5 c 128,-1,25
 141 0 141 0 119 0 c 0,26,27
 98 0 98 0 82 9.5 c 128,-1,28
 66 19 66 19 66 35 c 2,16,-1
EndSplineSet
EndChar

StartChar: Icircumflex
Encoding: 206 206 145
Width: 238
Flags: W
LayerCount: 2
Fore
SplineSet
-19 864 m 0,0,1
 -19 885 -19 885 -1 895 c 2,2,-1
 103 951 l 2,3,4
 113 956 113 956 120 956 c 0,5,6
 129 956 129 956 137 951 c 2,7,-1
 241 896 l 1,8,9
 260 884 260 884 260 863 c 0,10,11
 260 850 260 850 252.5 839.5 c 128,-1,12
 245 829 245 829 234 829 c 0,13,14
 232 829 232 829 228 830 c 1,15,16
 226 832 226 832 224 832 c 2,17,-1
 120 888 l 1,18,-1
 16 832 l 2,19,20
 12 829 12 829 7 829 c 0,21,22
 -4 829 -4 829 -11.5 839.5 c 128,-1,23
 -19 850 -19 850 -19 864 c 0,0,1
66 35 m 2,24,-1
 66 697 l 2,25,26
 66 714 66 714 81.5 722.5 c 128,-1,27
 97 731 97 731 119 731 c 128,-1,28
 141 731 141 731 156.5 722.5 c 128,-1,29
 172 714 172 714 172 697 c 2,30,-1
 172 35 l 2,31,32
 172 19 172 19 156.5 9.5 c 128,-1,33
 141 0 141 0 119 0 c 0,34,35
 98 0 98 0 82 9.5 c 128,-1,36
 66 19 66 19 66 35 c 2,24,-1
EndSplineSet
EndChar

StartChar: Idieresis
Encoding: 291 207 146
Width: 238
Flags: W
LayerCount: 2
Fore
SplineSet
5 877 m 128,-1,1
 5 896 5 896 18.5 909.5 c 128,-1,2
 32 923 32 923 51 923 c 128,-1,3
 70 923 70 923 82.5 909.5 c 128,-1,4
 95 896 95 896 95 877 c 128,-1,5
 95 858 95 858 82 844 c 128,-1,6
 69 830 69 830 51 830 c 0,7,8
 32 830 32 830 18.5 844 c 128,-1,0
 5 858 5 858 5 877 c 128,-1,1
66 35 m 2,9,-1
 66 697 l 2,10,11
 66 714 66 714 81.5 722.5 c 128,-1,12
 97 731 97 731 119 731 c 128,-1,13
 141 731 141 731 156.5 722.5 c 128,-1,14
 172 714 172 714 172 697 c 2,15,-1
 172 35 l 2,16,17
 172 19 172 19 156.5 9.5 c 128,-1,18
 141 0 141 0 119 0 c 0,19,20
 98 0 98 0 82 9.5 c 128,-1,21
 66 19 66 19 66 35 c 2,9,-1
145 877 m 128,-1,23
 145 896 145 896 158 909.5 c 128,-1,24
 171 923 171 923 190 923 c 128,-1,25
 209 923 209 923 222 909.5 c 128,-1,26
 235 896 235 896 235 877 c 128,-1,27
 235 858 235 858 222 844 c 128,-1,28
 209 830 209 830 190 830 c 128,-1,29
 171 830 171 830 158 844 c 128,-1,22
 145 858 145 858 145 877 c 128,-1,23
EndSplineSet
EndChar

StartChar: Eth
Encoding: 292 208 147
Width: 581
Flags: W
LayerCount: 2
Fore
SplineSet
-4 383 m 128,-1,1
 -4 399 -4 399 4 410.5 c 128,-1,2
 12 422 12 422 25 422 c 2,3,-1
 74 422 l 1,4,-1
 74 697 l 2,5,6
 74 711 74 711 87.5 721 c 128,-1,7
 101 731 101 731 121 731 c 2,8,-1
 298 731 l 2,9,10
 400 731 400 731 461.5 677 c 128,-1,11
 523 623 523 623 523 508 c 2,12,-1
 523 223 l 2,13,14
 523 108 523 108 461.5 54 c 128,-1,15
 400 0 400 0 298 0 c 2,16,-1
 121 0 l 2,17,18
 101 0 101 0 87.5 10 c 128,-1,19
 74 20 74 20 74 34 c 2,20,-1
 74 344 l 1,21,-1
 25 344 l 2,22,23
 12 344 12 344 4 355.5 c 128,-1,0
 -4 367 -4 367 -4 383 c 128,-1,1
180 94 m 1,24,-1
 298 94 l 2,25,26
 417 94 417 94 417 223 c 2,27,-1
 417 508 l 2,28,29
 417 637 417 637 298 637 c 2,30,-1
 180 637 l 1,31,-1
 180 422 l 1,32,-1
 271 422 l 2,33,34
 285 422 285 422 293 410.5 c 128,-1,35
 301 399 301 399 301 383 c 128,-1,36
 301 367 301 367 293 355.5 c 128,-1,37
 285 344 285 344 271 344 c 2,38,-1
 180 344 l 1,39,-1
 180 94 l 1,24,-1
EndSplineSet
EndChar

StartChar: Ntilde
Encoding: 293 209 148
Width: 593
Flags: W
LayerCount: 2
Fore
SplineSet
66 35 m 2,0,-1
 66 696 l 2,1,2
 66 731 66 731 119 731 c 0,3,4
 147 731 147 731 164 718.5 c 128,-1,5
 181 706 181 706 199 671 c 2,6,-1
 421 238 l 1,7,-1
 421 697 l 2,8,9
 421 714 421 714 436.5 722.5 c 128,-1,10
 452 731 452 731 474 731 c 128,-1,11
 496 731 496 731 511.5 722.5 c 128,-1,12
 527 714 527 714 527 697 c 2,13,-1
 527 35 l 2,14,15
 527 19 527 19 511.5 9.5 c 128,-1,16
 496 0 496 0 474 0 c 0,17,18
 432 0 432 0 411 39 c 2,19,-1
 172 494 l 1,20,-1
 172 35 l 2,21,22
 172 19 172 19 156.5 9.5 c 128,-1,23
 141 0 141 0 119 0 c 0,24,25
 98 0 98 0 82 9.5 c 128,-1,26
 66 19 66 19 66 35 c 2,0,-1
126 883 m 0,27,28
 126 917 126 917 155 932 c 128,-1,29
 184 947 184 947 213 947 c 0,30,31
 241 947 241 947 282.5 931.5 c 128,-1,32
 324 916 324 916 351 916 c 0,33,34
 375 916 375 916 398 928.5 c 128,-1,35
 421 941 421 941 428 941 c 0,36,37
 442 941 442 941 449 929 c 128,-1,38
 456 917 456 917 456 907 c 0,39,40
 456 871 456 871 428 857 c 128,-1,41
 400 843 400 843 371 843 c 0,42,43
 339 843 339 843 298 858.5 c 128,-1,44
 257 874 257 874 232 874 c 0,45,46
 208 874 208 874 184.5 860.5 c 128,-1,47
 161 847 161 847 154 847 c 0,48,49
 140 847 140 847 133 859.5 c 128,-1,50
 126 872 126 872 126 883 c 0,27,28
EndSplineSet
EndChar

StartChar: Ograve
Encoding: 294 210 149
Width: 566
Flags: W
LayerCount: 2
Fore
SplineSet
59 217 m 2,0,-1
 59 508 l 2,1,2
 59 623 59 623 120 677 c 128,-1,3
 181 731 181 731 283 731 c 128,-1,4
 385 731 385 731 446.5 677 c 128,-1,5
 508 623 508 623 508 508 c 2,6,-1
 508 217 l 2,7,8
 508 102 508 102 446.5 48 c 128,-1,9
 385 -6 385 -6 283 -6 c 128,-1,10
 181 -6 181 -6 120 48 c 128,-1,11
 59 102 59 102 59 217 c 2,0,-1
165 217 m 2,12,13
 165 88 165 88 283 88 c 0,14,15
 340 88 340 88 371 120 c 128,-1,16
 402 152 402 152 402 217 c 2,17,-1
 402 508 l 2,18,19
 402 573 402 573 371 605 c 128,-1,20
 340 637 340 637 283 637 c 0,21,22
 165 637 165 637 165 508 c 2,23,-1
 165 217 l 2,12,13
182 915 m 0,24,25
 182 930 182 930 192 943 c 128,-1,26
 202 956 202 956 216 956 c 0,27,28
 219 956 219 956 227 954 c 1,29,-1
 351 891 l 2,30,31
 366 883 366 883 366 865 c 0,32,33
 366 850 366 850 356 837 c 128,-1,34
 346 824 346 824 332 824 c 0,35,36
 325 824 325 824 319 827 c 2,37,-1
 198 888 l 2,38,39
 182 895 182 895 182 915 c 0,24,25
EndSplineSet
EndChar

StartChar: Oacute
Encoding: 211 211 150
Width: 566
Flags: W
LayerCount: 2
Fore
SplineSet
59 217 m 6,0,-1
 59 508 l 6,1,2
 59 623 59 623 120 677 c 132,-1,3
 181 731 181 731 283 731 c 132,-1,4
 385 731 385 731 446.5 677 c 132,-1,5
 508 623 508 623 508 508 c 6,6,-1
 508 217 l 6,7,8
 508 102 508 102 446.5 48 c 132,-1,9
 385 -6 385 -6 283 -6 c 132,-1,10
 181 -6 181 -6 120 48 c 132,-1,11
 59 102 59 102 59 217 c 6,0,-1
165 217 m 6,12,13
 165 88 165 88 283 88 c 4,14,15
 340 88 340 88 371 120 c 132,-1,16
 402 152 402 152 402 217 c 6,17,-1
 402 508 l 6,18,19
 402 573 402 573 371 605 c 132,-1,20
 340 637 340 637 283 637 c 4,21,22
 165 637 165 637 165 508 c 6,23,-1
 165 217 l 6,12,13
217 865 m 4,24,25
 217 883 217 883 232 891 c 6,26,-1
 356 954 l 5,27,28
 364 956 364 956 367 956 c 4,29,30
 381 956 381 956 391 943 c 132,-1,31
 401 930 401 930 401 915 c 4,32,33
 401 895 401 895 385 888 c 6,34,-1
 264 827 l 6,35,36
 258 824 258 824 252 824 c 4,37,38
 238 824 238 824 227.5 837 c 132,-1,39
 217 850 217 850 217 865 c 4,24,25
EndSplineSet
EndChar

StartChar: Ocircumflex
Encoding: 212 212 151
Width: 566
Flags: W
LayerCount: 2
Fore
SplineSet
59 217 m 2,0,-1
 59 508 l 2,1,2
 59 623 59 623 120 677 c 128,-1,3
 181 731 181 731 283 731 c 128,-1,4
 385 731 385 731 446.5 677 c 128,-1,5
 508 623 508 623 508 508 c 2,6,-1
 508 217 l 2,7,8
 508 102 508 102 446.5 48 c 128,-1,9
 385 -6 385 -6 283 -6 c 128,-1,10
 181 -6 181 -6 120 48 c 128,-1,11
 59 102 59 102 59 217 c 2,0,-1
143 864 m 0,12,13
 143 885 143 885 161 895 c 2,14,-1
 265 951 l 2,15,16
 275 956 275 956 282 956 c 0,17,18
 291 956 291 956 299 951 c 2,19,-1
 403 896 l 1,20,21
 422 884 422 884 422 863 c 0,22,23
 422 850 422 850 414.5 839.5 c 128,-1,24
 407 829 407 829 396 829 c 0,25,26
 394 829 394 829 390 830 c 1,27,28
 388 832 388 832 386 832 c 2,29,-1
 282 888 l 1,30,-1
 178 832 l 2,31,32
 174 829 174 829 169 829 c 0,33,34
 158 829 158 829 150.5 839.5 c 128,-1,35
 143 850 143 850 143 864 c 0,12,13
165 217 m 2,36,37
 165 88 165 88 283 88 c 0,38,39
 340 88 340 88 371 120 c 128,-1,40
 402 152 402 152 402 217 c 2,41,-1
 402 508 l 2,42,43
 402 573 402 573 371 605 c 128,-1,44
 340 637 340 637 283 637 c 0,45,46
 165 637 165 637 165 508 c 2,47,-1
 165 217 l 2,36,37
EndSplineSet
EndChar

StartChar: Otilde
Encoding: 295 213 152
Width: 566
Flags: W
LayerCount: 2
Fore
SplineSet
59 217 m 2,0,-1
 59 508 l 2,1,2
 59 623 59 623 120 677 c 128,-1,3
 181 731 181 731 283 731 c 128,-1,4
 385 731 385 731 446.5 677 c 128,-1,5
 508 623 508 623 508 508 c 2,6,-1
 508 217 l 2,7,8
 508 102 508 102 446.5 48 c 128,-1,9
 385 -6 385 -6 283 -6 c 128,-1,10
 181 -6 181 -6 120 48 c 128,-1,11
 59 102 59 102 59 217 c 2,0,-1
118 883 m 0,12,13
 118 917 118 917 147 932 c 128,-1,14
 176 947 176 947 205 947 c 0,15,16
 233 947 233 947 274.5 931.5 c 128,-1,17
 316 916 316 916 343 916 c 0,18,19
 367 916 367 916 390 928.5 c 128,-1,20
 413 941 413 941 420 941 c 0,21,22
 434 941 434 941 441 929 c 128,-1,23
 448 917 448 917 448 907 c 0,24,25
 448 871 448 871 420 857 c 128,-1,26
 392 843 392 843 363 843 c 0,27,28
 331 843 331 843 290 858.5 c 128,-1,29
 249 874 249 874 224 874 c 0,30,31
 200 874 200 874 176.5 860.5 c 128,-1,32
 153 847 153 847 146 847 c 0,33,34
 132 847 132 847 125 859.5 c 128,-1,35
 118 872 118 872 118 883 c 0,12,13
165 217 m 2,36,37
 165 88 165 88 283 88 c 0,38,39
 340 88 340 88 371 120 c 128,-1,40
 402 152 402 152 402 217 c 2,41,-1
 402 508 l 2,42,43
 402 573 402 573 371 605 c 128,-1,44
 340 637 340 637 283 637 c 0,45,46
 165 637 165 637 165 508 c 2,47,-1
 165 217 l 2,36,37
EndSplineSet
EndChar

StartChar: Odieresis
Encoding: 214 214 153
Width: 566
Flags: W
LayerCount: 2
Fore
SplineSet
59 217 m 2,0,-1
 59 508 l 2,1,2
 59 623 59 623 120 677 c 128,-1,3
 181 731 181 731 283 731 c 128,-1,4
 385 731 385 731 446.5 677 c 128,-1,5
 508 623 508 623 508 508 c 2,6,-1
 508 217 l 2,7,8
 508 102 508 102 446.5 48 c 128,-1,9
 385 -6 385 -6 283 -6 c 128,-1,10
 181 -6 181 -6 120 48 c 128,-1,11
 59 102 59 102 59 217 c 2,0,-1
165 217 m 2,12,13
 165 88 165 88 283 88 c 0,14,15
 340 88 340 88 371 120 c 128,-1,16
 402 152 402 152 402 217 c 2,17,-1
 402 508 l 2,18,19
 402 573 402 573 371 605 c 128,-1,20
 340 637 340 637 283 637 c 0,21,22
 165 637 165 637 165 508 c 2,23,-1
 165 217 l 2,12,13
169 877 m 128,-1,25
 169 896 169 896 182.5 909.5 c 128,-1,26
 196 923 196 923 215 923 c 128,-1,27
 234 923 234 923 246.5 909.5 c 128,-1,28
 259 896 259 896 259 877 c 128,-1,29
 259 858 259 858 246 844 c 128,-1,30
 233 830 233 830 215 830 c 0,31,32
 196 830 196 830 182.5 844 c 128,-1,24
 169 858 169 858 169 877 c 128,-1,25
309 877 m 128,-1,34
 309 896 309 896 322 909.5 c 128,-1,35
 335 923 335 923 354 923 c 128,-1,36
 373 923 373 923 386 909.5 c 128,-1,37
 399 896 399 896 399 877 c 128,-1,38
 399 858 399 858 386 844 c 128,-1,39
 373 830 373 830 354 830 c 128,-1,40
 335 830 335 830 322 844 c 128,-1,33
 309 858 309 858 309 877 c 128,-1,34
EndSplineSet
EndChar

StartChar: multiply
Encoding: 215 215 154
Width: 403
Flags: W
LayerCount: 2
Fore
SplineSet
48 171 m 0,0,1
 48 182 48 182 57 193 c 1,2,-1
 145 275 l 1,3,-1
 58 356 l 2,4,5
 49 365 49 365 49 379 c 0,6,7
 49 397 49 397 64 412.5 c 128,-1,8
 79 428 79 428 98 428 c 0,9,10
 111 428 111 428 120 419 c 2,11,-1
 201 337 l 1,12,-1
 283 419 l 2,13,14
 292 428 292 428 305 428 c 0,15,16
 324 428 324 428 339 412.5 c 128,-1,17
 354 397 354 397 354 379 c 0,18,19
 354 366 354 366 346 356 c 1,20,-1
 258 275 l 1,21,-1
 346 193 l 2,22,23
 356 183 356 183 356 170 c 0,24,25
 356 153 356 153 340 137 c 128,-1,26
 324 121 324 121 306 121 c 0,27,28
 293 121 293 121 284 130 c 2,29,-1
 201 213 l 1,30,-1
 119 130 l 2,31,32
 110 121 110 121 97 121 c 0,33,34
 80 121 80 121 64 137 c 128,-1,35
 48 153 48 153 48 171 c 0,0,1
EndSplineSet
EndChar

StartChar: Oslash
Encoding: 296 216 155
Width: 566
Flags: W
LayerCount: 2
Fore
SplineSet
59 217 m 2,0,-1
 59 508 l 2,1,2
 59 623 59 623 120 677 c 128,-1,3
 181 731 181 731 283 731 c 0,4,5
 358 731 358 731 410 702 c 1,6,-1
 435 752 l 2,7,8
 443 770 443 770 465 770 c 0,9,10
 481 770 481 770 494 759 c 128,-1,11
 507 748 507 748 507 732 c 0,12,13
 507 723 507 723 503 716 c 2,14,-1
 470 650 l 1,15,16
 508 595 508 595 508 508 c 2,17,-1
 508 217 l 2,18,19
 508 102 508 102 446.5 48 c 128,-1,20
 385 -6 385 -6 283 -6 c 0,21,22
 208 -6 208 -6 155 22 c 1,23,-1
 136 -16 l 2,24,25
 126 -35 126 -35 103 -35 c 0,26,27
 86 -35 86 -35 75 -23.5 c 128,-1,28
 64 -12 64 -12 64 2 c 0,29,30
 64 10 64 10 67 17 c 2,31,-1
 96 75 l 1,32,33
 59 131 59 131 59 217 c 2,0,-1
165 212 m 1,34,-1
 364 611 l 1,35,36
 333 637 333 637 283 637 c 0,37,38
 165 637 165 637 165 508 c 2,39,-1
 165 212 l 1,34,-1
201 114 m 1,40,41
 230 88 230 88 283 88 c 0,42,43
 340 88 340 88 371 120 c 128,-1,44
 402 152 402 152 402 217 c 2,45,-1
 402 514 l 1,46,-1
 201 114 l 1,40,41
EndSplineSet
EndChar

StartChar: Ugrave
Encoding: 297 217 156
Width: 583
Flags: W
LayerCount: 2
Fore
SplineSet
63 217 m 2,0,-1
 63 697 l 2,1,2
 63 714 63 714 78.5 722.5 c 128,-1,3
 94 731 94 731 116 731 c 128,-1,4
 138 731 138 731 153.5 722.5 c 128,-1,5
 169 714 169 714 169 697 c 2,6,-1
 169 217 l 2,7,8
 169 152 169 152 201 120 c 128,-1,9
 233 88 233 88 291 88 c 0,10,11
 414 88 414 88 414 217 c 2,12,-1
 414 697 l 2,13,14
 414 714 414 714 429.5 722.5 c 128,-1,15
 445 731 445 731 467 731 c 128,-1,16
 489 731 489 731 504.5 722.5 c 128,-1,17
 520 714 520 714 520 697 c 2,18,-1
 520 217 l 2,19,20
 520 102 520 102 457.5 48 c 128,-1,21
 395 -6 395 -6 291 -6 c 0,22,23
 188 -6 188 -6 125.5 48 c 128,-1,24
 63 102 63 102 63 217 c 2,0,-1
186 915 m 0,25,26
 186 930 186 930 196 943 c 128,-1,27
 206 956 206 956 220 956 c 0,28,29
 223 956 223 956 231 954 c 1,30,-1
 355 891 l 2,31,32
 370 883 370 883 370 865 c 0,33,34
 370 850 370 850 360 837 c 128,-1,35
 350 824 350 824 336 824 c 0,36,37
 329 824 329 824 323 827 c 2,38,-1
 202 888 l 2,39,40
 186 895 186 895 186 915 c 0,25,26
EndSplineSet
EndChar

StartChar: Uacute
Encoding: 218 218 157
Width: 583
Flags: W
LayerCount: 2
Fore
SplineSet
63 217 m 6,0,-1
 63 697 l 6,1,2
 63 714 63 714 78.5 722.5 c 132,-1,3
 94 731 94 731 116 731 c 132,-1,4
 138 731 138 731 153.5 722.5 c 132,-1,5
 169 714 169 714 169 697 c 6,6,-1
 169 217 l 6,7,8
 169 152 169 152 201 120 c 132,-1,9
 233 88 233 88 291 88 c 4,10,11
 414 88 414 88 414 217 c 6,12,-1
 414 697 l 6,13,14
 414 714 414 714 429.5 722.5 c 132,-1,15
 445 731 445 731 467 731 c 132,-1,16
 489 731 489 731 504.5 722.5 c 132,-1,17
 520 714 520 714 520 697 c 6,18,-1
 520 217 l 6,19,20
 520 102 520 102 457.5 48 c 132,-1,21
 395 -6 395 -6 291 -6 c 4,22,23
 188 -6 188 -6 125.5 48 c 132,-1,24
 63 102 63 102 63 217 c 6,0,-1
216 865 m 4,25,26
 216 883 216 883 231 891 c 6,27,-1
 355 954 l 5,28,29
 363 956 363 956 366 956 c 4,30,31
 380 956 380 956 390 943 c 132,-1,32
 400 930 400 930 400 915 c 4,33,34
 400 895 400 895 384 888 c 6,35,-1
 263 827 l 6,36,37
 257 824 257 824 251 824 c 4,38,39
 237 824 237 824 226.5 837 c 132,-1,40
 216 850 216 850 216 865 c 4,25,26
EndSplineSet
EndChar

StartChar: Ucircumflex
Encoding: 298 219 158
Width: 583
Flags: W
LayerCount: 2
Fore
SplineSet
63 217 m 2,0,-1
 63 697 l 2,1,2
 63 714 63 714 78.5 722.5 c 128,-1,3
 94 731 94 731 116 731 c 128,-1,4
 138 731 138 731 153.5 722.5 c 128,-1,5
 169 714 169 714 169 697 c 2,6,-1
 169 217 l 2,7,8
 169 152 169 152 201 120 c 128,-1,9
 233 88 233 88 291 88 c 0,10,11
 414 88 414 88 414 217 c 2,12,-1
 414 697 l 2,13,14
 414 714 414 714 429.5 722.5 c 128,-1,15
 445 731 445 731 467 731 c 128,-1,16
 489 731 489 731 504.5 722.5 c 128,-1,17
 520 714 520 714 520 697 c 2,18,-1
 520 217 l 2,19,20
 520 102 520 102 457.5 48 c 128,-1,21
 395 -6 395 -6 291 -6 c 0,22,23
 188 -6 188 -6 125.5 48 c 128,-1,24
 63 102 63 102 63 217 c 2,0,-1
148 864 m 0,25,26
 148 885 148 885 166 895 c 2,27,-1
 270 951 l 2,28,29
 280 956 280 956 287 956 c 0,30,31
 296 956 296 956 304 951 c 2,32,-1
 408 896 l 1,33,34
 427 884 427 884 427 863 c 0,35,36
 427 850 427 850 419.5 839.5 c 128,-1,37
 412 829 412 829 401 829 c 0,38,39
 399 829 399 829 395 830 c 1,40,41
 393 832 393 832 391 832 c 2,42,-1
 287 888 l 1,43,-1
 183 832 l 2,44,45
 178 829 178 829 174 829 c 0,46,47
 163 829 163 829 155.5 839.5 c 128,-1,48
 148 850 148 850 148 864 c 0,25,26
EndSplineSet
EndChar

StartChar: Udieresis
Encoding: 220 220 159
Width: 583
Flags: W
LayerCount: 2
Fore
SplineSet
63 217 m 2,0,-1
 63 697 l 2,1,2
 63 714 63 714 78.5 722.5 c 128,-1,3
 94 731 94 731 116 731 c 128,-1,4
 138 731 138 731 153.5 722.5 c 128,-1,5
 169 714 169 714 169 697 c 2,6,-1
 169 217 l 2,7,8
 169 152 169 152 201 120 c 128,-1,9
 233 88 233 88 291 88 c 0,10,11
 414 88 414 88 414 217 c 2,12,-1
 414 697 l 2,13,14
 414 714 414 714 429.5 722.5 c 128,-1,15
 445 731 445 731 467 731 c 128,-1,16
 489 731 489 731 504.5 722.5 c 128,-1,17
 520 714 520 714 520 697 c 2,18,-1
 520 217 l 2,19,20
 520 102 520 102 457.5 48 c 128,-1,21
 395 -6 395 -6 291 -6 c 0,22,23
 188 -6 188 -6 125.5 48 c 128,-1,24
 63 102 63 102 63 217 c 2,0,-1
176 877 m 128,-1,26
 176 896 176 896 189.5 909.5 c 128,-1,27
 203 923 203 923 222 923 c 128,-1,28
 241 923 241 923 253.5 909.5 c 128,-1,29
 266 896 266 896 266 877 c 128,-1,30
 266 858 266 858 253 844 c 128,-1,31
 240 830 240 830 222 830 c 0,32,33
 203 830 203 830 189.5 844 c 128,-1,25
 176 858 176 858 176 877 c 128,-1,26
316 877 m 128,-1,35
 316 896 316 896 329 909.5 c 128,-1,36
 342 923 342 923 361 923 c 128,-1,37
 380 923 380 923 393 909.5 c 128,-1,38
 406 896 406 896 406 877 c 128,-1,39
 406 858 406 858 393 844 c 128,-1,40
 380 830 380 830 361 830 c 128,-1,41
 342 830 342 830 329 844 c 128,-1,34
 316 858 316 858 316 877 c 128,-1,35
EndSplineSet
EndChar

StartChar: Yacute
Encoding: 221 221 160
Width: 558
Flags: W
LayerCount: 2
Fore
SplineSet
13 687 m 0,0,1
 13 705 13 705 35 718 c 128,-1,2
 57 731 57 731 80 731 c 0,3,4
 102 731 102 731 115 707 c 2,5,-1
 280 390 l 1,6,-1
 444 707 l 2,7,8
 456 731 456 731 479 731 c 128,-1,9
 502 731 502 731 523.5 718 c 128,-1,10
 545 705 545 705 545 687 c 0,11,12
 545 678 545 678 542 672 c 2,13,-1
 335 299 l 1,14,15
 333 293 333 293 333 288 c 2,16,-1
 333 35 l 2,17,18
 333 19 333 19 317 9.5 c 128,-1,19
 301 0 301 0 280 0 c 0,20,21
 258 0 258 0 242.5 9.5 c 128,-1,22
 227 19 227 19 227 35 c 2,23,-1
 227 288 l 2,24,25
 227 290 227 290 224 299 c 1,26,-1
 17 672 l 2,27,28
 13 680 13 680 13 687 c 0,0,1
199 865 m 0,29,30
 199 883 199 883 214 891 c 2,31,-1
 338 954 l 1,32,33
 346 956 346 956 349 956 c 0,34,35
 363 956 363 956 373 943 c 128,-1,36
 383 930 383 930 383 915 c 0,37,38
 383 895 383 895 367 888 c 2,39,-1
 246 827 l 2,40,41
 240 824 240 824 234 824 c 0,42,43
 220 824 220 824 209.5 837 c 128,-1,44
 199 850 199 850 199 865 c 0,29,30
EndSplineSet
EndChar

StartChar: Thorn
Encoding: 299 222 161
Width: 511
Flags: W
LayerCount: 2
Fore
SplineSet
66 35 m 2,0,-1
 66 707 l 2,1,2
 66 722 66 722 80.5 731.5 c 128,-1,3
 95 741 95 741 117 741 c 0,4,5
 141 741 141 741 156 731.5 c 128,-1,6
 171 722 171 722 171 706 c 2,7,-1
 171 545 l 1,8,9
 189 578 189 578 223.5 599.5 c 128,-1,10
 258 621 258 621 304 621 c 0,11,12
 377 621 377 621 428.5 569 c 128,-1,13
 480 517 480 517 480 438 c 2,14,-1
 480 317 l 2,15,16
 480 240 480 240 428 186 c 128,-1,17
 376 132 376 132 309 132 c 0,18,19
 264 132 264 132 225 155 c 128,-1,20
 186 178 186 178 171 211 c 1,21,-1
 171 35 l 2,22,23
 171 22 171 22 155.5 11 c 128,-1,24
 140 0 140 0 118 0 c 128,-1,25
 96 0 96 0 81 11 c 128,-1,26
 66 22 66 22 66 35 c 2,0,-1
171 310 m 2,27,28
 171 282 171 282 202 254 c 128,-1,29
 233 226 233 226 276 226 c 0,30,31
 315 226 315 226 345 251.5 c 128,-1,32
 375 277 375 277 375 317 c 2,33,-1
 375 438 l 2,34,35
 375 477 375 477 345 502.5 c 128,-1,36
 315 528 315 528 274 528 c 0,37,38
 232 528 232 528 201.5 503 c 128,-1,39
 171 478 171 478 171 438 c 2,40,-1
 171 310 l 2,27,28
EndSplineSet
EndChar

StartChar: germandbls
Encoding: 223 223 162
Width: 581
Flags: W
LayerCount: 2
Fore
SplineSet
4 435 m 0,0,1
 4 451 4 451 11.5 462.5 c 128,-1,2
 19 474 19 474 33 474 c 2,3,-1
 95 474 l 1,4,-1
 95 573 l 2,5,6
 95 658 95 658 140.5 713 c 128,-1,7
 186 768 186 768 280 768 c 0,8,9
 363 768 363 768 414.5 721.5 c 128,-1,10
 466 675 466 675 466 585 c 0,11,12
 466 531 466 531 447.5 485 c 128,-1,13
 429 439 429 439 397 423 c 1,14,15
 454 412 454 412 501.5 355 c 128,-1,16
 549 298 549 298 549 221 c 2,17,-1
 549 206 l 2,18,19
 549 99 549 99 489 39.5 c 128,-1,20
 429 -20 429 -20 343 -20 c 0,21,22
 241 -20 241 -20 241 34 c 0,23,24
 241 52 241 52 248.5 68 c 128,-1,25
 256 84 256 84 268 84 c 0,26,27
 272 84 272 84 295 76.5 c 128,-1,28
 318 69 318 69 340 69 c 0,29,30
 390 69 390 69 418.5 102.5 c 128,-1,31
 447 136 447 136 447 198 c 2,32,-1
 447 213 l 2,33,34
 447 278 447 278 412.5 317.5 c 128,-1,35
 378 357 378 357 314 368 c 0,36,37
 294 371 294 371 285.5 379.5 c 128,-1,38
 277 388 277 388 277 411 c 0,39,40
 277 426 277 426 282.5 434.5 c 128,-1,41
 288 443 288 443 294 445.5 c 128,-1,42
 300 448 300 448 315 451 c 0,43,44
 378 460 378 460 378 560 c 0,45,46
 378 675 378 675 287 675 c 0,47,48
 200 675 200 675 200 573 c 2,49,-1
 200 34 l 2,50,51
 200 19 200 19 184 9.5 c 128,-1,52
 168 0 168 0 146 0 c 128,-1,53
 124 0 124 0 109.5 9.5 c 128,-1,54
 95 19 95 19 95 34 c 2,55,-1
 95 396 l 1,56,-1
 33 396 l 2,57,58
 19 396 19 396 11.5 407 c 128,-1,59
 4 418 4 418 4 435 c 0,0,1
EndSplineSet
EndChar

StartChar: agrave
Encoding: 300 224 163
Width: 460
Flags: W
LayerCount: 2
Fore
SplineSet
25 124 m 0,0,1
 25 204 25 204 85 235.5 c 128,-1,2
 145 267 145 267 259 267 c 2,3,-1
 303 267 l 1,4,-1
 303 285 l 2,5,6
 303 329 303 329 278.5 361 c 128,-1,7
 254 393 254 393 204 393 c 0,8,9
 161 393 161 393 128.5 378 c 128,-1,10
 96 363 96 363 93 363 c 0,11,12
 76 363 76 363 65.5 379.5 c 128,-1,13
 55 396 55 396 55 416 c 0,14,15
 55 442 55 442 103.5 461 c 128,-1,16
 152 480 152 480 206 480 c 0,17,18
 309 480 309 480 358.5 424.5 c 128,-1,19
 408 369 408 369 408 286 c 2,20,-1
 408 35 l 2,21,22
 408 21 408 21 393.5 10.5 c 128,-1,23
 379 0 379 0 357 0 c 0,24,25
 337 0 337 0 323 10.5 c 128,-1,26
 309 21 309 21 309 35 c 2,27,-1
 309 70 l 1,28,29
 242 -8 242 -8 158 -8 c 0,30,31
 100 -8 100 -8 62.5 26 c 128,-1,32
 25 60 25 60 25 124 c 0,0,1
127 668 m 0,33,34
 127 683 127 683 137 696 c 128,-1,35
 147 709 147 709 161 709 c 0,36,37
 164 709 164 709 172 707 c 1,38,-1
 296 644 l 2,39,40
 311 636 311 636 311 618 c 0,41,42
 311 603 311 603 301 590 c 128,-1,43
 291 577 291 577 277 577 c 0,44,45
 270 577 270 577 264 580 c 2,46,-1
 143 641 l 2,47,48
 127 648 127 648 127 668 c 0,33,34
131 137 m 0,49,50
 131 105 131 105 149 88.5 c 128,-1,51
 167 72 167 72 196 72 c 0,52,53
 234 72 234 72 268.5 104 c 128,-1,54
 303 136 303 136 303 172 c 2,55,-1
 303 209 l 1,56,-1
 278 209 l 2,57,58
 233 209 233 209 204.5 205 c 128,-1,59
 176 201 176 201 153.5 184 c 128,-1,60
 131 167 131 167 131 137 c 0,49,50
EndSplineSet
EndChar

StartChar: aacute
Encoding: 225 225 164
Width: 460
Flags: W
LayerCount: 2
Fore
SplineSet
25 124 m 0,0,1
 25 204 25 204 85 235.5 c 128,-1,2
 145 267 145 267 259 267 c 2,3,-1
 303 267 l 1,4,-1
 303 285 l 2,5,6
 303 329 303 329 278.5 361 c 128,-1,7
 254 393 254 393 204 393 c 0,8,9
 161 393 161 393 128.5 378 c 128,-1,10
 96 363 96 363 93 363 c 0,11,12
 76 363 76 363 65.5 379.5 c 128,-1,13
 55 396 55 396 55 416 c 0,14,15
 55 442 55 442 103.5 461 c 128,-1,16
 152 480 152 480 206 480 c 0,17,18
 309 480 309 480 358.5 424.5 c 128,-1,19
 408 369 408 369 408 286 c 2,20,-1
 408 35 l 2,21,22
 408 21 408 21 393.5 10.5 c 128,-1,23
 379 0 379 0 357 0 c 0,24,25
 337 0 337 0 323 10.5 c 128,-1,26
 309 21 309 21 309 35 c 2,27,-1
 309 70 l 1,28,29
 242 -8 242 -8 158 -8 c 0,30,31
 100 -8 100 -8 62.5 26 c 128,-1,32
 25 60 25 60 25 124 c 0,0,1
131 137 m 0,33,34
 131 105 131 105 149 88.5 c 128,-1,35
 167 72 167 72 196 72 c 0,36,37
 234 72 234 72 268.5 104 c 128,-1,38
 303 136 303 136 303 172 c 2,39,-1
 303 209 l 1,40,-1
 278 209 l 2,41,42
 233 209 233 209 204.5 205 c 128,-1,43
 176 201 176 201 153.5 184 c 128,-1,44
 131 167 131 167 131 137 c 0,33,34
139 618 m 0,45,46
 139 636 139 636 154 644 c 2,47,-1
 278 707 l 1,48,49
 286 709 286 709 289 709 c 0,50,51
 303 709 303 709 313 696 c 128,-1,52
 323 683 323 683 323 668 c 0,53,54
 323 648 323 648 307 641 c 2,55,-1
 186 580 l 2,56,57
 180 577 180 577 174 577 c 0,58,59
 160 577 160 577 149.5 590 c 128,-1,60
 139 603 139 603 139 618 c 0,45,46
EndSplineSet
EndChar

StartChar: acircumflex
Encoding: 226 226 165
Width: 460
Flags: W
LayerCount: 2
Fore
SplineSet
25 124 m 0,0,1
 25 204 25 204 85 235.5 c 128,-1,2
 145 267 145 267 259 267 c 2,3,-1
 303 267 l 1,4,-1
 303 285 l 2,5,6
 303 329 303 329 278.5 361 c 128,-1,7
 254 393 254 393 204 393 c 0,8,9
 161 393 161 393 128.5 378 c 128,-1,10
 96 363 96 363 93 363 c 0,11,12
 76 363 76 363 65.5 379.5 c 128,-1,13
 55 396 55 396 55 416 c 0,14,15
 55 442 55 442 103.5 461 c 128,-1,16
 152 480 152 480 206 480 c 0,17,18
 309 480 309 480 358.5 424.5 c 128,-1,19
 408 369 408 369 408 286 c 2,20,-1
 408 35 l 2,21,22
 408 21 408 21 393.5 10.5 c 128,-1,23
 379 0 379 0 357 0 c 0,24,25
 337 0 337 0 323 10.5 c 128,-1,26
 309 21 309 21 309 35 c 2,27,-1
 309 70 l 1,28,29
 242 -8 242 -8 158 -8 c 0,30,31
 100 -8 100 -8 62.5 26 c 128,-1,32
 25 60 25 60 25 124 c 0,0,1
76 617 m 0,33,34
 76 638 76 638 94 648 c 2,35,-1
 198 704 l 2,36,37
 208 709 208 709 215 709 c 0,38,39
 224 709 224 709 232 704 c 2,40,-1
 336 649 l 1,41,42
 355 637 355 637 355 616 c 0,43,44
 355 603 355 603 347.5 592.5 c 128,-1,45
 340 582 340 582 329 582 c 0,46,47
 327 582 327 582 323 583 c 1,48,49
 321 585 321 585 319 585 c 2,50,-1
 215 641 l 1,51,-1
 111 585 l 2,52,53
 106 582 106 582 102 582 c 0,54,55
 91 582 91 582 83.5 592.5 c 128,-1,56
 76 603 76 603 76 617 c 0,33,34
131 137 m 0,57,58
 131 105 131 105 149 88.5 c 128,-1,59
 167 72 167 72 196 72 c 0,60,61
 234 72 234 72 268.5 104 c 128,-1,62
 303 136 303 136 303 172 c 2,63,-1
 303 209 l 1,64,-1
 278 209 l 2,65,66
 233 209 233 209 204.5 205 c 128,-1,67
 176 201 176 201 153.5 184 c 128,-1,68
 131 167 131 167 131 137 c 0,57,58
EndSplineSet
EndChar

StartChar: atilde
Encoding: 301 227 166
Width: 460
Flags: W
LayerCount: 2
Fore
SplineSet
25 124 m 0,0,1
 25 204 25 204 85 235.5 c 128,-1,2
 145 267 145 267 259 267 c 2,3,-1
 303 267 l 1,4,-1
 303 285 l 2,5,6
 303 329 303 329 278.5 361 c 128,-1,7
 254 393 254 393 204 393 c 0,8,9
 161 393 161 393 128.5 378 c 128,-1,10
 96 363 96 363 93 363 c 0,11,12
 76 363 76 363 65.5 379.5 c 128,-1,13
 55 396 55 396 55 416 c 0,14,15
 55 442 55 442 103.5 461 c 128,-1,16
 152 480 152 480 206 480 c 0,17,18
 309 480 309 480 358.5 424.5 c 128,-1,19
 408 369 408 369 408 286 c 2,20,-1
 408 35 l 2,21,22
 408 21 408 21 393.5 10.5 c 128,-1,23
 379 0 379 0 357 0 c 0,24,25
 337 0 337 0 323 10.5 c 128,-1,26
 309 21 309 21 309 35 c 2,27,-1
 309 70 l 1,28,29
 242 -8 242 -8 158 -8 c 0,30,31
 100 -8 100 -8 62.5 26 c 128,-1,32
 25 60 25 60 25 124 c 0,0,1
54 636 m 0,33,34
 54 670 54 670 83 685 c 128,-1,35
 112 700 112 700 141 700 c 0,36,37
 169 700 169 700 210.5 684.5 c 128,-1,38
 252 669 252 669 279 669 c 0,39,40
 303 669 303 669 326 681.5 c 128,-1,41
 349 694 349 694 356 694 c 0,42,43
 370 694 370 694 377 682 c 128,-1,44
 384 670 384 670 384 660 c 0,45,46
 384 624 384 624 356 610 c 128,-1,47
 328 596 328 596 299 596 c 0,48,49
 267 596 267 596 226 611.5 c 128,-1,50
 185 627 185 627 160 627 c 0,51,52
 136 627 136 627 112.5 613.5 c 128,-1,53
 89 600 89 600 82 600 c 0,54,55
 68 600 68 600 61 612.5 c 128,-1,56
 54 625 54 625 54 636 c 0,33,34
131 137 m 0,57,58
 131 105 131 105 149 88.5 c 128,-1,59
 167 72 167 72 196 72 c 0,60,61
 234 72 234 72 268.5 104 c 128,-1,62
 303 136 303 136 303 172 c 2,63,-1
 303 209 l 1,64,-1
 278 209 l 2,65,66
 233 209 233 209 204.5 205 c 128,-1,67
 176 201 176 201 153.5 184 c 128,-1,68
 131 167 131 167 131 137 c 0,57,58
EndSplineSet
EndChar

StartChar: adieresis
Encoding: 228 228 167
Width: 460
Flags: W
LayerCount: 2
Fore
SplineSet
25 124 m 0,0,1
 25 204 25 204 85 235.5 c 128,-1,2
 145 267 145 267 259 267 c 2,3,-1
 303 267 l 1,4,-1
 303 285 l 2,5,6
 303 329 303 329 278.5 361 c 128,-1,7
 254 393 254 393 204 393 c 0,8,9
 161 393 161 393 128.5 378 c 128,-1,10
 96 363 96 363 93 363 c 0,11,12
 76 363 76 363 65.5 379.5 c 128,-1,13
 55 396 55 396 55 416 c 0,14,15
 55 442 55 442 103.5 461 c 128,-1,16
 152 480 152 480 206 480 c 0,17,18
 309 480 309 480 358.5 424.5 c 128,-1,19
 408 369 408 369 408 286 c 2,20,-1
 408 35 l 2,21,22
 408 21 408 21 393.5 10.5 c 128,-1,23
 379 0 379 0 357 0 c 0,24,25
 337 0 337 0 323 10.5 c 128,-1,26
 309 21 309 21 309 35 c 2,27,-1
 309 70 l 1,28,29
 242 -8 242 -8 158 -8 c 0,30,31
 100 -8 100 -8 62.5 26 c 128,-1,32
 25 60 25 60 25 124 c 0,0,1
103 630 m 128,-1,34
 103 649 103 649 116.5 662.5 c 128,-1,35
 130 676 130 676 149 676 c 128,-1,36
 168 676 168 676 180.5 662.5 c 128,-1,37
 193 649 193 649 193 630 c 128,-1,38
 193 611 193 611 180 597 c 128,-1,39
 167 583 167 583 149 583 c 0,40,41
 130 583 130 583 116.5 597 c 128,-1,33
 103 611 103 611 103 630 c 128,-1,34
131 137 m 0,42,43
 131 105 131 105 149 88.5 c 128,-1,44
 167 72 167 72 196 72 c 0,45,46
 234 72 234 72 268.5 104 c 128,-1,47
 303 136 303 136 303 172 c 2,48,-1
 303 209 l 1,49,-1
 278 209 l 2,50,51
 233 209 233 209 204.5 205 c 128,-1,52
 176 201 176 201 153.5 184 c 128,-1,53
 131 167 131 167 131 137 c 0,42,43
243 630 m 128,-1,55
 243 649 243 649 256 662.5 c 128,-1,56
 269 676 269 676 288 676 c 128,-1,57
 307 676 307 676 320 662.5 c 128,-1,58
 333 649 333 649 333 630 c 128,-1,59
 333 611 333 611 320 597 c 128,-1,60
 307 583 307 583 288 583 c 128,-1,61
 269 583 269 583 256 597 c 128,-1,54
 243 611 243 611 243 630 c 128,-1,55
EndSplineSet
EndChar

StartChar: aring
Encoding: 302 229 168
Width: 460
Flags: W
LayerCount: 2
Fore
SplineSet
25 124 m 0,0,1
 25 204 25 204 85 235.5 c 128,-1,2
 145 267 145 267 259 267 c 2,3,-1
 303 267 l 1,4,-1
 303 285 l 2,5,6
 303 329 303 329 278.5 361 c 128,-1,7
 254 393 254 393 204 393 c 0,8,9
 161 393 161 393 128.5 378 c 128,-1,10
 96 363 96 363 93 363 c 0,11,12
 76 363 76 363 65.5 379.5 c 128,-1,13
 55 396 55 396 55 416 c 0,14,15
 55 442 55 442 103.5 461 c 128,-1,16
 152 480 152 480 206 480 c 0,17,18
 309 480 309 480 358.5 424.5 c 128,-1,19
 408 369 408 369 408 286 c 2,20,-1
 408 35 l 2,21,22
 408 21 408 21 393.5 10.5 c 128,-1,23
 379 0 379 0 357 0 c 0,24,25
 337 0 337 0 323 10.5 c 128,-1,26
 309 21 309 21 309 35 c 2,27,-1
 309 70 l 1,28,29
 242 -8 242 -8 158 -8 c 0,30,31
 100 -8 100 -8 62.5 26 c 128,-1,32
 25 60 25 60 25 124 c 0,0,1
124 672 m 0,33,34
 124 710 124 710 152 739.5 c 128,-1,35
 180 769 180 769 219 769 c 0,36,37
 257 769 257 769 286.5 739.5 c 128,-1,38
 316 710 316 710 316 672 c 0,39,40
 316 633 316 633 286.5 603 c 128,-1,41
 257 573 257 573 219 573 c 0,42,43
 180 573 180 573 152 603 c 128,-1,44
 124 633 124 633 124 672 c 0,33,34
131 137 m 0,45,46
 131 105 131 105 149 88.5 c 128,-1,47
 167 72 167 72 196 72 c 0,48,49
 234 72 234 72 268.5 104 c 128,-1,50
 303 136 303 136 303 172 c 2,51,-1
 303 209 l 1,52,-1
 278 209 l 2,53,54
 233 209 233 209 204.5 205 c 128,-1,55
 176 201 176 201 153.5 184 c 128,-1,56
 131 167 131 167 131 137 c 0,45,46
168 671 m 0,57,58
 168 651 168 651 183.5 634 c 128,-1,59
 199 617 199 617 220 617 c 0,60,61
 240 617 240 617 255 633.5 c 128,-1,62
 270 650 270 650 270 671 c 0,63,64
 270 690 270 690 255 705.5 c 128,-1,65
 240 721 240 721 220 721 c 0,66,67
 199 721 199 721 183.5 705.5 c 128,-1,68
 168 690 168 690 168 671 c 0,57,58
EndSplineSet
EndChar

StartChar: ae
Encoding: 303 230 169
Width: 740
Flags: W
LayerCount: 2
Fore
SplineSet
25 124 m 0,0,1
 25 204 25 204 84.5 235.5 c 128,-1,2
 144 267 144 267 258 267 c 2,3,-1
 302 267 l 1,4,-1
 302 285 l 2,5,6
 302 330 302 330 278 362 c 128,-1,7
 254 394 254 394 202 394 c 0,8,9
 160 394 160 394 127.5 378.5 c 128,-1,10
 95 363 95 363 91 363 c 0,11,12
 75 363 75 363 64.5 380 c 128,-1,13
 54 397 54 397 54 417 c 0,14,15
 54 442 54 442 102.5 461.5 c 128,-1,16
 151 481 151 481 205 481 c 0,17,18
 310 481 310 481 360 397 c 1,19,20
 419 480 419 480 511 480 c 0,21,22
 591 480 591 480 650.5 429 c 128,-1,23
 710 378 710 378 710 289 c 0,24,25
 710 239 710 239 688.5 224 c 128,-1,26
 667 209 667 209 619 209 c 2,27,-1
 409 209 l 1,28,-1
 409 186 l 2,29,30
 409 136 409 136 444.5 106.5 c 128,-1,31
 480 77 480 77 537 77 c 0,32,33
 577 77 577 77 614.5 96 c 128,-1,34
 652 115 652 115 660 115 c 0,35,36
 677 115 677 115 689 99.5 c 128,-1,37
 701 84 701 84 701 68 c 0,38,39
 701 41 701 41 649 16.5 c 128,-1,40
 597 -8 597 -8 530 -8 c 0,41,42
 472 -8 472 -8 424 17.5 c 128,-1,43
 376 43 376 43 347 90 c 1,44,45
 314 43 314 43 267.5 17.5 c 128,-1,46
 221 -8 221 -8 174 -8 c 0,47,48
 110 -8 110 -8 67.5 26 c 128,-1,49
 25 60 25 60 25 124 c 0,0,1
131 136 m 0,50,51
 131 105 131 105 149 88.5 c 128,-1,52
 167 72 167 72 196 72 c 0,53,54
 235 72 235 72 268.5 104 c 128,-1,55
 302 136 302 136 302 172 c 2,56,-1
 302 209 l 1,57,-1
 277 209 l 2,58,59
 207 209 207 209 169 194.5 c 128,-1,60
 131 180 131 180 131 136 c 0,50,51
409 274 m 1,61,-1
 574 274 l 2,62,63
 596 274 596 274 603.5 280 c 128,-1,64
 611 286 611 286 611 303 c 0,65,66
 611 344 611 344 582 372 c 128,-1,67
 553 400 553 400 510 400 c 0,68,69
 468 400 468 400 438.5 373.5 c 128,-1,70
 409 347 409 347 409 307 c 2,71,-1
 409 274 l 1,61,-1
EndSplineSet
EndChar

StartChar: ccedilla
Encoding: 231 231 170
Width: 425
Flags: W
LayerCount: 2
Fore
SplineSet
38 191 m 2,0,-1
 38 281 l 2,1,2
 38 370 38 370 90 425 c 128,-1,3
 142 480 142 480 245 480 c 0,4,5
 310 480 310 480 354 457.5 c 128,-1,6
 398 435 398 435 398 407 c 0,7,8
 398 390 398 390 385.5 373 c 128,-1,9
 373 356 373 356 356 356 c 0,10,11
 351 356 351 356 320.5 371.5 c 128,-1,12
 290 387 290 387 253 387 c 0,13,14
 143 387 143 387 143 281 c 2,15,-1
 143 191 l 2,16,17
 143 85 143 85 254 85 c 0,18,19
 292 85 292 85 322.5 101.5 c 128,-1,20
 353 118 353 118 359 118 c 0,21,22
 379 118 379 118 391.5 102 c 128,-1,23
 404 86 404 86 404 68 c 0,24,25
 404 43 404 43 365 20 c 128,-1,26
 326 -3 326 -3 268 -7 c 1,27,-1
 255 -55 l 1,28,29
 303 -56 303 -56 327.5 -77.5 c 128,-1,30
 352 -99 352 -99 352 -130 c 0,31,32
 352 -162 352 -162 327.5 -188 c 128,-1,33
 303 -214 303 -214 253 -214 c 0,34,35
 225 -214 225 -214 198 -206.5 c 128,-1,36
 171 -199 171 -199 171 -186 c 0,37,38
 171 -178 171 -178 176.5 -166 c 128,-1,39
 182 -154 182 -154 191 -154 c 0,40,41
 193 -154 193 -154 211 -161 c 128,-1,42
 229 -168 229 -168 248 -168 c 0,43,44
 298 -168 298 -168 298 -132 c 0,45,46
 298 -99 298 -99 244 -94 c 2,47,-1
 196 -89 l 1,48,-1
 218 -7 l 1,49,50
 128 0 128 0 83 53.5 c 128,-1,51
 38 107 38 107 38 191 c 2,0,-1
EndSplineSet
EndChar

StartChar: egrave
Encoding: 304 232 171
Width: 474
Flags: W
LayerCount: 2
Fore
SplineSet
37 191 m 2,0,-1
 37 286 l 2,1,2
 37 365 37 365 98 422.5 c 128,-1,3
 159 480 159 480 245 480 c 0,4,5
 327 480 327 480 385.5 427.5 c 128,-1,6
 444 375 444 375 444 295 c 0,7,8
 444 265 444 265 437 246.5 c 128,-1,9
 430 228 430 228 415 220.5 c 128,-1,10
 400 213 400 213 387 211 c 128,-1,11
 374 209 374 209 353 209 c 2,12,-1
 142 209 l 1,13,-1
 142 186 l 2,14,15
 142 136 142 136 178 106.5 c 128,-1,16
 214 77 214 77 272 77 c 0,17,18
 313 77 313 77 349.5 96 c 128,-1,19
 386 115 386 115 394 115 c 0,20,21
 411 115 411 115 423 99 c 128,-1,22
 435 83 435 83 435 68 c 0,23,24
 435 43 435 43 387 17.5 c 128,-1,25
 339 -8 339 -8 269 -8 c 0,26,27
 167 -8 167 -8 102 47 c 128,-1,28
 37 102 37 102 37 191 c 2,0,-1
142 274 m 1,29,-1
 308 274 l 2,30,31
 330 274 330 274 337.5 280 c 128,-1,32
 345 286 345 286 345 304 c 0,33,34
 345 344 345 344 316 372 c 128,-1,35
 287 400 287 400 244 400 c 0,36,37
 202 400 202 400 172 373.5 c 128,-1,38
 142 347 142 347 142 306 c 2,39,-1
 142 274 l 1,29,-1
142 668 m 0,40,41
 142 683 142 683 152 696 c 128,-1,42
 162 709 162 709 176 709 c 0,43,44
 179 709 179 709 187 707 c 1,45,-1
 311 644 l 2,46,47
 326 636 326 636 326 618 c 0,48,49
 326 603 326 603 316 590 c 128,-1,50
 306 577 306 577 292 577 c 0,51,52
 285 577 285 577 279 580 c 2,53,-1
 158 641 l 2,54,55
 142 648 142 648 142 668 c 0,40,41
EndSplineSet
EndChar

StartChar: eacute
Encoding: 233 233 172
Width: 474
Flags: W
LayerCount: 2
Fore
SplineSet
37 191 m 2,0,-1
 37 286 l 2,1,2
 37 365 37 365 98 422.5 c 128,-1,3
 159 480 159 480 245 480 c 0,4,5
 327 480 327 480 385.5 427.5 c 128,-1,6
 444 375 444 375 444 295 c 0,7,8
 444 265 444 265 437 246.5 c 128,-1,9
 430 228 430 228 415 220.5 c 128,-1,10
 400 213 400 213 387 211 c 128,-1,11
 374 209 374 209 353 209 c 2,12,-1
 142 209 l 1,13,-1
 142 186 l 2,14,15
 142 136 142 136 178 106.5 c 128,-1,16
 214 77 214 77 272 77 c 0,17,18
 313 77 313 77 349.5 96 c 128,-1,19
 386 115 386 115 394 115 c 0,20,21
 411 115 411 115 423 99 c 128,-1,22
 435 83 435 83 435 68 c 0,23,24
 435 43 435 43 387 17.5 c 128,-1,25
 339 -8 339 -8 269 -8 c 0,26,27
 167 -8 167 -8 102 47 c 128,-1,28
 37 102 37 102 37 191 c 2,0,-1
142 274 m 1,29,-1
 308 274 l 2,30,31
 330 274 330 274 337.5 280 c 128,-1,32
 345 286 345 286 345 304 c 0,33,34
 345 344 345 344 316 372 c 128,-1,35
 287 400 287 400 244 400 c 0,36,37
 202 400 202 400 172 373.5 c 128,-1,38
 142 347 142 347 142 306 c 2,39,-1
 142 274 l 1,29,-1
154 618 m 0,40,41
 154 636 154 636 169 644 c 2,42,-1
 293 707 l 1,43,44
 301 709 301 709 304 709 c 0,45,46
 318 709 318 709 328 696 c 128,-1,47
 338 683 338 683 338 668 c 0,48,49
 338 648 338 648 322 641 c 2,50,-1
 201 580 l 2,51,52
 195 577 195 577 189 577 c 0,53,54
 175 577 175 577 164.5 590 c 128,-1,55
 154 603 154 603 154 618 c 0,40,41
EndSplineSet
EndChar

StartChar: ecircumflex
Encoding: 305 234 173
Width: 474
Flags: W
LayerCount: 2
Fore
SplineSet
37 191 m 2,0,-1
 37 286 l 2,1,2
 37 365 37 365 98 422.5 c 128,-1,3
 159 480 159 480 245 480 c 0,4,5
 327 480 327 480 385.5 427.5 c 128,-1,6
 444 375 444 375 444 295 c 0,7,8
 444 265 444 265 437 246.5 c 128,-1,9
 430 228 430 228 415 220.5 c 128,-1,10
 400 213 400 213 387 211 c 128,-1,11
 374 209 374 209 353 209 c 2,12,-1
 142 209 l 1,13,-1
 142 186 l 2,14,15
 142 136 142 136 178 106.5 c 128,-1,16
 214 77 214 77 272 77 c 0,17,18
 313 77 313 77 349.5 96 c 128,-1,19
 386 115 386 115 394 115 c 0,20,21
 411 115 411 115 423 99 c 128,-1,22
 435 83 435 83 435 68 c 0,23,24
 435 43 435 43 387 17.5 c 128,-1,25
 339 -8 339 -8 269 -8 c 0,26,27
 167 -8 167 -8 102 47 c 128,-1,28
 37 102 37 102 37 191 c 2,0,-1
104 617 m 0,29,30
 104 638 104 638 122 648 c 2,31,-1
 226 704 l 2,32,33
 236 709 236 709 243 709 c 0,34,35
 252 709 252 709 260 704 c 2,36,-1
 364 649 l 1,37,38
 383 637 383 637 383 616 c 0,39,40
 383 603 383 603 375.5 592.5 c 128,-1,41
 368 582 368 582 357 582 c 0,42,43
 355 582 355 582 351 583 c 1,44,45
 349 585 349 585 347 585 c 2,46,-1
 243 641 l 1,47,-1
 139 585 l 2,48,49
 134 582 134 582 130 582 c 0,50,51
 119 582 119 582 111.5 592.5 c 128,-1,52
 104 603 104 603 104 617 c 0,29,30
142 274 m 1,53,-1
 308 274 l 2,54,55
 330 274 330 274 337.5 280 c 128,-1,56
 345 286 345 286 345 304 c 0,57,58
 345 344 345 344 316 372 c 128,-1,59
 287 400 287 400 244 400 c 0,60,61
 202 400 202 400 172 373.5 c 128,-1,62
 142 347 142 347 142 306 c 2,63,-1
 142 274 l 1,53,-1
EndSplineSet
EndChar

StartChar: edieresis
Encoding: 235 235 174
Width: 474
Flags: W
LayerCount: 2
Fore
SplineSet
37 191 m 2,0,-1
 37 286 l 2,1,2
 37 365 37 365 98 422.5 c 128,-1,3
 159 480 159 480 245 480 c 0,4,5
 327 480 327 480 385.5 427.5 c 128,-1,6
 444 375 444 375 444 295 c 0,7,8
 444 265 444 265 437 246.5 c 128,-1,9
 430 228 430 228 415 220.5 c 128,-1,10
 400 213 400 213 387 211 c 128,-1,11
 374 209 374 209 353 209 c 2,12,-1
 142 209 l 1,13,-1
 142 186 l 2,14,15
 142 136 142 136 178 106.5 c 128,-1,16
 214 77 214 77 272 77 c 0,17,18
 313 77 313 77 349.5 96 c 128,-1,19
 386 115 386 115 394 115 c 0,20,21
 411 115 411 115 423 99 c 128,-1,22
 435 83 435 83 435 68 c 0,23,24
 435 43 435 43 387 17.5 c 128,-1,25
 339 -8 339 -8 269 -8 c 0,26,27
 167 -8 167 -8 102 47 c 128,-1,28
 37 102 37 102 37 191 c 2,0,-1
128 630 m 128,-1,30
 128 649 128 649 141.5 662.5 c 128,-1,31
 155 676 155 676 174 676 c 128,-1,32
 193 676 193 676 205.5 662.5 c 128,-1,33
 218 649 218 649 218 630 c 128,-1,34
 218 611 218 611 205 597 c 128,-1,35
 192 583 192 583 174 583 c 0,36,37
 155 583 155 583 141.5 597 c 128,-1,29
 128 611 128 611 128 630 c 128,-1,30
142 274 m 1,38,-1
 308 274 l 2,39,40
 330 274 330 274 337.5 280 c 128,-1,41
 345 286 345 286 345 304 c 0,42,43
 345 344 345 344 316 372 c 128,-1,44
 287 400 287 400 244 400 c 0,45,46
 202 400 202 400 172 373.5 c 128,-1,47
 142 347 142 347 142 306 c 2,48,-1
 142 274 l 1,38,-1
268 630 m 128,-1,50
 268 649 268 649 281 662.5 c 128,-1,51
 294 676 294 676 313 676 c 128,-1,52
 332 676 332 676 345 662.5 c 128,-1,53
 358 649 358 649 358 630 c 128,-1,54
 358 611 358 611 345 597 c 128,-1,55
 332 583 332 583 313 583 c 128,-1,56
 294 583 294 583 281 597 c 128,-1,49
 268 611 268 611 268 630 c 128,-1,50
EndSplineSet
EndChar

StartChar: igrave
Encoding: 306 236 175
Width: 215
Flags: W
LayerCount: 2
Fore
SplineSet
4 668 m 0,0,1
 4 683 4 683 14 696 c 128,-1,2
 24 709 24 709 38 709 c 0,3,4
 41 709 41 709 49 707 c 1,5,-1
 173 644 l 2,6,7
 188 636 188 636 188 618 c 0,8,9
 188 603 188 603 178 590 c 128,-1,10
 168 577 168 577 154 577 c 0,11,12
 147 577 147 577 141 580 c 2,13,-1
 20 641 l 2,14,15
 4 648 4 648 4 668 c 0,0,1
55 35 m 2,16,-1
 55 440 l 2,17,18
 55 455 55 455 69.5 464.5 c 128,-1,19
 84 474 84 474 107 474 c 128,-1,20
 130 474 130 474 145 464.5 c 128,-1,21
 160 455 160 455 160 440 c 2,22,-1
 160 35 l 2,23,24
 160 22 160 22 144.5 11 c 128,-1,25
 129 0 129 0 107 0 c 128,-1,26
 85 0 85 0 70 11 c 128,-1,27
 55 22 55 22 55 35 c 2,16,-1
EndSplineSet
EndChar

StartChar: iacute
Encoding: 237 237 176
Width: 215
Flags: W
LayerCount: 2
Fore
SplineSet
28 618 m 0,0,1
 28 636 28 636 43 644 c 2,2,-1
 167 707 l 1,3,4
 175 709 175 709 178 709 c 0,5,6
 192 709 192 709 202 696 c 128,-1,7
 212 683 212 683 212 668 c 0,8,9
 212 648 212 648 196 641 c 2,10,-1
 75 580 l 2,11,12
 69 577 69 577 63 577 c 0,13,14
 49 577 49 577 38.5 590 c 128,-1,15
 28 603 28 603 28 618 c 0,0,1
55 35 m 2,16,-1
 55 440 l 2,17,18
 55 455 55 455 69.5 464.5 c 128,-1,19
 84 474 84 474 107 474 c 128,-1,20
 130 474 130 474 145 464.5 c 128,-1,21
 160 455 160 455 160 440 c 2,22,-1
 160 35 l 2,23,24
 160 22 160 22 144.5 11 c 128,-1,25
 129 0 129 0 107 0 c 128,-1,26
 85 0 85 0 70 11 c 128,-1,27
 55 22 55 22 55 35 c 2,16,-1
EndSplineSet
EndChar

StartChar: icircumflex
Encoding: 238 238 177
Width: 215
Flags: W
LayerCount: 2
Fore
SplineSet
-31 617 m 0,0,1
 -31 638 -31 638 -13 648 c 2,2,-1
 91 704 l 2,3,4
 101 709 101 709 108 709 c 0,5,6
 117 709 117 709 125 704 c 2,7,-1
 229 649 l 1,8,9
 248 637 248 637 248 616 c 0,10,11
 248 603 248 603 240.5 592.5 c 128,-1,12
 233 582 233 582 222 582 c 0,13,14
 220 582 220 582 216 583 c 1,15,16
 214 585 214 585 212 585 c 2,17,-1
 108 641 l 1,18,-1
 4 585 l 2,19,20
 0 582 0 582 -5 582 c 0,21,22
 -16 582 -16 582 -23.5 592.5 c 128,-1,23
 -31 603 -31 603 -31 617 c 0,0,1
55 35 m 2,24,-1
 55 440 l 2,25,26
 55 455 55 455 69.5 464.5 c 128,-1,27
 84 474 84 474 107 474 c 128,-1,28
 130 474 130 474 145 464.5 c 128,-1,29
 160 455 160 455 160 440 c 2,30,-1
 160 35 l 2,31,32
 160 22 160 22 144.5 11 c 128,-1,33
 129 0 129 0 107 0 c 128,-1,34
 85 0 85 0 70 11 c 128,-1,35
 55 22 55 22 55 35 c 2,24,-1
EndSplineSet
EndChar

StartChar: idieresis
Encoding: 307 239 178
Width: 215
Flags: W
LayerCount: 2
Fore
SplineSet
-5 630 m 128,-1,1
 -5 649 -5 649 8.5 662.5 c 128,-1,2
 22 676 22 676 41 676 c 128,-1,3
 60 676 60 676 72.5 662.5 c 128,-1,4
 85 649 85 649 85 630 c 128,-1,5
 85 611 85 611 72 597 c 128,-1,6
 59 583 59 583 41 583 c 0,7,8
 22 583 22 583 8.5 597 c 128,-1,0
 -5 611 -5 611 -5 630 c 128,-1,1
55 35 m 2,9,-1
 55 440 l 2,10,11
 55 455 55 455 69.5 464.5 c 128,-1,12
 84 474 84 474 107 474 c 128,-1,13
 130 474 130 474 145 464.5 c 128,-1,14
 160 455 160 455 160 440 c 2,15,-1
 160 35 l 2,16,17
 160 22 160 22 144.5 11 c 128,-1,18
 129 0 129 0 107 0 c 128,-1,19
 85 0 85 0 70 11 c 128,-1,20
 55 22 55 22 55 35 c 2,9,-1
135 630 m 128,-1,22
 135 649 135 649 148 662.5 c 128,-1,23
 161 676 161 676 180 676 c 128,-1,24
 199 676 199 676 212 662.5 c 128,-1,25
 225 649 225 649 225 630 c 128,-1,26
 225 611 225 611 212 597 c 128,-1,27
 199 583 199 583 180 583 c 128,-1,28
 161 583 161 583 148 597 c 128,-1,21
 135 611 135 611 135 630 c 128,-1,22
EndSplineSet
EndChar

StartChar: eth
Encoding: 308 240 179
Width: 502
Flags: W
LayerCount: 2
Fore
SplineSet
37 191 m 2,0,-1
 37 283 l 2,1,2
 37 364 37 364 89 422 c 128,-1,3
 141 480 141 480 214 480 c 0,4,5
 258 480 258 480 295.5 457.5 c 128,-1,6
 333 435 333 435 347 400 c 1,7,8
 341 501 341 501 292 578 c 1,9,-1
 228 540 l 2,10,11
 223 536 223 536 216 536 c 0,12,13
 202 536 202 536 190 550.5 c 128,-1,14
 178 565 178 565 178 580 c 128,-1,15
 178 595 178 595 191 602 c 2,16,-1
 248 636 l 1,17,18
 221 665 221 665 186 668 c 1,19,20
 163 683 163 683 163 705 c 0,21,22
 163 724 163 724 176 740.5 c 128,-1,23
 189 757 189 757 217 757 c 0,24,25
 282 757 282 757 339 691 c 1,26,-1
 401 727 l 2,27,28
 407 730 407 730 413 730 c 0,29,30
 427 730 427 730 439 716.5 c 128,-1,31
 451 703 451 703 451 688 c 0,32,33
 451 675 451 675 438 665 c 1,34,-1
 379 630 l 1,35,36
 452 505 452 505 452 352 c 2,37,-1
 452 191 l 2,38,39
 452 112 452 112 390 52 c 128,-1,40
 328 -8 328 -8 245 -8 c 0,41,42
 161 -8 161 -8 99 52 c 128,-1,43
 37 112 37 112 37 191 c 2,0,-1
142 191 m 2,44,45
 142 150 142 150 172.5 117.5 c 128,-1,46
 203 85 203 85 245 85 c 0,47,48
 286 85 286 85 316.5 117.5 c 128,-1,49
 347 150 347 150 347 191 c 2,50,-1
 347 285 l 2,51,52
 347 327 347 327 315.5 357 c 128,-1,53
 284 387 284 387 243 387 c 0,54,55
 201 387 201 387 171.5 355 c 128,-1,56
 142 323 142 323 142 283 c 2,57,-1
 142 191 l 2,44,45
EndSplineSet
EndChar

StartChar: ntilde
Encoding: 309 241 180
Width: 513
Flags: W
LayerCount: 2
Fore
SplineSet
55 35 m 2,0,-1
 55 440 l 2,1,2
 55 455 55 455 69.5 464.5 c 128,-1,3
 84 474 84 474 107 474 c 0,4,5
 127 474 127 474 140.5 464.5 c 128,-1,6
 154 455 154 455 154 440 c 2,7,-1
 154 404 l 1,8,9
 170 436 170 436 205.5 458 c 128,-1,10
 241 480 241 480 288 480 c 0,11,12
 359 480 359 480 410.5 422 c 128,-1,13
 462 364 462 364 462 283 c 2,14,-1
 462 35 l 2,15,16
 462 19 462 19 446.5 9.5 c 128,-1,17
 431 0 431 0 409 0 c 0,18,19
 389 0 389 0 373 9.5 c 128,-1,20
 357 19 357 19 357 35 c 2,21,-1
 357 283 l 2,22,23
 357 323 357 323 327 355 c 128,-1,24
 297 387 297 387 256 387 c 0,25,26
 218 387 218 387 189 358.5 c 128,-1,27
 160 330 160 330 160 283 c 2,28,-1
 160 35 l 2,29,30
 160 22 160 22 144 11 c 128,-1,31
 128 0 128 0 107 0 c 0,32,33
 85 0 85 0 70 11 c 128,-1,34
 55 22 55 22 55 35 c 2,0,-1
90 636 m 0,35,36
 90 670 90 670 119 685 c 128,-1,37
 148 700 148 700 177 700 c 0,38,39
 205 700 205 700 246.5 684.5 c 128,-1,40
 288 669 288 669 315 669 c 0,41,42
 339 669 339 669 362 681.5 c 128,-1,43
 385 694 385 694 392 694 c 0,44,45
 406 694 406 694 413 682 c 128,-1,46
 420 670 420 670 420 660 c 0,47,48
 420 624 420 624 392 610 c 128,-1,49
 364 596 364 596 335 596 c 0,50,51
 303 596 303 596 262 611.5 c 128,-1,52
 221 627 221 627 196 627 c 0,53,54
 172 627 172 627 148.5 613.5 c 128,-1,55
 125 600 125 600 118 600 c 0,56,57
 104 600 104 600 97 612.5 c 128,-1,58
 90 625 90 625 90 636 c 0,35,36
EndSplineSet
EndChar

StartChar: ograve
Encoding: 310 242 181
Width: 487
Flags: W
LayerCount: 2
Fore
SplineSet
36 191 m 2,0,-1
 36 283 l 2,1,2
 36 362 36 362 97 421 c 128,-1,3
 158 480 158 480 243 480 c 0,4,5
 326 480 326 480 388 421.5 c 128,-1,6
 450 363 450 363 450 283 c 2,7,-1
 450 191 l 2,8,9
 450 113 450 113 387.5 52.5 c 128,-1,10
 325 -8 325 -8 243 -8 c 0,11,12
 160 -8 160 -8 98 52 c 128,-1,13
 36 112 36 112 36 191 c 2,0,-1
141 191 m 2,14,15
 141 150 141 150 171 117.5 c 128,-1,16
 201 85 201 85 243 85 c 0,17,18
 284 85 284 85 314.5 117.5 c 128,-1,19
 345 150 345 150 345 191 c 2,20,-1
 345 283 l 2,21,22
 345 323 345 323 314.5 355 c 128,-1,23
 284 387 284 387 243 387 c 0,24,25
 201 387 201 387 171 355 c 128,-1,26
 141 323 141 323 141 283 c 2,27,-1
 141 191 l 2,14,15
142 668 m 0,28,29
 142 683 142 683 152 696 c 128,-1,30
 162 709 162 709 176 709 c 0,31,32
 179 709 179 709 187 707 c 1,33,-1
 311 644 l 2,34,35
 326 636 326 636 326 618 c 0,36,37
 326 603 326 603 316 590 c 128,-1,38
 306 577 306 577 292 577 c 0,39,40
 285 577 285 577 279 580 c 2,41,-1
 158 641 l 2,42,43
 142 648 142 648 142 668 c 0,28,29
EndSplineSet
EndChar

StartChar: oacute
Encoding: 243 243 182
Width: 487
Flags: W
LayerCount: 2
Fore
SplineSet
36 191 m 6,0,-1
 36 283 l 6,1,2
 36 362 36 362 97 421 c 132,-1,3
 158 480 158 480 243 480 c 4,4,5
 326 480 326 480 388 421.5 c 132,-1,6
 450 363 450 363 450 283 c 6,7,-1
 450 191 l 6,8,9
 450 113 450 113 387.5 52.5 c 132,-1,10
 325 -8 325 -8 243 -8 c 4,11,12
 160 -8 160 -8 98 52 c 132,-1,13
 36 112 36 112 36 191 c 6,0,-1
141 191 m 6,14,15
 141 150 141 150 171 117.5 c 132,-1,16
 201 85 201 85 243 85 c 4,17,18
 284 85 284 85 314.5 117.5 c 132,-1,19
 345 150 345 150 345 191 c 6,20,-1
 345 283 l 6,21,22
 345 323 345 323 314.5 355 c 132,-1,23
 284 387 284 387 243 387 c 4,24,25
 201 387 201 387 171 355 c 132,-1,26
 141 323 141 323 141 283 c 6,27,-1
 141 191 l 6,14,15
153 618 m 4,28,29
 153 636 153 636 168 644 c 6,30,-1
 292 707 l 5,31,32
 300 709 300 709 303 709 c 4,33,34
 317 709 317 709 327 696 c 132,-1,35
 337 683 337 683 337 668 c 4,36,37
 337 648 337 648 321 641 c 6,38,-1
 200 580 l 6,39,40
 194 577 194 577 188 577 c 4,41,42
 174 577 174 577 163.5 590 c 132,-1,43
 153 603 153 603 153 618 c 4,28,29
EndSplineSet
EndChar

StartChar: ocircumflex
Encoding: 244 244 183
Width: 487
Flags: W
LayerCount: 2
Fore
SplineSet
36 191 m 2,0,-1
 36 283 l 2,1,2
 36 362 36 362 97 421 c 128,-1,3
 158 480 158 480 243 480 c 0,4,5
 326 480 326 480 388 421.5 c 128,-1,6
 450 363 450 363 450 283 c 2,7,-1
 450 191 l 2,8,9
 450 113 450 113 387.5 52.5 c 128,-1,10
 325 -8 325 -8 243 -8 c 0,11,12
 160 -8 160 -8 98 52 c 128,-1,13
 36 112 36 112 36 191 c 2,0,-1
103 617 m 0,14,15
 103 638 103 638 121 648 c 2,16,-1
 225 704 l 2,17,18
 235 709 235 709 242 709 c 0,19,20
 251 709 251 709 259 704 c 2,21,-1
 363 649 l 1,22,23
 382 637 382 637 382 616 c 0,24,25
 382 603 382 603 374.5 592.5 c 128,-1,26
 367 582 367 582 356 582 c 0,27,28
 354 582 354 582 350 583 c 1,29,30
 348 585 348 585 346 585 c 2,31,-1
 242 641 l 1,32,-1
 138 585 l 2,33,34
 134 582 134 582 129 582 c 0,35,36
 118 582 118 582 110.5 592.5 c 128,-1,37
 103 603 103 603 103 617 c 0,14,15
141 191 m 2,38,39
 141 150 141 150 171 117.5 c 128,-1,40
 201 85 201 85 243 85 c 0,41,42
 284 85 284 85 314.5 117.5 c 128,-1,43
 345 150 345 150 345 191 c 2,44,-1
 345 283 l 2,45,46
 345 323 345 323 314.5 355 c 128,-1,47
 284 387 284 387 243 387 c 0,48,49
 201 387 201 387 171 355 c 128,-1,50
 141 323 141 323 141 283 c 2,51,-1
 141 191 l 2,38,39
EndSplineSet
EndChar

StartChar: otilde
Encoding: 311 245 184
Width: 487
Flags: W
LayerCount: 2
Fore
SplineSet
36 191 m 2,0,-1
 36 283 l 2,1,2
 36 362 36 362 97 421 c 128,-1,3
 158 480 158 480 243 480 c 0,4,5
 326 480 326 480 388 421.5 c 128,-1,6
 450 363 450 363 450 283 c 2,7,-1
 450 191 l 2,8,9
 450 113 450 113 387.5 52.5 c 128,-1,10
 325 -8 325 -8 243 -8 c 0,11,12
 160 -8 160 -8 98 52 c 128,-1,13
 36 112 36 112 36 191 c 2,0,-1
79 636 m 0,14,15
 79 670 79 670 108 685 c 128,-1,16
 137 700 137 700 166 700 c 0,17,18
 194 700 194 700 235.5 684.5 c 128,-1,19
 277 669 277 669 304 669 c 0,20,21
 328 669 328 669 351 681.5 c 128,-1,22
 374 694 374 694 381 694 c 0,23,24
 395 694 395 694 402 682 c 128,-1,25
 409 670 409 670 409 660 c 0,26,27
 409 624 409 624 381 610 c 128,-1,28
 353 596 353 596 324 596 c 0,29,30
 292 596 292 596 251 611.5 c 128,-1,31
 210 627 210 627 185 627 c 0,32,33
 161 627 161 627 137.5 613.5 c 128,-1,34
 114 600 114 600 107 600 c 0,35,36
 93 600 93 600 86 612.5 c 128,-1,37
 79 625 79 625 79 636 c 0,14,15
141 191 m 2,38,39
 141 150 141 150 171 117.5 c 128,-1,40
 201 85 201 85 243 85 c 0,41,42
 284 85 284 85 314.5 117.5 c 128,-1,43
 345 150 345 150 345 191 c 2,44,-1
 345 283 l 2,45,46
 345 323 345 323 314.5 355 c 128,-1,47
 284 387 284 387 243 387 c 0,48,49
 201 387 201 387 171 355 c 128,-1,50
 141 323 141 323 141 283 c 2,51,-1
 141 191 l 2,38,39
EndSplineSet
EndChar

StartChar: odieresis
Encoding: 246 246 185
Width: 487
Flags: W
LayerCount: 2
Fore
SplineSet
36 191 m 2,0,-1
 36 283 l 2,1,2
 36 362 36 362 97 421 c 128,-1,3
 158 480 158 480 243 480 c 0,4,5
 326 480 326 480 388 421.5 c 128,-1,6
 450 363 450 363 450 283 c 2,7,-1
 450 191 l 2,8,9
 450 113 450 113 387.5 52.5 c 128,-1,10
 325 -8 325 -8 243 -8 c 0,11,12
 160 -8 160 -8 98 52 c 128,-1,13
 36 112 36 112 36 191 c 2,0,-1
128 630 m 128,-1,15
 128 649 128 649 141.5 662.5 c 128,-1,16
 155 676 155 676 174 676 c 128,-1,17
 193 676 193 676 205.5 662.5 c 128,-1,18
 218 649 218 649 218 630 c 128,-1,19
 218 611 218 611 205 597 c 128,-1,20
 192 583 192 583 174 583 c 0,21,22
 155 583 155 583 141.5 597 c 128,-1,14
 128 611 128 611 128 630 c 128,-1,15
141 191 m 2,23,24
 141 150 141 150 171 117.5 c 128,-1,25
 201 85 201 85 243 85 c 0,26,27
 284 85 284 85 314.5 117.5 c 128,-1,28
 345 150 345 150 345 191 c 2,29,-1
 345 283 l 2,30,31
 345 323 345 323 314.5 355 c 128,-1,32
 284 387 284 387 243 387 c 0,33,34
 201 387 201 387 171 355 c 128,-1,35
 141 323 141 323 141 283 c 2,36,-1
 141 191 l 2,23,24
268 630 m 128,-1,38
 268 649 268 649 281 662.5 c 128,-1,39
 294 676 294 676 313 676 c 128,-1,40
 332 676 332 676 345 662.5 c 128,-1,41
 358 649 358 649 358 630 c 128,-1,42
 358 611 358 611 345 597 c 128,-1,43
 332 583 332 583 313 583 c 128,-1,44
 294 583 294 583 281 597 c 128,-1,37
 268 611 268 611 268 630 c 128,-1,38
EndSplineSet
EndChar

StartChar: divide
Encoding: 247 247 186
Width: 446
Flags: W
LayerCount: 2
Fore
SplineSet
28 239 m 0,0,1
 28 257 28 257 38 269 c 128,-1,2
 48 281 48 281 64 281 c 2,3,-1
 382 281 l 2,4,5
 396 281 396 281 407 268.5 c 128,-1,6
 418 256 418 256 418 239 c 0,7,8
 418 221 418 221 407 209 c 128,-1,9
 396 197 396 197 382 197 c 2,10,-1
 64 197 l 2,11,12
 48 197 48 197 38 208.5 c 128,-1,13
 28 220 28 220 28 239 c 0,0,1
163 72 m 0,14,15
 163 95 163 95 180 110.5 c 128,-1,16
 197 126 197 126 220 126 c 0,17,18
 242 126 242 126 259 110.5 c 128,-1,19
 276 95 276 95 276 72 c 0,20,21
 276 50 276 50 258.5 33.5 c 128,-1,22
 241 17 241 17 220 17 c 0,23,24
 197 17 197 17 180 33.5 c 128,-1,25
 163 50 163 50 163 72 c 0,14,15
163 407 m 0,26,27
 163 429 163 429 180 445.5 c 128,-1,28
 197 462 197 462 220 462 c 0,29,30
 241 462 241 462 258.5 445.5 c 128,-1,31
 276 429 276 429 276 407 c 0,32,33
 276 384 276 384 259 368 c 128,-1,34
 242 352 242 352 220 352 c 0,35,36
 197 352 197 352 180 368 c 128,-1,37
 163 384 163 384 163 407 c 0,26,27
EndSplineSet
EndChar

StartChar: oslash
Encoding: 312 248 187
Width: 487
Flags: W
LayerCount: 2
Fore
SplineSet
36 191 m 2,0,-1
 36 283 l 2,1,2
 36 362 36 362 97 421 c 128,-1,3
 158 480 158 480 243 480 c 0,4,5
 299 480 299 480 350 450 c 1,6,-1
 382 499 l 2,7,8
 389 510 389 510 400 510 c 128,-1,9
 411 510 411 510 419 502 c 128,-1,10
 427 494 427 494 427 483 c 0,11,12
 427 478 427 478 421 466 c 1,13,-1
 390 419 l 1,14,15
 450 362 450 362 450 283 c 2,16,-1
 450 191 l 2,17,18
 450 113 450 113 387.5 52.5 c 128,-1,19
 325 -8 325 -8 243 -8 c 0,20,21
 181 -8 181 -8 130 26 c 1,22,-1
 98 -23 l 2,23,24
 92 -32 92 -32 81 -32 c 0,25,26
 72 -32 72 -32 64 -25 c 128,-1,27
 56 -18 56 -18 56 -8 c 0,28,29
 56 -1 56 -1 61 6 c 2,30,-1
 93 56 l 1,31,32
 36 115 36 115 36 191 c 2,0,-1
141 191 m 2,33,34
 141 165 141 165 151 145 c 1,35,-1
 297 369 l 1,36,37
 271 387 271 387 243 387 c 0,38,39
 201 387 201 387 171 355 c 128,-1,40
 141 323 141 323 141 283 c 2,41,-1
 141 191 l 2,33,34
183 106 m 1,42,43
 210 85 210 85 243 85 c 0,44,45
 284 85 284 85 314.5 117.5 c 128,-1,46
 345 150 345 150 345 191 c 2,47,-1
 345 283 l 2,48,49
 345 307 345 307 332 331 c 1,50,-1
 183 106 l 1,42,43
EndSplineSet
EndChar

StartChar: ugrave
Encoding: 313 249 188
Width: 515
Flags: W
LayerCount: 2
Fore
SplineSet
51 189 m 2,0,-1
 51 439 l 2,1,2
 51 453 51 453 67 463.5 c 128,-1,3
 83 474 83 474 104 474 c 128,-1,4
 125 474 125 474 140.5 463.5 c 128,-1,5
 156 453 156 453 156 439 c 2,6,-1
 156 189 l 2,7,8
 156 149 156 149 186.5 117 c 128,-1,9
 217 85 217 85 258 85 c 0,10,11
 300 85 300 85 330 116.5 c 128,-1,12
 360 148 360 148 360 189 c 2,13,-1
 360 440 l 2,14,15
 360 454 360 454 375.5 464 c 128,-1,16
 391 474 391 474 413 474 c 128,-1,17
 435 474 435 474 449.5 464 c 128,-1,18
 464 454 464 454 464 440 c 2,19,-1
 464 189 l 2,20,21
 464 110 464 110 403 51 c 128,-1,22
 342 -8 342 -8 258 -8 c 128,-1,23
 174 -8 174 -8 112.5 51 c 128,-1,24
 51 110 51 110 51 189 c 2,0,-1
156 668 m 0,25,26
 156 683 156 683 166 696 c 128,-1,27
 176 709 176 709 190 709 c 0,28,29
 193 709 193 709 201 707 c 1,30,-1
 325 644 l 2,31,32
 340 636 340 636 340 618 c 0,33,34
 340 603 340 603 330 590 c 128,-1,35
 320 577 320 577 306 577 c 0,36,37
 299 577 299 577 293 580 c 2,38,-1
 172 641 l 2,39,40
 156 648 156 648 156 668 c 0,25,26
EndSplineSet
EndChar

StartChar: uacute
Encoding: 250 250 189
Width: 515
Flags: W
LayerCount: 2
Fore
SplineSet
51 189 m 6,0,-1
 51 439 l 6,1,2
 51 453 51 453 67 463.5 c 132,-1,3
 83 474 83 474 104 474 c 132,-1,4
 125 474 125 474 140.5 463.5 c 132,-1,5
 156 453 156 453 156 439 c 6,6,-1
 156 189 l 6,7,8
 156 149 156 149 186.5 117 c 132,-1,9
 217 85 217 85 258 85 c 4,10,11
 300 85 300 85 330 116.5 c 132,-1,12
 360 148 360 148 360 189 c 6,13,-1
 360 440 l 6,14,15
 360 454 360 454 375.5 464 c 132,-1,16
 391 474 391 474 413 474 c 132,-1,17
 435 474 435 474 449.5 464 c 132,-1,18
 464 454 464 454 464 440 c 6,19,-1
 464 189 l 6,20,21
 464 110 464 110 403 51 c 132,-1,22
 342 -8 342 -8 258 -8 c 132,-1,23
 174 -8 174 -8 112.5 51 c 132,-1,24
 51 110 51 110 51 189 c 6,0,-1
174 618 m 4,25,26
 174 636 174 636 189 644 c 6,27,-1
 313 707 l 5,28,29
 321 709 321 709 324 709 c 4,30,31
 338 709 338 709 348 696 c 132,-1,32
 358 683 358 683 358 668 c 4,33,34
 358 648 358 648 342 641 c 6,35,-1
 221 580 l 6,36,37
 215 577 215 577 209 577 c 4,38,39
 195 577 195 577 184.5 590 c 132,-1,40
 174 603 174 603 174 618 c 4,25,26
EndSplineSet
EndChar

StartChar: ucircumflex
Encoding: 314 251 190
Width: 515
Flags: W
LayerCount: 2
Fore
SplineSet
51 189 m 2,0,-1
 51 439 l 2,1,2
 51 453 51 453 67 463.5 c 128,-1,3
 83 474 83 474 104 474 c 128,-1,4
 125 474 125 474 140.5 463.5 c 128,-1,5
 156 453 156 453 156 439 c 2,6,-1
 156 189 l 2,7,8
 156 149 156 149 186.5 117 c 128,-1,9
 217 85 217 85 258 85 c 0,10,11
 300 85 300 85 330 116.5 c 128,-1,12
 360 148 360 148 360 189 c 2,13,-1
 360 440 l 2,14,15
 360 454 360 454 375.5 464 c 128,-1,16
 391 474 391 474 413 474 c 128,-1,17
 435 474 435 474 449.5 464 c 128,-1,18
 464 454 464 454 464 440 c 2,19,-1
 464 189 l 2,20,21
 464 110 464 110 403 51 c 128,-1,22
 342 -8 342 -8 258 -8 c 128,-1,23
 174 -8 174 -8 112.5 51 c 128,-1,24
 51 110 51 110 51 189 c 2,0,-1
119 617 m 0,25,26
 119 638 119 638 137 648 c 2,27,-1
 241 704 l 2,28,29
 251 709 251 709 258 709 c 0,30,31
 267 709 267 709 275 704 c 2,32,-1
 379 649 l 1,33,34
 398 637 398 637 398 616 c 0,35,36
 398 603 398 603 390.5 592.5 c 128,-1,37
 383 582 383 582 372 582 c 0,38,39
 370 582 370 582 366 583 c 1,40,41
 364 585 364 585 362 585 c 2,42,-1
 258 641 l 1,43,-1
 154 585 l 2,44,45
 150 582 150 582 145 582 c 0,46,47
 134 582 134 582 126.5 592.5 c 128,-1,48
 119 603 119 603 119 617 c 0,25,26
EndSplineSet
EndChar

StartChar: udieresis
Encoding: 252 252 191
Width: 515
Flags: W
LayerCount: 2
Fore
SplineSet
51 189 m 2,0,-1
 51 439 l 2,1,2
 51 453 51 453 67 463.5 c 128,-1,3
 83 474 83 474 104 474 c 128,-1,4
 125 474 125 474 140.5 463.5 c 128,-1,5
 156 453 156 453 156 439 c 2,6,-1
 156 189 l 2,7,8
 156 149 156 149 186.5 117 c 128,-1,9
 217 85 217 85 258 85 c 0,10,11
 300 85 300 85 330 116.5 c 128,-1,12
 360 148 360 148 360 189 c 2,13,-1
 360 440 l 2,14,15
 360 454 360 454 375.5 464 c 128,-1,16
 391 474 391 474 413 474 c 128,-1,17
 435 474 435 474 449.5 464 c 128,-1,18
 464 454 464 454 464 440 c 2,19,-1
 464 189 l 2,20,21
 464 110 464 110 403 51 c 128,-1,22
 342 -8 342 -8 258 -8 c 128,-1,23
 174 -8 174 -8 112.5 51 c 128,-1,24
 51 110 51 110 51 189 c 2,0,-1
143 630 m 128,-1,26
 143 649 143 649 156.5 662.5 c 128,-1,27
 170 676 170 676 189 676 c 128,-1,28
 208 676 208 676 220.5 662.5 c 128,-1,29
 233 649 233 649 233 630 c 128,-1,30
 233 611 233 611 220 597 c 128,-1,31
 207 583 207 583 189 583 c 0,32,33
 170 583 170 583 156.5 597 c 128,-1,25
 143 611 143 611 143 630 c 128,-1,26
283 630 m 128,-1,35
 283 649 283 649 296 662.5 c 128,-1,36
 309 676 309 676 328 676 c 128,-1,37
 347 676 347 676 360 662.5 c 128,-1,38
 373 649 373 649 373 630 c 128,-1,39
 373 611 373 611 360 597 c 128,-1,40
 347 583 347 583 328 583 c 128,-1,41
 309 583 309 583 296 597 c 128,-1,34
 283 611 283 611 283 630 c 128,-1,35
EndSplineSet
EndChar

StartChar: yacute
Encoding: 253 253 192
Width: 457
Flags: W
LayerCount: 2
Fore
SplineSet
10 -180 m 128,-1,1
 10 -135 10 -135 39 -135 c 0,2,3
 84 -135 84 -135 128 -92 c 128,-1,4
 172 -49 172 -49 182 29 c 1,5,-1
 14 417 l 1,6,7
 10 422 10 422 10 431 c 0,8,9
 10 450 10 450 33 465.5 c 128,-1,10
 56 481 56 481 79 481 c 0,11,12
 104 481 104 481 111 462 c 2,13,-1
 237 137 l 1,14,-1
 345 462 l 1,15,16
 354 481 354 481 375 481 c 128,-1,17
 396 481 396 481 420.5 465.5 c 128,-1,18
 445 450 445 450 445 429 c 0,19,20
 445 420 445 420 443 417 c 2,21,-1
 295 26 l 1,22,-1
 278 -19 l 2,23,24
 272 -33 272 -33 259.5 -62 c 128,-1,25
 247 -91 247 -91 238 -106 c 2,26,-1
 214 -143 l 2,27,28
 199 -166 199 -166 184 -177.5 c 128,-1,29
 169 -189 169 -189 150 -201.5 c 128,-1,30
 131 -214 131 -214 108 -219.5 c 128,-1,31
 85 -225 85 -225 59 -225 c 0,32,0
 10 -225 10 -225 10 -180 c 128,-1,1
165 618 m 0,33,34
 165 636 165 636 180 644 c 2,35,-1
 304 707 l 1,36,37
 312 709 312 709 315 709 c 0,38,39
 329 709 329 709 339 696 c 128,-1,40
 349 683 349 683 349 668 c 0,41,42
 349 648 349 648 333 641 c 2,43,-1
 212 580 l 2,44,45
 206 577 206 577 200 577 c 0,46,47
 186 577 186 577 175.5 590 c 128,-1,48
 165 603 165 603 165 618 c 0,33,34
EndSplineSet
EndChar

StartChar: thorn
Encoding: 315 254 193
Width: 506
Flags: W
LayerCount: 2
Fore
SplineSet
56 -190 m 2,0,-1
 56 722 l 2,1,2
 56 737 56 737 70.5 746.5 c 128,-1,3
 85 756 85 756 106 756 c 0,4,5
 129 756 129 756 145 746.5 c 128,-1,6
 161 737 161 737 161 722 c 2,7,-1
 161 404 l 1,8,9
 178 436 178 436 212 458 c 128,-1,10
 246 480 246 480 289 480 c 0,11,12
 364 480 364 480 416.5 422 c 128,-1,13
 469 364 469 364 469 283 c 2,14,-1
 469 191 l 2,15,16
 469 113 469 113 416 52.5 c 128,-1,17
 363 -8 363 -8 293 -8 c 0,18,19
 250 -8 250 -8 213.5 15 c 128,-1,20
 177 38 177 38 161 70 c 1,21,-1
 161 -190 l 2,22,23
 161 -204 161 -204 145 -214.5 c 128,-1,24
 129 -225 129 -225 107 -225 c 128,-1,25
 85 -225 85 -225 70.5 -214.5 c 128,-1,26
 56 -204 56 -204 56 -190 c 2,0,-1
161 168 m 2,27,28
 161 146 161 146 191.5 115.5 c 128,-1,29
 222 85 222 85 262 85 c 128,-1,30
 302 85 302 85 333 117.5 c 128,-1,31
 364 150 364 150 364 191 c 2,32,-1
 364 283 l 2,33,34
 364 323 364 323 333 355 c 128,-1,35
 302 387 302 387 260 387 c 0,36,37
 221 387 221 387 191 358.5 c 128,-1,38
 161 330 161 330 161 283 c 2,39,-1
 161 168 l 2,27,28
EndSplineSet
EndChar

StartChar: ydieresis
Encoding: 316 255 194
Width: 457
Flags: W
LayerCount: 2
Fore
SplineSet
10 -180 m 128,-1,1
 10 -135 10 -135 39 -135 c 0,2,3
 84 -135 84 -135 128 -92 c 128,-1,4
 172 -49 172 -49 182 29 c 1,5,-1
 14 417 l 1,6,7
 10 422 10 422 10 431 c 0,8,9
 10 450 10 450 33 465.5 c 128,-1,10
 56 481 56 481 79 481 c 0,11,12
 104 481 104 481 111 462 c 2,13,-1
 237 137 l 1,14,-1
 345 462 l 1,15,16
 354 481 354 481 375 481 c 128,-1,17
 396 481 396 481 420.5 465.5 c 128,-1,18
 445 450 445 450 445 429 c 0,19,20
 445 420 445 420 443 417 c 2,21,-1
 295 26 l 1,22,-1
 278 -19 l 2,23,24
 272 -33 272 -33 259.5 -62 c 128,-1,25
 247 -91 247 -91 238 -106 c 2,26,-1
 214 -143 l 2,27,28
 199 -166 199 -166 184 -177.5 c 128,-1,29
 169 -189 169 -189 150 -201.5 c 128,-1,30
 131 -214 131 -214 108 -219.5 c 128,-1,31
 85 -225 85 -225 59 -225 c 0,32,0
 10 -225 10 -225 10 -180 c 128,-1,1
121 630 m 128,-1,34
 121 649 121 649 134.5 662.5 c 128,-1,35
 148 676 148 676 167 676 c 128,-1,36
 186 676 186 676 198.5 662.5 c 128,-1,37
 211 649 211 649 211 630 c 128,-1,38
 211 611 211 611 198 597 c 128,-1,39
 185 583 185 583 167 583 c 0,40,41
 148 583 148 583 134.5 597 c 128,-1,33
 121 611 121 611 121 630 c 128,-1,34
261 630 m 128,-1,43
 261 649 261 649 274 662.5 c 128,-1,44
 287 676 287 676 306 676 c 128,-1,45
 325 676 325 676 338 662.5 c 128,-1,46
 351 649 351 649 351 630 c 128,-1,47
 351 611 351 611 338 597 c 128,-1,48
 325 583 325 583 306 583 c 128,-1,49
 287 583 287 583 274 597 c 128,-1,42
 261 611 261 611 261 630 c 128,-1,43
EndSplineSet
EndChar

StartChar: dotlessi
Encoding: 317 305 195
Width: 215
Flags: W
LayerCount: 2
Fore
SplineSet
55 35 m 2,0,-1
 55 440 l 2,1,2
 55 455 55 455 69.5 464.5 c 128,-1,3
 84 474 84 474 107 474 c 128,-1,4
 130 474 130 474 145 464.5 c 128,-1,5
 160 455 160 455 160 440 c 2,6,-1
 160 35 l 2,7,8
 160 22 160 22 144.5 11 c 128,-1,9
 129 0 129 0 107 0 c 128,-1,10
 85 0 85 0 70 11 c 128,-1,11
 55 22 55 22 55 35 c 2,0,-1
EndSplineSet
EndChar

StartChar: OE
Encoding: 318 338 196
Width: 835
Flags: W
LayerCount: 2
Fore
SplineSet
60 217 m 2,0,-1
 60 508 l 2,1,2
 60 624 60 624 115.5 677.5 c 128,-1,3
 171 731 171 731 266 731 c 0,4,5
 313 731 313 731 353.5 712.5 c 128,-1,6
 394 694 394 694 416 658 c 1,7,-1
 416 696 l 2,8,9
 416 712 416 712 430 721.5 c 128,-1,10
 444 731 444 731 463 731 c 2,11,-1
 782 731 l 2,12,13
 799 731 799 731 807.5 717.5 c 128,-1,14
 816 704 816 704 816 685 c 0,15,16
 816 665 816 665 807 651 c 128,-1,17
 798 637 798 637 782 637 c 2,18,-1
 509 637 l 1,19,-1
 509 408 l 1,20,-1
 639 408 l 2,21,22
 655 408 655 408 664 395.5 c 128,-1,23
 673 383 673 383 673 365 c 0,24,25
 673 349 673 349 664.5 336.5 c 128,-1,26
 656 324 656 324 639 324 c 2,27,-1
 509 324 l 1,28,-1
 509 94 l 1,29,-1
 782 94 l 2,30,31
 798 94 798 94 807 80 c 128,-1,32
 816 66 816 66 816 46 c 0,33,34
 816 27 816 27 807.5 13.5 c 128,-1,35
 799 0 799 0 782 0 c 2,36,-1
 463 0 l 2,37,38
 444 0 444 0 430 9.5 c 128,-1,39
 416 19 416 19 416 35 c 2,40,-1
 416 67 l 1,41,42
 394 31 394 31 353.5 12.5 c 128,-1,43
 313 -6 313 -6 266 -6 c 0,44,45
 171 -6 171 -6 115.5 47.5 c 128,-1,46
 60 101 60 101 60 217 c 2,0,-1
166 217 m 2,47,48
 166 88 166 88 284 88 c 0,49,50
 341 88 341 88 372 120 c 128,-1,51
 403 152 403 152 403 217 c 2,52,-1
 403 508 l 2,53,54
 403 573 403 573 372 605 c 128,-1,55
 341 637 341 637 284 637 c 0,56,57
 166 637 166 637 166 508 c 2,58,-1
 166 217 l 2,47,48
EndSplineSet
EndChar

StartChar: oe
Encoding: 319 339 197
Width: 782
Flags: W
LayerCount: 2
Fore
SplineSet
36 191 m 2,0,-1
 36 283 l 2,1,2
 36 362 36 362 97 421 c 128,-1,3
 158 480 158 480 243 480 c 0,4,5
 290 480 290 480 332 457 c 128,-1,6
 374 434 374 434 401 395 c 1,7,8
 428 434 428 434 468 457 c 128,-1,9
 508 480 508 480 553 480 c 0,10,11
 634 480 634 480 693 427 c 128,-1,12
 752 374 752 374 752 295 c 0,13,14
 752 265 752 265 745 246.5 c 128,-1,15
 738 228 738 228 723 220.5 c 128,-1,16
 708 213 708 213 695.5 211 c 128,-1,17
 683 209 683 209 661 209 c 2,18,-1
 450 209 l 1,19,-1
 450 186 l 2,20,21
 450 136 450 136 486 106.5 c 128,-1,22
 522 77 522 77 581 77 c 0,23,24
 621 77 621 77 656.5 96 c 128,-1,25
 692 115 692 115 701 115 c 0,26,27
 718 115 718 115 730 99.5 c 128,-1,28
 742 84 742 84 742 67 c 0,29,30
 742 42 742 42 693.5 17 c 128,-1,31
 645 -8 645 -8 576 -8 c 0,32,33
 460 -8 460 -8 401 77 c 1,34,35
 373 38 373 38 331.5 15 c 128,-1,36
 290 -8 290 -8 243 -8 c 0,37,38
 160 -8 160 -8 98 52 c 128,-1,39
 36 112 36 112 36 191 c 2,0,-1
141 191 m 2,40,41
 141 150 141 150 171 117.5 c 128,-1,42
 201 85 201 85 243 85 c 0,43,44
 284 85 284 85 314.5 117.5 c 128,-1,45
 345 150 345 150 345 191 c 2,46,-1
 345 283 l 2,47,48
 345 323 345 323 314.5 355 c 128,-1,49
 284 387 284 387 243 387 c 0,50,51
 201 387 201 387 171 355 c 128,-1,52
 141 323 141 323 141 283 c 2,53,-1
 141 191 l 2,40,41
450 274 m 1,54,-1
 616 274 l 2,55,56
 637 274 637 274 645 280 c 128,-1,57
 653 286 653 286 653 304 c 0,58,59
 653 344 653 344 623.5 372 c 128,-1,60
 594 400 594 400 551 400 c 0,61,62
 510 400 510 400 480 374 c 128,-1,63
 450 348 450 348 450 308 c 2,64,-1
 450 274 l 1,54,-1
EndSplineSet
EndChar

StartChar: circumflex
Encoding: 320 710 198
Width: 279
Flags: W
LayerCount: 2
Fore
SplineSet
0 617 m 0,0,1
 0 638 0 638 18 648 c 2,2,-1
 122 704 l 2,3,4
 132 709 132 709 139 709 c 0,5,6
 148 709 148 709 156 704 c 2,7,-1
 260 649 l 1,8,9
 279 637 279 637 279 616 c 0,10,11
 279 603 279 603 271.5 592.5 c 128,-1,12
 264 582 264 582 253 582 c 0,13,14
 251 582 251 582 247 583 c 1,15,16
 245 585 245 585 243 585 c 2,17,-1
 139 641 l 1,18,-1
 35 585 l 2,19,20
 30 582 30 582 26 582 c 0,21,22
 15 582 15 582 7.5 592.5 c 128,-1,23
 0 603 0 603 0 617 c 0,0,1
EndSplineSet
EndChar

StartChar: ring
Encoding: 321 730 199
Width: 192
Flags: W
LayerCount: 2
Fore
SplineSet
0 672 m 0,0,1
 0 710 0 710 28 739.5 c 128,-1,2
 56 769 56 769 95 769 c 0,3,4
 133 769 133 769 162.5 739.5 c 128,-1,5
 192 710 192 710 192 672 c 0,6,7
 192 633 192 633 162.5 603 c 128,-1,8
 133 573 133 573 95 573 c 0,9,10
 56 573 56 573 28 603 c 128,-1,11
 0 633 0 633 0 672 c 0,0,1
44 671 m 0,12,13
 44 651 44 651 59.5 634 c 128,-1,14
 75 617 75 617 96 617 c 0,15,16
 116 617 116 617 131 633.5 c 128,-1,17
 146 650 146 650 146 671 c 0,18,19
 146 690 146 690 131 705.5 c 128,-1,20
 116 721 116 721 96 721 c 0,21,22
 75 721 75 721 59.5 705.5 c 128,-1,23
 44 690 44 690 44 671 c 0,12,13
EndSplineSet
EndChar

StartChar: tilde
Encoding: 322 732 200
Width: 330
Flags: W
LayerCount: 2
Fore
SplineSet
0 636 m 0,0,1
 0 670 0 670 29 685 c 128,-1,2
 58 700 58 700 87 700 c 0,3,4
 115 700 115 700 156.5 684.5 c 128,-1,5
 198 669 198 669 225 669 c 0,6,7
 249 669 249 669 272 681.5 c 128,-1,8
 295 694 295 694 302 694 c 0,9,10
 316 694 316 694 323 682 c 128,-1,11
 330 670 330 670 330 660 c 0,12,13
 330 624 330 624 302 610 c 128,-1,14
 274 596 274 596 245 596 c 0,15,16
 213 596 213 596 172 611.5 c 128,-1,17
 131 627 131 627 106 627 c 0,18,19
 82 627 82 627 58.5 613.5 c 128,-1,20
 35 600 35 600 28 600 c 0,21,22
 14 600 14 600 7 612.5 c 128,-1,23
 0 625 0 625 0 636 c 0,0,1
EndSplineSet
EndChar

